<svg width="160" height="116" viewBox="0 0 160 116" fill="none" xmlns="http://www.w3.org/2000/svg">
<path d="M1.59961 45.0781V58.6397C3.60921 53.2573 9.15161 49.1549 14.7196 49.1549C20.9916 49.1549 24.9596 54.1597 23.6284 60.4189C23.0371 62.8124 21.8645 65.0231 20.2145 66.8551C18.5645 68.6871 16.4881 70.0837 14.1692 70.9213H27.4428V45.0781H1.59961Z" fill="#FF1F2C"/>
<path d="M12.3645 70.1409C16.3056 70.1409 19.5005 65.7884 19.5005 60.4193C19.5005 55.0503 16.3056 50.6978 12.3645 50.6978C8.42341 50.6978 5.22852 55.0503 5.22852 60.4193C5.22852 65.7884 8.42341 70.1409 12.3645 70.1409Z" fill="#FF1F2C"/>
<path d="M155.84 66.9217H155.136V68.7777H154.88V66.8577H154.169V66.6529H155.769V66.9089L155.84 66.9217ZM158.4 68.8033H158.137V66.9601L157.44 68.8033H157.254L156.492 66.9601V68.8097H156.23V66.7233H156.704L157.299 68.2913L157.9 66.7233H158.374V68.8097L158.4 68.8033ZM47.7244 60.8353C47.7244 65.4369 45.0876 69.3025 40.1724 69.3025C35.2572 69.3025 32.6396 65.4369 32.6396 60.8353C32.6396 56.2338 35.2572 52.3682 40.1724 52.3682C45.0876 52.3682 47.7244 56.2338 47.7244 60.8353ZM34.5596 60.8353C34.5596 64.2337 36.4156 67.6577 40.1532 67.6577C43.8908 67.6577 45.7469 64.2593 45.7469 60.8353C45.7469 57.4114 43.8908 54.013 40.1532 54.013C36.4156 54.013 34.5596 57.4114 34.5596 60.8353ZM47.3596 52.8802H49.5292L54.5724 66.9089H54.6236L59.5196 52.8802H61.5036L55.5452 68.8161H53.4716L47.3596 52.8802ZM63.3596 61.3601C63.4108 64.2337 64.8764 67.6577 68.614 67.6577C71.4876 67.6577 73.0044 65.9553 73.6572 63.5809H75.6157C74.7772 67.1841 72.6652 69.3025 68.6652 69.3025C63.5964 69.3025 61.4524 65.3857 61.4524 60.8353C61.4524 56.6306 63.5708 52.3682 68.6652 52.3682C73.7596 52.3682 75.8268 56.8481 75.7052 61.3281L63.3596 61.3601ZM73.734 59.7089C73.6572 56.7585 71.814 54.013 68.6652 54.013C65.5164 54.013 63.7244 56.7842 63.4108 59.7089H73.734ZM95.7117 57.5138C95.6348 55.0882 93.7533 53.9874 91.5325 53.9874C89.8045 53.9874 87.7437 54.6913 87.7437 56.7329C87.7437 58.4545 89.7276 59.0818 91.0332 59.4274L93.6508 60.0226C95.8716 60.3682 98.1948 61.6737 98.1948 64.4449C98.1948 67.9201 94.7708 69.2513 91.7948 69.2513C88.0572 69.2513 85.5484 67.5233 85.2348 63.6066H87.1933C87.3725 66.2433 89.286 67.6065 91.8717 67.6065C93.702 67.6065 96.2621 66.7681 96.2621 64.5729C96.2621 62.7169 94.534 62.0897 92.7292 61.6737L90.2204 61.0977C87.7116 60.3937 85.7404 59.5297 85.7404 56.8354C85.7404 53.5714 88.9021 52.3554 91.7245 52.3554C94.8861 52.3554 97.4845 54.0514 97.5804 57.4754H95.7245L95.7117 57.5138ZM102.995 52.8802H106.24V54.4738H102.969V65.2385C102.969 66.5185 103.155 67.2225 104.537 67.3313C105.113 67.3313 105.664 67.2801 106.24 67.2481V68.9505C105.638 68.9505 105.113 69.0017 104.512 69.0017C101.9 69.0017 100.985 68.1377 101.036 65.3985V54.5186H99.1996V52.8418H101.056V48.0546H103.014V52.8802H102.995ZM121.708 60.8481C121.708 65.4497 119.072 69.3153 114.156 69.3153C109.241 69.3153 106.604 65.4753 106.604 60.8481C106.604 56.2209 109.241 52.381 114.156 52.381C119.072 52.381 121.708 56.2209 121.708 60.8481ZM108.563 60.8481C108.563 64.2465 110.419 67.6705 114.156 67.6705C117.894 67.6705 119.75 64.2721 119.75 60.8481C119.75 57.4241 117.894 54.0258 114.156 54.0258C110.419 54.0258 108.563 57.4114 108.563 60.8353V60.8481ZM135.558 57.8722C135.04 55.4914 133.574 54.0322 131.04 54.0322C127.302 54.0322 125.446 57.4306 125.446 60.8545C125.446 64.2785 127.302 67.6769 131.04 67.6769C133.472 67.6769 135.43 65.8209 135.692 63.1265H137.651C137.126 66.9665 134.617 69.3473 131.04 69.3473C126.124 69.3473 123.488 65.5073 123.488 60.8801C123.488 56.253 126.124 52.413 131.04 52.413C134.438 52.413 137.075 54.2434 137.516 57.8785H135.558V57.8722ZM139.686 46.7106H141.651V60.5601L150.508 52.8226H153.12L146.246 58.7681L153.542 68.8033H151.11L144.812 60.1314L141.651 62.7681V68.8801H139.686V46.6978V46.7106ZM84.806 52.6946C83.7214 52.8373 82.6976 53.2785 81.849 53.969C81.0003 54.6594 80.3601 55.572 79.9996 56.605V52.8802H78.2204V68.8161H80.1852V60.2849C80.1309 58.928 80.5767 57.5984 81.4379 56.5484C82.2992 55.4984 83.5159 54.8011 84.8572 54.589V52.669L84.806 52.6946Z" fill="black"/>
</svg>
