<svg width="160" height="116" viewBox="0 0 160 116" fill="none" xmlns="http://www.w3.org/2000/svg">
<path d="M29.5688 81.1948H27.3096V92.094H35.2136V90.0588H29.5688V81.1948Z" fill="#14377D"/>
<path d="M56.0443 86.8912L53.4139 81.2144H53.1387L50.5147 86.8784L48.4987 81.2144H46.0859L50.0795 92.0367L50.1051 92.1071H50.4443L53.2859 86.0336L56.1019 92.0944H56.4539L60.5179 81.2144H58.1051L56.0443 86.8912Z" fill="#14377D"/>
<path d="M61.5107 92.094H69.5875V90.0332H63.7699V87.7484H68.9347V85.6748H63.7699V83.2236H69.5875V81.1948H61.5107V92.094Z" fill="#14377D"/>
<path d="M73.6826 81.1948H71.417V92.094H79.321V90.0588H73.6826V81.1948Z" fill="#14377D"/>
<path d="M82.6108 81.1948H80.3516V92.094H88.2555V90.0588H82.6108V81.1948Z" fill="#14377D"/>
<path d="M100.057 84.3181C100.056 84.4685 100.03 84.6177 99.9805 84.7597C99.9348 84.9037 99.8633 85.0381 99.7693 85.1565C99.6739 85.2723 99.5564 85.368 99.4237 85.4381C99.2744 85.5106 99.1096 85.5457 98.9437 85.5405H96.5501V83.2237H99.1101C99.2379 83.2237 99.3636 83.2568 99.4749 83.3197C99.5925 83.3796 99.6987 83.4598 99.7885 83.5565C99.8768 83.6597 99.9481 83.7764 99.9997 83.9021C100.05 84.0349 100.077 84.1759 100.077 84.3181H100.057ZM100.512 88.7277C100.51 88.8916 100.48 89.0541 100.422 89.2077C100.356 89.3645 100.267 89.511 100.16 89.6429C100.057 89.7678 99.9306 89.8721 99.7885 89.9501C99.653 90.0234 99.501 90.0609 99.3469 90.0589H96.5693V87.5693H99.1293C99.5032 87.549 99.871 87.67 100.16 87.9085C100.275 88.0108 100.367 88.137 100.429 88.2785C100.491 88.42 100.521 88.5733 100.518 88.7277H100.512ZM102.054 87.0637C101.849 86.8355 101.604 86.6468 101.331 86.5069C101.23 86.455 101.125 86.4122 101.017 86.3789C101.102 86.3426 101.183 86.2998 101.261 86.2509C101.484 86.1033 101.679 85.9169 101.837 85.7005C101.992 85.4866 102.117 85.2517 102.208 85.0029C102.293 84.769 102.339 84.5223 102.342 84.2733C102.36 83.7514 102.273 83.2314 102.086 82.7437C101.934 82.3741 101.692 82.0485 101.382 81.7965C101.078 81.5605 100.723 81.3984 100.345 81.3229C99.9393 81.2365 99.5252 81.1936 99.1101 81.1949H94.3037V92.0749H99.3469C99.7914 92.0781 100.234 92.0243 100.665 91.9149C101.066 91.8093 101.439 91.6195 101.76 91.3581C102.087 91.0865 102.344 90.7395 102.509 90.3469C102.7 89.8626 102.792 89.3444 102.777 88.8237C102.782 88.4882 102.712 88.156 102.573 87.8509C102.444 87.558 102.269 87.2879 102.054 87.0509" fill="#14377D"/>
<path d="M110.081 88.4142H107.386L108.737 85.5597L110.081 88.4142ZM108.545 81.2397L102.977 92.1198H105.441L106.26 90.443H111.149L112.001 92.1198H114.471L108.903 81.2397H108.545Z" fill="#14377D"/>
<path d="M122.618 87.512L115.789 81.24L115.757 81.2144H115.386V92.0944H117.645V85.8864L124.506 92.0944H124.877V81.2144H122.618V87.512Z" fill="#14377D"/>
<path d="M136.173 81.214H133.382L129.306 86.4108V81.1948H127.04V92.094H129.306V87.4092L133.619 92.094H136.621L131.699 86.8268L136.173 81.214Z" fill="#14377D"/>
<path d="M137.601 92.094H145.677V90.0332H139.86V87.7484H145.018V85.6748H139.86V83.2236H145.677V81.1948H137.601V92.094Z" fill="#14377D"/>
<path d="M153.492 86.2514C153.35 86.3872 153.182 86.4938 152.999 86.565C152.826 86.6281 152.645 86.6627 152.461 86.6674H149.76V83.2242H152.455C152.734 83.2105 153.012 83.2771 153.255 83.4162C153.442 83.5265 153.599 83.6829 153.709 83.8706C153.819 84.0471 153.895 84.2424 153.933 84.4466C153.966 84.6241 153.985 84.8038 153.991 84.9842C153.996 85.2373 153.946 85.4885 153.844 85.7202C153.757 85.9173 153.635 86.0972 153.485 86.2514H153.492ZM149.76 88.6962H151.61L152.8 90.3666C153.21 90.9297 153.632 91.4994 154.08 92.0498L154.112 92.0882H156.8L156.672 91.9153C155.828 90.7505 154.964 89.5858 154.112 88.4402C154.736 88.1721 155.268 87.7271 155.642 87.1602C156.068 86.5176 156.291 85.7616 156.282 84.9906C156.287 84.4695 156.191 83.9523 156 83.4674C155.83 83.0161 155.566 82.6061 155.226 82.2642C154.884 81.9244 154.477 81.6568 154.029 81.477C153.536 81.2914 153.013 81.1981 152.487 81.2018H147.533V92.0818H149.76V88.6898V88.6962Z" fill="#14377D"/>
<path d="M12.8834 82.7245C12.5367 82.3744 12.1476 82.069 11.725 81.8157C10.8541 81.2908 9.8554 81.0162 8.8386 81.0221C8.08594 81.0191 7.34077 81.1716 6.6498 81.4701C5.29876 82.0448 4.22293 83.1206 3.6482 84.4717C3.3526 85.1624 3.2002 85.9059 3.2002 86.6573C3.2002 87.4086 3.3526 88.1521 3.6482 88.8429C3.93358 89.5118 4.34414 90.12 4.8578 90.6349C5.37343 91.1476 5.98148 91.558 6.6498 91.8445C7.34004 92.1453 8.0857 92.2979 8.8386 92.2925C9.85724 92.2926 10.8561 92.0113 11.725 91.4797C12.149 91.2284 12.5384 90.9229 12.8834 90.5709C13.2273 90.2172 13.5222 89.819 13.7602 89.3869L13.8178 89.2781L11.7058 88.4269L11.6546 88.4973C11.5009 88.729 11.3228 88.9435 11.1234 89.1373C10.9211 89.3384 10.6955 89.5146 10.4514 89.6621C10.2087 89.8123 9.94865 89.9327 9.677 90.0205C9.40313 90.1033 9.11832 90.1443 8.8322 90.1421C8.37882 90.1455 7.93045 90.0471 7.5202 89.8541C7.11867 89.6678 6.75601 89.4072 6.4514 89.0861C6.16055 88.7655 5.92677 88.3976 5.7602 87.9981C5.58277 87.5744 5.4914 87.1198 5.4914 86.6605C5.4914 86.2012 5.58277 85.7465 5.7602 85.3229C5.93152 84.9069 6.17652 84.5254 6.4834 84.1965C6.78633 83.8734 7.14938 83.6125 7.5522 83.4285C7.95419 83.2467 8.39105 83.1549 8.8322 83.1597C9.11829 83.1578 9.40305 83.1988 9.677 83.2813C9.94844 83.3668 10.2085 83.485 10.4514 83.6333C10.6926 83.7849 10.9178 83.9608 11.1234 84.1581C11.3231 84.3515 11.5012 84.5661 11.6546 84.7981L11.7058 84.8749L13.8178 84.0173L13.7602 83.9085C13.5209 83.483 13.226 83.0913 12.8834 82.7437" fill="#14377D"/>
<path d="M23.4622 86.6409C23.4615 87.1022 23.3702 87.5589 23.1934 87.9849C23.0167 88.3995 22.7699 88.7806 22.4638 89.1113C22.1607 89.4374 21.7979 89.7025 21.395 89.8921C20.9825 90.0818 20.5338 90.18 20.0798 90.18C19.6258 90.18 19.1771 90.0818 18.7646 89.8921C18.3618 89.7025 17.999 89.4374 17.6958 89.1113C17.3862 88.7833 17.139 88.4016 16.9662 87.9849C16.7888 87.5613 16.6974 87.1066 16.6974 86.6473C16.6974 86.188 16.7888 85.7334 16.9662 85.3097C17.1374 84.8922 17.3848 84.5103 17.6958 84.1833C18.0023 83.8615 18.3672 83.6009 18.771 83.4153C19.1823 83.2254 19.63 83.127 20.083 83.127C20.5361 83.127 20.9837 83.2254 21.395 83.4153C22.2201 83.7988 22.8646 84.487 23.1934 85.3353C23.3676 85.7577 23.4589 86.2097 23.4622 86.6665V86.6409ZM24.0638 82.6729C23.549 82.1593 22.9407 81.7487 22.2718 81.4633C21.5777 81.1676 20.8311 81.0151 20.0766 81.0151C19.3222 81.0151 18.5755 81.1676 17.8814 81.4633C16.5362 82.0336 15.4616 83.0991 14.8798 84.4393C14.5885 85.1357 14.4385 85.8829 14.4385 86.6377C14.4385 87.3925 14.5885 88.1398 14.8798 88.8361C15.4644 90.1805 16.5371 91.2531 17.8814 91.8377C18.5766 92.1292 19.3228 92.2794 20.0766 92.2794C20.8304 92.2794 21.5767 92.1292 22.2718 91.8377C23.618 91.2558 24.6915 90.1823 25.2734 88.8361C25.569 88.1409 25.7213 87.3932 25.7213 86.6377C25.7213 85.8823 25.569 85.1346 25.2734 84.4393C24.9884 83.7664 24.5779 83.1539 24.0638 82.6345" fill="#14377D"/>
<path d="M43.7445 86.6609C43.7676 87.2573 43.6674 87.8521 43.4501 88.4081C43.2839 88.805 43.0275 89.1578 42.7013 89.4385C42.4071 89.6791 42.0609 89.8478 41.6901 89.9313C41.3209 90.0176 40.9429 90.0606 40.5637 90.0593H38.5029V83.2561H40.5637C40.9384 83.2586 41.3118 83.3015 41.6773 83.3841C42.05 83.4675 42.3984 83.6361 42.6949 83.8769C43.0297 84.151 43.2895 84.5055 43.4501 84.9073C43.6679 85.4653 43.7681 86.0623 43.7445 86.6609ZM44.3845 82.5713C43.3277 81.6389 41.9528 81.1485 40.5445 81.2017H36.2373V92.0817H40.5573C41.2795 92.0876 41.9977 91.973 42.6821 91.7425C43.3134 91.5236 43.8928 91.1772 44.3845 90.7249C44.9219 90.2388 45.3382 89.6339 45.6005 88.9585C45.8798 88.2161 46.0187 87.4283 46.0101 86.6353C46.0191 85.8463 45.8801 85.0627 45.6005 84.3249C45.3415 83.6477 44.9246 83.0421 44.3845 82.5585" fill="#14377D"/>
<path d="M105.235 24.1069H54.7646V74.5773H105.235V24.1069Z" fill="#14377D"/>
<path d="M57.4592 71.8763H102.541V26.8011H57.4592V71.8763ZM103.053 72.3947H56.96V26.2827H103.04L103.053 72.3947Z" fill="white"/>
<path d="M86.1888 41.2712L89.728 38.9096L93.2672 41.2712L92.1152 37.1752L95.456 34.5384L91.2 34.372L89.728 30.3784L88.2496 34.372L84 34.5384L87.3408 37.1752L86.1888 41.2712Z" fill="white"/>
<path d="M92.4866 56.4202C91.9045 55.6204 91.1325 54.9782 90.2402 54.5514C90.8945 54.088 91.4422 53.4901 91.8466 52.7978C92.4456 51.7823 92.7575 50.6231 92.749 49.4442C92.7483 48.6806 92.6162 47.9229 92.3586 47.2042C92.1058 46.483 91.7289 45.8116 91.245 45.2202C90.7592 44.6261 90.1584 44.1363 89.4786 43.7802C88.7506 43.3987 87.9388 43.2051 87.117 43.217H75.469V53.7194C74.3645 53.7921 73.2605 53.5713 72.269 53.0794C71.4009 52.6153 70.6246 51.9973 69.9778 51.2554C69.3266 50.4647 68.8197 49.5657 68.4802 48.5994C68.1089 47.5736 67.9225 46.4902 67.9298 45.3994C67.9306 44.3913 68.0882 43.3894 68.397 42.4298C68.689 41.4896 69.151 40.6111 69.7602 39.8378C70.3699 39.0653 71.1325 38.4269 72.0002 37.9626C73.4422 37.2422 75.0922 37.054 76.6594 37.4314C77.2092 37.5535 77.7407 37.7471 78.2402 38.0074C78.7629 38.2901 79.2398 38.6505 79.6546 39.0762C80.1099 39.5635 80.4838 40.1211 80.7618 40.7274L81.0242 41.2778L84.1602 39.2426L83.9618 38.8266C83.2174 37.2809 82.0473 35.9797 80.589 35.0762C78.9561 34.0903 77.075 33.5928 75.1682 33.6426C73.5312 33.6163 71.9103 33.9689 70.4322 34.673C69.0869 35.321 67.8889 36.238 66.9122 37.3674C65.9574 38.4754 65.2174 39.7516 64.7298 41.1306C63.9893 43.2233 63.8154 45.4746 64.2256 47.6562C64.6359 49.8378 65.6157 51.8722 67.0658 53.553C68.0404 54.6811 69.2195 55.6149 70.541 56.305C70.6626 56.369 70.7906 56.4138 70.9186 56.4778L71.1554 56.5802C71.3915 56.6862 71.6329 56.7801 71.8786 56.8618L72.3778 57.0218C72.6274 57.0922 72.8834 57.1498 73.1394 57.201C73.3954 57.2522 73.485 57.265 73.6642 57.2842C74.1094 57.3467 74.5586 57.3767 75.0082 57.3738H75.4882C77.2341 57.2812 78.9374 56.8002 80.4738 55.9658C80.7906 55.7919 81.0982 55.6018 81.3954 55.3962C81.5938 55.2618 81.7794 55.1146 81.965 54.9674C82.2465 54.7455 82.5137 54.5061 82.765 54.2506C82.9378 54.0778 83.0978 53.8986 83.2514 53.7194C83.405 53.5402 83.5522 53.3354 83.6866 53.137C83.9572 52.7333 84.1887 52.3047 84.3778 51.857L84.5122 51.4986L84.1794 51.2042L81.7666 48.9898C81.7666 48.9898 81.5234 49.5594 81.3826 49.8218C81.1912 50.1599 80.9774 50.4849 80.7426 50.7946C80.4867 51.1384 80.2065 51.4635 79.9042 51.7674C79.73 51.9397 79.5462 52.1021 79.3538 52.2538V46.7306H86.1314C86.5051 46.7275 86.8747 46.8084 87.213 46.9674C87.5435 47.1132 87.8367 47.332 88.0706 47.6074C88.3207 47.9184 88.5175 48.2687 88.653 48.6442C88.799 49.055 88.8726 49.4881 88.8706 49.9242C88.8725 50.754 88.5696 51.5557 88.0194 52.177C87.7598 52.4631 87.4467 52.6958 87.0978 52.8618C86.734 53.0263 86.3386 53.1093 85.9394 53.105H84.9154C84.8002 53.3098 84.6786 53.5146 84.5506 53.745C84.2423 54.2041 83.8909 54.6327 83.501 55.025C82.9855 55.5368 82.4218 55.9976 81.8178 56.401C81.7218 56.465 81.7666 56.5034 81.8178 56.5034H86.8226C87.2196 56.5008 87.6118 56.5906 87.9682 56.7658C88.3196 56.9416 88.6328 57.1852 88.8898 57.4826C89.1623 57.807 89.3787 58.1747 89.5298 58.5706C89.6832 58.9798 89.7612 59.4135 89.7602 59.8506C89.7599 60.7033 89.4323 61.5235 88.845 62.1418C88.549 62.4385 88.2049 62.683 87.8274 62.865C87.4466 63.0418 87.0312 63.1314 86.6114 63.1274H79.3602V57.6362C78.9226 57.802 78.476 57.943 78.0226 58.0586C77.2003 58.2619 76.36 58.3841 75.5138 58.4234H75.5202V66.6282H86.6626C87.5835 66.6351 88.4988 66.4858 89.3698 66.1866C90.1919 65.9039 90.9538 65.4697 91.6162 64.9066C92.2702 64.3586 92.8003 63.678 93.1714 62.9098C93.5557 62.098 93.7505 61.2095 93.741 60.3114C93.7692 58.9077 93.3402 57.533 92.5186 56.3946" fill="white"/>
</svg>
