<svg width="160" height="116" viewBox="0 0 160 116" fill="none" xmlns="http://www.w3.org/2000/svg">
<path d="M26.016 49.6875C24.5056 49.6875 24.096 50.3275 24.096 51.8315V54.2763H28.1152L27.712 58.2315H24.0768V70.2187H19.2512V58.2315H16V54.2763H19.2512V51.9019C19.2512 47.9147 20.8576 45.8091 25.3376 45.8091C26.2788 45.807 27.2192 45.8626 28.1536 45.9755V49.6939L26.016 49.6875Z" fill="#1877F2"/>
<path d="M28.4287 61.7458C28.4287 57.2658 30.5343 53.9378 34.9567 53.9378C35.9126 53.8835 36.8625 54.1198 37.6815 54.6155C38.5006 55.1113 39.1504 55.8434 39.5455 56.7154V54.277H44.1599V70.2194H39.5455V67.8002C38.9055 69.3426 37.3695 70.5522 34.9567 70.5522C30.5343 70.5522 28.4287 67.1986 28.4287 62.7442V61.7458ZM33.2799 62.821C33.2799 65.1954 34.1503 66.7698 36.3967 66.7698C38.3743 66.7698 39.3727 65.3298 39.3727 63.0514V61.4514C39.3727 59.1794 38.3743 57.7394 36.3967 57.7394C34.1503 57.7394 33.2799 59.3074 33.2799 61.6882V62.821Z" fill="#1877F2"/>
<path d="M54.2153 53.9438C56.0905 53.9438 57.8633 54.347 58.8361 55.0126L57.7673 58.4302C56.7673 57.9538 55.675 57.7025 54.5673 57.6942C51.9561 57.6942 50.8233 59.1982 50.8233 61.7838V62.7182C50.8233 65.2782 51.9561 66.8014 54.5673 66.8014C55.675 66.7932 56.7673 66.5419 57.7673 66.0654L58.8361 69.483C57.8633 70.155 56.0905 70.5582 54.2153 70.5582C48.5513 70.5582 45.9785 67.5054 45.9785 62.6158V61.8798C45.9785 56.9902 48.5513 53.9438 54.2153 53.9438Z" fill="#1877F2"/>
<path d="M59.4688 62.8589V61.4509C59.4688 56.9325 62.0287 53.9565 67.3087 53.9565C72.2623 53.9565 74.4447 56.9709 74.4447 61.3933V63.9533H64.2943C64.3903 66.1357 65.3631 67.1021 68.0383 67.1021C69.7911 67.1098 71.529 66.7818 73.1583 66.1357L74.0415 69.4381C72.7615 70.0781 70.1568 70.6093 67.8464 70.6093C61.7472 70.5901 59.4688 67.5437 59.4688 62.8589ZM64.2943 60.7597H70.1183V60.3629C70.1183 58.6221 69.4207 57.2397 67.3087 57.2397C65.1967 57.2397 64.2943 58.6157 64.2943 60.7533V60.7597Z" fill="#1877F2"/>
<path d="M92.3193 62.7506C92.3193 67.2306 90.1753 70.5586 85.7593 70.5586C83.3465 70.5586 81.6761 69.3554 81.0041 67.813V70.2258H76.4473V46.2771L81.2729 45.8354V56.485C81.7002 55.6776 82.3482 55.0082 83.1414 54.555C83.9346 54.1017 84.8403 53.8833 85.7529 53.925C90.1753 53.925 92.3129 57.2722 92.3129 61.733L92.3193 62.7506ZM87.4937 61.6498C87.4937 59.4034 86.6233 57.7267 84.2937 57.7267C82.3161 57.7267 81.2473 59.1346 81.2473 61.413V63.0898C81.2473 65.3618 82.3161 66.7698 84.2937 66.7698C86.6041 66.7698 87.4937 65.0994 87.4937 62.853V61.6498Z" fill="#1877F2"/>
<path d="M93.9326 62.6798V61.8478C93.9326 57.259 96.5438 53.9438 101.869 53.9438C107.193 53.9438 109.811 57.259 109.811 61.8478V62.6798C109.811 67.2686 107.193 70.5902 101.869 70.5902C96.5438 70.5902 93.9326 67.2366 93.9326 62.6798ZM104.96 61.515C104.96 59.403 104.089 57.7262 101.837 57.7262C99.5838 57.7262 98.7198 59.403 98.7198 61.515V62.987C98.7198 65.099 99.5902 66.7694 101.837 66.7694C104.083 66.7694 104.96 65.099 104.96 62.987V61.515Z" fill="#1877F2"/>
<path d="M111.411 62.6798V61.8478C111.411 57.259 114.022 53.9438 119.354 53.9438C124.685 53.9438 127.29 57.259 127.29 61.8478V62.6798C127.29 67.2686 124.678 70.5902 119.354 70.5902C114.029 70.5902 111.411 67.2366 111.411 62.6798ZM122.464 61.547C122.464 59.435 121.594 57.7582 119.354 57.7582C117.114 57.7582 116.237 59.435 116.237 61.547V63.019C116.237 65.131 117.107 66.8014 119.354 66.8014C121.6 66.8014 122.464 65.131 122.464 63.019V61.547Z" fill="#1877F2"/>
<path d="M133.92 61.8803L138.675 54.2771H143.795L138.803 62.149L144 70.2195H138.88L133.926 62.4115V70.2195H129.101V46.2771L133.926 45.8354L133.92 61.8803Z" fill="#1877F2"/>
</svg>
