<svg width="160" height="116" viewBox="0 0 160 116" fill="none" xmlns="http://www.w3.org/2000/svg">
<path d="M32.6976 64.6386L35.5008 65.0034C35.483 65.2164 35.483 65.4304 35.5008 65.6434C35.5008 68.5661 35.5008 71.4909 35.5008 74.4178C35.5265 74.5625 35.5017 74.7117 35.4304 74.8402H35.104C34.9489 74.8212 34.792 74.8212 34.6368 74.8402H34.2784C34.17 74.853 34.0604 74.853 33.952 74.8402C33.4784 74.8018 32.9984 74.8402 32.5248 74.7378C32.4662 74.639 32.4352 74.5263 32.4352 74.4114C32.4736 71.3522 32.4352 68.2866 32.4352 65.221C32.4161 65.0851 32.4161 64.9473 32.4352 64.8114C32.5248 64.7026 32.5504 64.6002 32.6976 64.6386Z" fill="#6AA739"/>
<path d="M35.4435 74.8395C35.4435 71.7461 35.4435 68.6549 35.4435 65.5659C35.4687 65.4288 35.4485 65.2872 35.3859 65.1627C35.3219 65.0667 35.4371 65.0283 35.5075 64.9771L37.7923 65.1755C37.8269 65.2259 37.8407 65.2879 37.8307 65.3483C37.8307 68.3115 37.8307 71.2683 37.8307 74.2315C37.8307 74.4107 37.9523 74.5835 37.8307 74.7691C37.7091 74.9547 37.5811 74.7691 37.4723 74.8395H35.4435Z" fill="#69A436"/>
<path d="M61.7793 60.2672C61.7793 60.1968 61.8177 60.1968 61.8689 60.1968H158.08C158.189 60.1968 158.298 60.1968 158.4 60.1968V60.2928C158.318 60.3121 158.233 60.3121 158.15 60.2928H62.0225C61.9393 60.2928 61.8561 60.3184 61.7793 60.2672Z" fill="#103C63"/>
<path d="M61.7793 60.2671H158.419V60.3119H62.0225C61.9393 60.3119 61.8433 60.3695 61.7793 60.2671Z" fill="#869DAF"/>
<path d="M23.2451 41.5601H24.7171C24.7266 41.5706 24.7318 41.5843 24.7318 41.5985C24.7318 41.6126 24.7266 41.6263 24.7171 41.6369C24.244 41.7072 23.7631 41.7072 23.2899 41.6369C23.2809 41.6369 23.272 41.6346 23.2642 41.6302C23.2563 41.6257 23.2498 41.6193 23.2453 41.6115C23.2407 41.6037 23.2383 41.5948 23.2383 41.5858C23.2383 41.5767 23.2406 41.5679 23.2451 41.5601Z" fill="#5F93B5"/>
<path d="M24.7168 41.5599C24.7168 41.5599 24.7168 41.5279 24.7168 41.5151H25.0816V41.5599C25.0319 41.6058 24.9668 41.6313 24.8992 41.6313C24.8316 41.6313 24.7665 41.6058 24.7168 41.5599Z" fill="#C0D4E2"/>
<path d="M23.2449 41.5601C23.248 41.5748 23.248 41.5901 23.2449 41.6049C23.2275 41.6241 23.2063 41.6394 23.1826 41.65C23.1589 41.6605 23.1333 41.6659 23.1073 41.6659C23.0814 41.6659 23.0558 41.6605 23.0321 41.65C23.0084 41.6394 22.9871 41.6241 22.9697 41.6049V41.5601H23.2449Z" fill="#C2D5E3"/>
<path d="M82.6365 44.2547C83.1184 43.933 83.6387 43.6728 84.1853 43.4803C85.2577 43.14 86.3839 43.0011 87.5069 43.0707C88.4956 43.108 89.4693 43.3249 90.3805 43.7107C91.5059 44.1525 92.4212 45.006 92.9405 46.0979C93.1961 46.7053 93.3246 47.3588 93.3181 48.0179C93.3181 50.9107 93.3181 53.7779 93.3181 56.6899C93.3181 56.8755 93.2797 56.9395 93.0813 56.9331C92.3453 56.9331 91.6093 56.9331 90.8733 56.9331C90.6941 56.9331 90.6493 56.8883 90.6493 56.7091C90.6493 53.8888 90.6493 51.0664 90.6493 48.2419C90.674 47.8469 90.6045 47.4518 90.4465 47.0891C90.2885 46.7263 90.0465 46.4063 89.7405 46.1555C89.2799 45.8053 88.7342 45.5843 88.1597 45.5155C87.2229 45.3529 86.2619 45.3966 85.3437 45.6435C84.5685 45.847 83.8824 46.3015 83.3927 46.9359C82.903 47.5704 82.637 48.3492 82.6365 49.1507C82.5725 51.6531 82.6365 54.1555 82.6365 56.6515C82.6365 56.8819 82.5725 56.9267 82.3549 56.9203C81.6317 56.9203 80.9021 56.9203 80.1725 56.9203C80.0253 56.9203 79.9805 56.9203 79.9805 56.7347C79.9805 52.3357 79.9805 47.9389 79.9805 43.5443C79.9805 43.3779 80.0317 43.3459 80.1917 43.3459C80.9341 43.3459 81.6765 43.3459 82.4189 43.3459C82.5789 43.3459 82.6429 43.3459 82.6301 43.5443C82.6173 43.7427 82.6365 43.9859 82.6365 44.2547Z" fill="#103C63"/>
<path d="M103.962 54.8534C105.228 54.9331 106.487 54.6105 107.559 53.9318C108.184 53.5245 108.639 52.9033 108.839 52.1846C108.841 52.162 108.848 52.1402 108.859 52.1205C108.87 52.1007 108.885 52.0834 108.903 52.0696C108.921 52.0558 108.942 52.0459 108.964 52.0403C108.985 52.0348 109.008 52.0338 109.031 52.0374C109.78 52.0374 110.535 52.0374 111.284 52.0374C111.476 52.0374 111.405 52.1334 111.38 52.2294C110.74 54.6806 109.229 56.319 106.701 56.895C104.671 57.4234 102.525 57.2888 100.576 56.511C99.5562 56.1372 98.6551 55.4964 97.9672 54.6554C97.2794 53.8144 96.8299 52.8042 96.6659 51.7302C96.4315 50.6441 96.4517 49.5185 96.7249 48.4415C96.998 47.3645 97.5167 46.3653 98.2403 45.5222C99.2134 44.4177 100.514 43.653 101.952 43.3398C103.556 42.946 105.232 42.946 106.836 43.3398C107.854 43.5653 108.792 44.0631 109.549 44.78C110.306 45.4969 110.855 46.4059 111.136 47.4102C111.277 47.8262 111.277 47.8198 110.855 47.8454L109.024 47.967C108.996 47.9746 108.967 47.9765 108.938 47.9726C108.909 47.9686 108.881 47.9589 108.856 47.944C108.831 47.929 108.809 47.9092 108.792 47.8857C108.775 47.8621 108.762 47.8354 108.756 47.807C108.443 47.0571 107.867 46.4471 107.136 46.0918C106.032 45.4932 104.763 45.2687 103.52 45.4518C102.656 45.5501 101.831 45.8649 101.12 46.367C100.618 46.7278 100.198 47.1899 99.8859 47.7235C99.5739 48.2571 99.3774 48.8503 99.3091 49.4646C99.1827 50.2451 99.2241 51.0437 99.4307 51.807C99.6209 52.4892 99.99 53.1082 100.5 53.5999C101.009 54.0916 101.641 54.4382 102.33 54.6038C102.859 54.7662 103.409 54.8502 103.962 54.8534Z" fill="#103C63"/>
<path d="M15.0463 69.7198C14.6815 69.515 14.3167 69.3102 13.9519 69.0798C13.8239 69.003 13.7663 68.9966 13.7023 69.163C13.3311 70.1358 12.9471 71.083 12.5631 72.0622C12.5424 72.1511 12.4982 72.2329 12.4351 72.299C12.1983 71.659 11.9679 71.019 11.7375 70.379C10.5514 67.1022 9.36741 63.8275 8.18554 60.555C8.10874 60.3374 8.14714 60.267 8.37114 60.1966C10.5983 59.4798 12.8511 58.7438 15.0527 58.0142H15.1423C15.1564 58.0408 15.1637 58.0705 15.1637 58.1006C15.1637 58.1307 15.1564 58.1603 15.1423 58.187C15.0985 58.5457 15.0836 58.9074 15.0975 59.2686V68.8174C15.0838 68.9079 15.088 69.0003 15.11 69.0893C15.1319 69.1782 15.1712 69.262 15.2255 69.3358C15.3599 69.3934 15.2319 69.5726 15.0463 69.7198Z" fill="#79BE42"/>
<path d="M135.092 44.5806C135.763 44.0915 136.517 43.7293 137.319 43.5118C138.262 43.2502 139.233 43.1082 140.212 43.0894H140.852C140.967 43.0894 140.999 43.1278 140.999 43.2366C140.999 43.9214 140.999 44.6126 140.999 45.3038C140.999 45.451 140.922 45.4382 140.826 45.4382C140.008 45.4538 139.194 45.5633 138.4 45.7646C137.67 45.9667 137.008 46.3625 136.484 46.91C135.96 47.4576 135.594 48.1365 135.424 48.875C135.183 49.7368 135.071 50.6298 135.092 51.5246C135.092 53.2526 135.092 54.9806 135.092 56.7022C135.092 56.9006 135.034 56.9454 134.848 56.939H132.615C132.474 56.939 132.423 56.939 132.423 56.7534C132.423 52.3544 132.423 47.9598 132.423 43.5694C132.423 43.4094 132.461 43.3646 132.628 43.3646C133.376 43.3646 134.125 43.3646 134.88 43.3646C135.04 43.3646 135.092 43.403 135.092 43.5694C135.085 43.8702 135.092 44.203 135.092 44.5806Z" fill="#103C63"/>
<path d="M15.0459 69.7198C15.1611 69.6494 15.1035 69.4702 15.2379 69.4126V69.3422C15.0203 69.2974 15.0715 69.131 15.0715 68.9902V58.9358C15.0488 58.6127 15.0813 58.2881 15.1675 57.9758L17.5547 57.1694C17.5284 57.3618 17.4745 57.5493 17.3947 57.7262C17.2027 58.283 17.0171 58.8398 16.8187 59.3902C16.7675 59.531 16.8187 59.5886 16.9211 59.6526C17.2219 59.7806 17.5099 59.9342 17.8043 60.075C17.8043 60.1134 17.7659 60.1518 17.7275 60.1518C17.4779 60.1518 17.4907 60.3182 17.4907 60.4974C17.4907 63.787 17.4907 67.083 17.4907 70.3726C17.4907 70.6094 17.4907 70.7822 17.7979 70.8462C17.9643 70.8462 17.9771 71.0318 17.8811 71.1726C16.9092 70.7426 15.9626 70.2575 15.0459 69.7198Z" fill="#77BC41"/>
<path d="M50.9569 64.4725C52.3472 64.1818 53.6954 63.7174 54.9697 63.0901C55.9623 62.6073 56.7662 61.808 57.2545 60.8181C57.2545 60.8181 57.2545 60.8181 57.3185 60.7349C57.2264 61.2761 57.1068 61.8122 56.9601 62.3413C56.3345 64.8777 55.0723 67.2126 53.2929 69.1253C52.6845 69.7934 52.0041 70.3923 51.2641 70.9109C51.1411 70.9658 51.0285 71.0416 50.9313 71.1349L50.8737 71.1797C50.7329 71.1797 50.6817 71.1093 50.7521 71.0005C50.8422 70.8296 50.8779 70.6354 50.8545 70.4437V64.8757C50.8384 64.7333 50.8748 64.5899 50.9569 64.4725Z" fill="#5D9732"/>
<path d="M17.8558 71.1731C17.9326 70.8979 17.715 70.8531 17.5486 70.8403C17.3822 70.8275 17.4014 70.7507 17.395 70.6547V60.3315C17.395 60.1907 17.3182 59.9347 17.6318 60.1203C17.6638 60.1203 17.7342 60.1203 17.779 60.0755L17.9198 60.1203C17.9291 60.1494 17.9291 60.1807 17.9198 60.2099C17.9198 60.2739 17.9198 60.3379 17.9646 60.3699C18.0094 60.4019 18.0734 60.3251 18.1118 60.2803C18.1502 60.2355 18.163 60.2291 18.2078 60.2419L20.1854 61.1187C19.9166 61.2339 19.9166 61.4579 19.9166 61.7075C19.9166 64.9416 19.9166 68.1757 19.9166 71.4099C19.9166 71.4803 19.9166 71.5507 19.9166 71.6211C19.9166 71.8771 19.9678 71.9091 20.2174 71.8899C20.3134 71.8899 20.4158 71.8899 20.467 71.9603C20.5182 72.0307 20.467 72.1459 20.371 72.2163C19.5262 71.9155 18.6814 71.5699 17.8558 71.1731Z" fill="#75B93F"/>
<path d="M44.1597 57.6494C43.8195 58.1346 43.3492 58.514 42.8029 58.7438C42.0045 59.1079 41.1534 59.3433 40.2813 59.4414C39.2718 59.5778 38.2535 59.6377 37.2349 59.6206C35.7205 59.6057 34.2087 59.4881 32.7101 59.2686C30.9905 59.0285 29.2976 58.6257 27.6542 58.0654C27.3437 57.966 27.0401 57.8463 26.7454 57.707C26.7134 57.6622 26.6238 57.6302 26.6686 57.5598C26.7134 57.4894 26.7646 57.515 26.8158 57.5598C26.9852 57.6077 27.1647 57.6077 27.3342 57.5598C27.5707 57.544 27.808 57.544 28.0446 57.5598H43.2445H43.8461C43.9677 57.5022 44.0957 57.5086 44.1597 57.6494Z" fill="#103C63"/>
<path d="M46.2721 73.4895C45.3126 73.8387 44.3228 74.0979 43.3153 74.2639C43.2125 74.1 43.1695 73.9055 43.1937 73.7135V66.1487C43.1937 65.8607 43.1489 65.5791 43.1937 65.2975C44.2113 65.2975 45.2225 65.2015 46.2337 65.1567C46.3745 65.2911 46.3489 65.4639 46.3489 65.6303C46.3489 67.0255 46.3489 68.4207 46.3489 69.8159C46.3489 70.8911 46.3489 71.9663 46.3489 73.0159C46.3591 73.1776 46.3329 73.3394 46.2721 73.4895Z" fill="#629C35"/>
<path d="M20.3908 72.2294V72.1846C20.3908 72.1078 20.5124 72.0566 20.442 71.9798C20.3716 71.903 20.2692 71.9798 20.186 71.9798C19.9492 72.0502 19.834 71.9798 19.834 71.7302V61.567C19.834 61.2022 19.834 61.2022 20.1732 61.1382L22.0484 61.8742C22.0769 61.9271 22.0901 61.987 22.0868 62.047C22.0868 65.4902 22.0868 68.927 22.0868 72.3702C22.0868 72.511 22.0868 72.6646 22.01 72.7862C21.4532 72.6198 20.9156 72.4342 20.3908 72.2294Z" fill="#74B83F"/>
<path d="M39.6793 65.2974C40.4665 65.2974 41.2473 65.2974 42.0281 65.3358C42.1691 66.0499 42.2079 66.7804 42.1433 67.5054C42.1433 69.6494 42.1433 71.7998 42.1433 73.9438C42.1566 74.0462 42.145 74.1504 42.1093 74.2473C42.0736 74.3443 42.015 74.4312 41.9385 74.5006C41.5157 74.5842 41.0883 74.6419 40.6585 74.6734C40.3001 74.7182 39.9353 74.7374 39.5705 74.763C39.3593 74.6478 39.3529 74.635 39.5065 74.4814C39.5317 74.4577 39.5517 74.4289 39.5649 74.3969C39.5782 74.3649 39.5844 74.3304 39.5833 74.2958C39.5833 74.2126 39.5833 74.1294 39.5833 74.0462V65.7262C39.5587 65.5762 39.5931 65.4226 39.6793 65.2974Z" fill="#65A036"/>
<path d="M55.1935 53.8359C55.1725 54.0542 55.1252 54.269 55.0527 54.4759C54.8223 54.4759 54.5919 54.4759 54.3615 54.4759H21.9903C21.7164 54.4376 21.4386 54.4376 21.1647 54.4759C20.8798 54.2701 20.6141 54.0387 20.3711 53.7847C20.4223 53.6695 20.5247 53.6631 20.6271 53.6567H54.3999C54.5983 53.6567 54.7967 53.6567 54.9951 53.6567C55.1935 53.6567 55.2255 53.6695 55.1935 53.8359Z" fill="#005080"/>
<path d="M23.04 62.2124L24.96 62.8524C24.8576 62.942 24.7872 63.0316 24.96 63.1276C24.9891 63.152 25.0127 63.1823 25.0292 63.2165C25.0458 63.2507 25.0549 63.288 25.056 63.326C25.056 63.3964 25.056 63.4668 25.056 63.5308C25.056 66.6711 25.056 69.8135 25.056 72.958C25.0738 73.0833 25.0478 73.2109 24.9826 73.3193C24.9173 73.4277 24.8166 73.5103 24.6976 73.5532C24.1217 73.4298 23.5534 73.2738 22.9952 73.086C22.8864 73.086 22.88 72.958 22.88 72.8684C22.88 72.6828 22.88 72.4972 22.88 72.3116V62.6796C22.848 62.5068 22.7904 62.3084 23.04 62.2124Z" fill="#74B43D"/>
<path d="M19.8407 53.2391C19.646 53.0585 19.4722 52.8567 19.3223 52.6375C19.3538 52.616 19.3892 52.601 19.4266 52.5933C19.4639 52.5856 19.5024 52.5854 19.5399 52.5927H23.0407C33.7543 52.6503 44.4743 52.5927 55.1943 52.5927C55.4823 52.5927 55.4823 52.5927 55.4247 52.8615C55.3671 53.1303 55.3351 53.2135 55.2903 53.3927C55.071 53.2967 54.8312 53.2571 54.5927 53.2775H20.6727C20.3948 53.296 20.1157 53.2832 19.8407 53.2391Z" fill="#015487"/>
<path d="M32.6978 64.639C32.5122 64.7094 32.5442 64.863 32.5442 65.0038C32.5442 66.1238 32.5442 67.2374 32.5442 68.3574C32.5442 70.2774 32.5442 72.1974 32.5442 74.1174C32.5442 74.3222 32.5442 74.5206 32.5442 74.719C31.8522 74.7009 31.1619 74.6411 30.477 74.5398C30.4445 74.4963 30.4209 74.4467 30.4077 74.394C30.3946 74.3412 30.392 74.2864 30.4002 74.2326V64.8438C30.4002 64.6966 30.4002 64.5494 30.4002 64.4022C30.4002 64.255 30.477 64.223 30.605 64.2742L32.6978 64.639Z" fill="#6BAB39"/>
<path d="M29.1329 74.3926L27.3857 74.1174C27.2705 74.0342 27.3089 73.9062 27.3089 73.8038C27.3089 71.6918 27.3089 69.5798 27.3089 67.4742C27.3089 66.3414 27.3089 65.2022 27.3089 64.0694C27.3089 63.8646 27.3089 63.6598 27.5649 63.5894L29.2737 63.999C29.3395 64.4523 29.361 64.911 29.3377 65.3686C29.3377 68.1291 29.3377 70.8875 29.3377 73.6438C29.3644 73.9101 29.2915 74.1769 29.1329 74.3926Z" fill="#6EAF3B"/>
<path d="M2.34881 53.3679C2.20976 52.8516 2.09866 52.3282 2.01601 51.7999C1.6975 49.8653 1.59233 47.9015 1.70241 45.9439C1.74035 44.8607 1.91013 43.7861 2.20801 42.7439C2.23016 42.6714 2.25798 42.6008 2.29121 42.5327C2.29121 42.5327 2.29121 42.5327 2.33601 42.5327C2.34008 42.7467 2.32724 42.9607 2.29761 43.1727C2.31048 44.1316 2.50822 45.0791 2.88001 45.9631C3.52805 47.4854 4.37605 48.9145 5.40161 50.2127L5.61281 50.5071C5.70881 50.7247 5.54241 50.8463 5.40801 50.9359C4.76801 51.3967 4.17281 51.9087 3.57121 52.4079C3.1692 52.6831 2.8092 53.0151 2.50241 53.3935C2.47041 53.3743 2.41281 53.4191 2.34881 53.3679Z" fill="#5D9631"/>
<path d="M39.6798 65.2978V74.2578C39.6798 74.3666 39.7886 74.5778 39.507 74.533C39.4558 74.533 39.443 74.597 39.507 74.6354C39.571 74.6738 39.6158 74.6354 39.6158 74.7378L38.6494 74.8018H37.9326L37.7598 74.8402C37.7849 74.6276 37.7849 74.4128 37.7598 74.2002C37.7598 71.3202 37.7598 68.4402 37.7598 65.5474C37.7586 65.4264 37.7736 65.3059 37.8046 65.189L39.6798 65.2978Z" fill="#67A237"/>
<path d="M50.9568 64.4722V70.6866C50.9686 70.7469 50.9635 70.8093 50.9421 70.8669C50.9206 70.9246 50.8836 70.9751 50.8352 71.013C50.7072 71.1026 50.8352 71.141 50.8992 71.1794C50.4279 71.5493 49.9221 71.873 49.3888 72.1458C49.12 72.2994 48.832 72.4274 48.5568 72.5618C48.4928 72.6066 48.4608 72.5618 48.4352 72.5106C48.3987 72.4259 48.3833 72.3337 48.3904 72.2418C48.3904 69.9314 48.3904 67.6274 48.3904 65.317C48.3653 65.1805 48.3903 65.0396 48.4608 64.9202L49.7856 64.6962L50.9568 64.4722Z" fill="#5F9833"/>
<path d="M19.8398 53.2398C19.8398 53.195 19.8782 53.1438 19.9358 53.1694C20.1163 53.2334 20.3094 53.2532 20.499 53.227H54.8223C54.9951 53.227 55.1998 53.1886 55.283 53.419C55.2785 53.562 55.2482 53.7029 55.1934 53.835C55.1934 53.739 55.1359 53.6686 55.0271 53.707C54.8828 53.7293 54.7361 53.7293 54.5919 53.707H20.7294C20.6069 53.6913 20.4824 53.7113 20.371 53.7646C20.175 53.61 19.9969 53.434 19.8398 53.2398Z" fill="#005284"/>
<path d="M48.4671 64.9204C48.4671 67.314 48.4671 69.7033 48.4671 72.0884C48.4671 72.2484 48.3647 72.434 48.5503 72.562C47.8643 72.9168 47.1491 73.2123 46.4127 73.4452L46.2655 73.49C46.1695 73.3876 46.2655 73.2724 46.2655 73.17C46.2655 70.61 46.2655 68.05 46.2655 65.49C46.2655 65.3684 46.2207 65.2532 46.2207 65.1316L48.4671 64.9204Z" fill="#619A35"/>
<path d="M24.6661 73.56C24.6661 73.5088 24.6661 73.432 24.7237 73.4256C24.9669 73.3936 24.9477 73.2208 24.9477 73.048V63.448C24.9477 63.2944 24.9477 63.1344 24.7429 63.1152C24.6661 63.1152 24.6533 63.0064 24.6533 62.9424C24.6533 62.8784 24.7237 62.8784 24.7813 62.8784C24.8259 62.8843 24.8711 62.8843 24.9157 62.8784L26.4069 63.3008L26.5093 63.3456C26.4699 63.4696 26.4589 63.6008 26.4773 63.7296C26.487 63.8361 26.487 63.9432 26.4773 64.0496V73.2464C26.4892 73.4896 26.4654 73.7333 26.4069 73.9696C25.8309 73.816 25.2421 73.7008 24.6661 73.56Z" fill="#71B23D"/>
<path d="M121.357 66.2066H122.554C122.714 66.2066 122.778 66.2066 122.772 66.4114C122.772 66.9426 122.772 67.4674 122.772 67.9986C122.774 68.052 122.765 68.1053 122.745 68.1549C122.725 68.2046 122.695 68.2494 122.656 68.2866C122.276 68.6673 121.782 68.9144 121.248 68.9906C120.496 69.158 119.712 69.1047 118.989 68.837C118.551 68.6765 118.172 68.3881 117.9 68.0091C117.629 67.6302 117.477 67.1783 117.466 66.7122C117.443 66.3601 117.471 66.0065 117.549 65.6626C117.629 65.2972 117.802 64.9587 118.051 64.6795C118.3 64.4004 118.616 64.1901 118.97 64.069C119.907 63.7329 120.932 63.7329 121.869 64.069C122.151 64.1708 122.408 64.3299 122.624 64.5362C122.727 64.6258 122.746 64.7026 122.624 64.7986C122.602 64.819 122.582 64.8428 122.567 64.869C122.432 65.0162 122.33 65.2402 122.17 65.2978C122.01 65.3554 121.888 65.0866 121.709 65.0034C121.311 64.8069 120.873 64.7048 120.429 64.7048C119.985 64.7048 119.547 64.8069 119.149 65.0034C118.92 65.1279 118.729 65.3133 118.598 65.5391C118.467 65.7649 118.401 66.0224 118.407 66.2834C118.33 67.5058 119.047 68.2034 120.295 68.2802C120.746 68.319 121.2 68.235 121.607 68.037C121.691 68.0091 121.763 67.9517 121.809 67.8754C121.855 67.799 121.872 67.7087 121.856 67.621C121.856 67.4354 121.94 67.1858 121.805 67.077C121.671 66.9682 121.46 67.045 121.274 67.045H120.122C119.981 67.045 119.924 67.045 119.924 66.8594C119.924 66.2578 119.924 66.2578 120.512 66.2578L121.357 66.2066Z" fill="#5D9631"/>
<path d="M22.9636 41.5601H25.0884C27.3751 41.6306 29.6437 41.9897 31.8404 42.6289L31.9876 42.6801C32.0324 42.7313 32.1284 42.7505 32.0836 42.8401C32.0388 42.9297 31.9748 42.9169 31.9044 42.9105C31.61 42.9105 31.3092 42.9105 31.0084 42.9105H19.3668C19.1663 42.9105 18.9679 42.9105 18.7716 42.9105C18.6244 42.9105 18.49 42.9105 18.5028 42.6801C19.267 42.234 20.1029 41.9244 20.9732 41.7649C21.6295 41.639 22.2954 41.5705 22.9636 41.5601Z" fill="#00558A"/>
<path d="M29.1327 74.3921C29.0751 74.3281 29.0559 74.2769 29.1327 74.2193C29.1758 74.1886 29.2099 74.1469 29.2313 74.0984C29.2527 74.05 29.2606 73.9967 29.2543 73.9441V64.4145C29.2634 64.3382 29.2452 64.2612 29.2031 64.1969C29.1327 64.1073 29.2031 64.0433 29.2607 63.9985C29.7087 64.0689 30.1567 64.1585 30.5983 64.2737C30.5151 64.2737 30.4319 64.2737 30.4511 64.3953C30.4735 64.5696 30.4735 64.7459 30.4511 64.9201C30.4511 68.1287 30.4511 71.3287 30.4511 74.5201C30.0098 74.4993 29.5698 74.4566 29.1327 74.3921Z" fill="#6DAC3B"/>
<path d="M18.5026 42.7316C18.5102 42.7655 18.5256 42.7971 18.5475 42.824C18.5695 42.851 18.5974 42.8724 18.629 42.8867C18.6607 42.9009 18.6952 42.9077 18.7299 42.9063C18.7646 42.9049 18.7985 42.8955 18.829 42.8788C18.9117 42.8659 18.9959 42.8659 19.0786 42.8788H31.3602C31.5561 42.8627 31.753 42.8627 31.949 42.8788C32.173 42.8788 31.949 42.77 31.949 42.7124C32.8009 42.9512 33.6332 43.255 34.4386 43.6212C34.4386 43.7236 34.3362 43.698 34.2786 43.698C33.8178 43.698 33.357 43.7428 32.8962 43.7428H18.1762C18.0034 43.7428 17.8242 43.7428 17.6514 43.7428C17.5929 43.7458 17.5346 43.7338 17.482 43.7081C17.4293 43.6823 17.3841 43.6436 17.3506 43.5956C17.6855 43.2474 18.0745 42.9556 18.5026 42.7316Z" fill="#005284"/>
<path d="M22.8734 55.704C22.6306 55.5699 22.3994 55.4157 22.1822 55.2432C22.0862 55.1088 22.1822 55.0448 22.2846 55.032C22.4231 55.0224 22.5621 55.0224 22.7006 55.032H44.0382C44.243 55.032 44.4478 54.904 44.6398 55.032C44.6948 55.2253 44.7122 55.4273 44.691 55.6272C44.6246 55.6819 44.54 55.7093 44.4542 55.704H23.5838C23.3475 55.7263 23.1097 55.7263 22.8734 55.704Z" fill="#004975"/>
<path d="M44.6399 55.0705C44.4927 55.0705 44.3455 55.1153 44.1983 55.1153H22.5727C22.4831 55.1153 22.3935 55.1153 22.3039 55.0833C22.2143 55.0513 22.1311 55.1281 22.1823 55.2433C21.9227 55.0845 21.6765 54.9047 21.4463 54.7057C21.4463 54.6097 21.5167 54.6161 21.5807 54.6161C29.0687 54.5393 36.5631 54.6161 44.0511 54.5841C44.1896 54.5628 44.3312 54.5875 44.4543 54.6545C44.4796 54.6871 44.513 54.7125 44.5512 54.7282C44.5893 54.744 44.631 54.7494 44.6719 54.7441C45.7023 54.6993 46.7263 54.7441 47.7503 54.7441H52.0511C52.8191 54.7441 53.5935 54.7441 54.3615 54.7441C54.5534 54.7535 54.7452 54.723 54.9247 54.6545C54.9516 54.6447 54.981 54.6447 55.0079 54.6545C55.0079 54.9169 54.8607 54.9425 54.6367 54.9425C51.3855 54.9425 48.1322 54.9425 44.8767 54.9425C44.7999 54.9361 44.6271 54.8657 44.6399 55.0705Z" fill="#014C79"/>
<path d="M16.2051 45.7711C16.2203 45.596 16.2657 45.425 16.3395 45.2655C16.3891 45.2062 16.4521 45.1596 16.5234 45.1296C16.5946 45.0995 16.672 45.0869 16.7491 45.0927H36.3267C36.6787 45.0927 37.0307 45.0927 37.3827 45.0927C37.6763 45.2469 37.953 45.4313 38.2083 45.6431C38.1763 45.7263 38.1123 45.7455 38.0227 45.7519C37.7539 45.7519 37.4915 45.7519 37.2227 45.7519H16.9603C16.709 45.771 16.457 45.7774 16.2051 45.7711Z" fill="#014671"/>
<path d="M22.873 55.7044C22.873 55.666 22.9306 55.6276 22.9818 55.634C23.3083 55.6798 23.6387 55.6905 23.9674 55.666H44.6906C44.7129 55.8338 44.7129 56.0038 44.6906 56.1716C44.5765 56.2515 44.4394 56.2919 44.3002 56.2868C44.1787 56.2932 44.057 56.2932 43.9354 56.2868H24.4538C24.2426 56.2868 24.0378 56.2868 23.8138 56.2868C23.486 56.1167 23.1715 55.922 22.873 55.7044Z" fill="#01456F"/>
<path d="M39.2184 46.4567C39.3963 46.5759 39.5595 46.7155 39.7048 46.8727C39.8008 46.9495 39.7432 47.0135 39.6472 47.0071C39.1096 47.0071 38.572 47.0071 38.028 47.0071C37.5892 46.9367 37.1407 46.9563 36.7096 47.0647C36.6072 47.0647 36.4792 47.0647 36.364 47.0647C34.988 47.0647 33.6184 47.0647 32.2424 47.0647C31.9864 47.0647 31.7304 47.0135 31.4744 47.0071C30.6168 47.0071 29.7592 47.0967 28.9144 47.0519C28.3735 47.0125 27.8309 47.0018 27.2888 47.0199C25.708 47.1031 24.0888 47.0199 22.54 47.0583C20.8568 47.0583 19.18 47.0583 17.5032 47.0583C17.1704 47.0583 16.8632 46.9943 16.524 47.0071C16.4152 47.0071 16.2936 47.1351 16.204 47.0071C16.1144 46.8791 16.1656 46.7383 16.1592 46.6039C16.2104 46.4951 16.2936 46.4759 16.4088 46.4759C23.724 46.4759 31.0456 46.4759 38.3608 46.4759C38.537 46.4934 38.7149 46.4782 38.8856 46.4311H38.9624C39.0392 46.3927 39.1096 46.4951 39.2184 46.4567Z" fill="#0B3D65"/>
<path d="M141.728 65.6175V67.0191C141.716 67.267 141.788 67.5116 141.934 67.7128C142.079 67.914 142.289 68.0598 142.528 68.1263C142.976 68.2701 143.455 68.2834 143.91 68.1647C144.201 68.1114 144.46 67.9492 144.635 67.7113C144.809 67.4734 144.887 67.1777 144.851 66.8847C144.851 65.9567 144.851 65.0287 144.851 64.1007C144.851 63.9279 144.896 63.8703 145.069 63.8831C145.252 63.8959 145.436 63.8959 145.619 63.8831C145.734 63.8831 145.785 63.8831 145.779 64.0367C145.779 65.0863 145.817 66.1359 145.779 67.1855C145.778 67.5839 145.642 67.9702 145.393 68.2816C145.144 68.593 144.798 68.8112 144.409 68.9007C143.644 69.1369 142.822 69.119 142.067 68.8495C141.704 68.7383 141.386 68.5148 141.158 68.2112C140.93 67.9075 140.805 67.5394 140.8 67.1599C140.8 66.1423 140.8 65.1247 140.8 64.1007C140.8 63.9535 140.838 63.9023 140.992 63.9087C141.175 63.9247 141.359 63.9247 141.542 63.9087C141.702 63.9087 141.728 63.9663 141.728 64.1071C141.728 64.5999 141.728 65.1119 141.728 65.6175Z" fill="#5D9631"/>
<path d="M41.9394 74.5004C41.901 74.5004 41.8754 74.43 41.9394 74.4108C42.1314 74.3148 42.0866 74.1484 42.0866 73.9884C42.0866 71.3175 42.0866 68.6487 42.0866 65.982C42.1045 65.8449 42.0776 65.7057 42.0098 65.5852C41.933 65.4764 42.0738 65.4188 42.0098 65.3356C42.3923 65.294 42.7774 65.2812 43.1618 65.2972C43.309 65.4764 43.245 65.7004 43.245 65.8924C43.245 67.2364 43.245 68.5804 43.245 69.918C43.245 71.2556 43.245 72.478 43.245 73.8092C43.245 73.9244 43.1746 74.0716 43.341 74.1484L43.2898 74.2636C42.9687 74.3507 42.6413 74.4128 42.3106 74.4492C42.1877 74.4722 42.0638 74.4893 41.9394 74.5004Z" fill="#639E35"/>
<path d="M70.3295 69.0807C69.5339 69.1213 68.753 68.8556 68.1471 68.3383C67.836 68.0617 67.6009 67.71 67.4643 67.3168C67.3276 66.9236 67.2939 66.5019 67.3663 66.0919C67.5263 64.6775 68.5887 64.0183 69.8111 63.8711C70.5633 63.7469 71.3355 63.854 72.0255 64.1783C72.6655 64.4983 72.6655 64.5687 72.2367 65.1063L72.0895 65.2791C72.0447 65.3367 72.0191 65.3367 71.9679 65.2791C71.7631 65.0719 71.5155 64.9119 71.2425 64.8102C70.9695 64.7085 70.6776 64.6676 70.3871 64.6903C69.9858 64.6705 69.5858 64.7496 69.2223 64.9207C68.9395 65.0701 68.7038 65.2951 68.5413 65.5705C68.3787 65.846 68.2959 66.1611 68.3018 66.4809C68.3078 66.8006 68.4024 67.1124 68.5751 67.3816C68.7478 67.6508 68.9917 67.8668 69.2799 68.0055C69.9362 68.2835 70.6745 68.2972 71.3407 68.0439C71.534 67.9832 71.7067 67.8702 71.8399 67.7175C71.9743 67.5383 72.0703 67.5639 72.1855 67.7175C72.2507 67.8222 72.3329 67.9152 72.4287 67.9927C72.6207 68.1463 72.5503 68.2615 72.4287 68.3895C71.8372 68.8691 71.0903 69.1151 70.3295 69.0807Z" fill="#5D9631"/>
<path d="M23.834 56.2798C23.834 56.2222 23.898 56.171 23.9748 56.1966C24.1423 56.2223 24.3128 56.2223 24.4804 56.1966H44.1092C44.3012 56.1966 44.4932 56.1262 44.6852 56.1454C44.6789 56.3639 44.6379 56.5799 44.5636 56.7854C44.3953 56.7983 44.2263 56.7983 44.058 56.7854H25.7476C25.4148 56.7854 25.1076 56.7854 24.7556 56.7854C24.4357 56.641 24.1276 56.472 23.834 56.2798Z" fill="#03426C"/>
<path d="M26.419 73.9308C26.3294 73.7516 26.419 73.5788 26.419 73.3996V63.7996C26.4291 63.7082 26.4159 63.6157 26.3806 63.5308C26.3166 63.39 26.3806 63.3196 26.5086 63.2876C26.8681 63.3596 27.2229 63.4537 27.571 63.5692C27.347 63.71 27.3854 63.9404 27.3854 64.158V74.0972L26.419 73.9308Z" fill="#70B03D"/>
<path d="M23.0402 62.2127C23.0064 62.2534 22.9811 62.3003 22.9657 62.3509C22.9503 62.4015 22.9452 62.4546 22.9506 62.5071C22.9506 65.8223 22.9506 69.1375 22.9506 72.4527C22.9192 72.6664 22.9323 72.8843 22.989 73.0927C22.6606 73.0192 22.3377 72.923 22.0226 72.8047V62.2511C22.0207 62.1234 22.038 61.9961 22.0738 61.8735L23.0402 62.2127Z" fill="#72B63D"/>
<path d="M17.4021 43.563C17.6063 43.6395 17.8248 43.6701 18.0421 43.6526C23.0661 43.6526 28.0965 43.6526 33.1205 43.6526C33.5685 43.6526 34.0229 43.6526 34.4709 43.6078C34.8517 43.7469 35.2199 43.9182 35.5717 44.1198C35.4501 44.267 35.2645 44.2286 35.1045 44.2734C34.9982 44.2863 34.8908 44.2863 34.7845 44.2734H17.3573C17.1973 44.2734 17.0117 44.331 16.8965 44.1518C17.0388 43.9345 17.2088 43.7365 17.4021 43.563Z" fill="#005080"/>
<path d="M16.2049 45.7719C16.2817 45.7143 16.3457 45.6631 16.4545 45.7079C16.5455 45.7242 16.6386 45.7242 16.7297 45.7079H37.4593C37.7097 45.7068 37.9598 45.6897 38.2081 45.6567C38.3908 45.7599 38.5605 45.8845 38.7137 46.0279C38.5729 46.1943 38.3681 46.1751 38.1825 46.1815C37.6321 46.1815 37.0817 46.1815 36.5313 46.1815H16.4097C16.3273 46.1979 16.2424 46.1979 16.1601 46.1815C16.1465 46.0434 16.1618 45.9039 16.2049 45.7719Z" fill="#02436D"/>
<path d="M44.4609 54.6984C44.3625 54.6548 44.254 54.6393 44.1473 54.6536H22.1505C21.9329 54.6536 21.7153 54.8008 21.5105 54.6536L21.4593 54.6984C21.3523 54.642 21.2568 54.5661 21.1777 54.4744C21.2225 54.3272 21.2801 54.2312 21.4401 54.372C21.4721 54.372 21.5105 54.372 21.5489 54.372C21.6189 54.3621 21.6895 54.3578 21.7601 54.3592H54.7585C54.8609 54.3592 55.0017 54.276 55.0529 54.4488C55.0586 54.4802 55.0576 54.5124 55.0499 54.5433C55.0421 54.5742 55.0279 54.603 55.0081 54.628H54.9569C54.7886 54.6774 54.6139 54.7011 54.4385 54.6984C53.7985 54.6984 53.0881 54.7432 52.4161 54.6984C51.7441 54.6536 50.9185 54.6536 50.1697 54.6984C49.5297 54.6984 48.8897 54.7496 48.2497 54.6984C47.2257 54.66 46.2081 54.6984 45.1905 54.66C44.9994 54.6405 44.8063 54.6668 44.6273 54.7368C44.6001 54.7536 44.5674 54.7589 44.5363 54.7517C44.5051 54.7446 44.4781 54.7254 44.4609 54.6984Z" fill="#004D7C"/>
<path d="M24.7559 56.7794C24.8199 56.6962 24.9095 56.7282 24.9927 56.7282H44.3143C44.3975 56.7282 44.4999 56.7282 44.5639 56.7922C44.5425 56.9491 44.488 57.0997 44.4039 57.2338C44.2857 57.3078 44.1435 57.3331 44.0071 57.3042C43.7812 57.2636 43.5515 57.2486 43.3223 57.2594H26.8807C26.666 57.2488 26.4509 57.266 26.2407 57.3106C26.0369 57.3433 25.8281 57.3166 25.6391 57.2338C25.333 57.1061 25.0377 56.9542 24.7559 56.7794Z" fill="#073F67"/>
<path d="M16.8954 44.1586C16.9848 44.2018 17.0851 44.2174 17.1834 44.2034H34.9434C35.1587 44.1895 35.3726 44.1596 35.5834 44.1138C35.9428 44.2631 36.2878 44.4452 36.6138 44.6578C36.5942 44.682 36.5683 44.7002 36.5389 44.7104C36.5094 44.7206 36.4778 44.7223 36.4474 44.7154C36.0762 44.6834 35.7114 44.7154 35.3466 44.7154H17.6378C17.3555 44.7143 17.0734 44.6972 16.793 44.6642C16.7226 44.6642 16.6522 44.6642 16.6074 44.5938C16.6832 44.4363 16.7801 44.2899 16.8954 44.1586Z" fill="#004D7C"/>
<path d="M95.5841 63.9089C96.2881 63.9089 96.9921 63.9089 97.7025 63.9089C97.8881 63.9089 97.9393 63.9665 97.9201 64.1393C97.9105 64.2864 97.9105 64.4339 97.9201 64.5809C97.9201 64.7217 97.8753 64.7601 97.7409 64.7601H96.2177C96.0577 64.7601 96.0129 64.8049 96.0193 64.9649C96.0193 66.2449 96.0193 67.5249 96.0193 68.7601C96.0193 68.9329 95.9809 69.0097 95.7953 68.9905C95.6273 68.9713 95.4577 68.9713 95.2897 68.9905C95.1233 68.9905 95.0913 68.9393 95.0913 68.7857C95.0913 67.5057 95.0913 66.2641 95.0913 65.0097C95.0913 64.8049 95.0465 64.7473 94.8417 64.7537C94.3489 64.7537 93.8561 64.7537 93.3697 64.7537C93.2289 64.7537 93.1713 64.7153 93.1841 64.5745C93.1969 64.4337 93.1009 64.0881 93.2225 63.9345C93.3441 63.7809 93.6193 63.9345 93.8241 63.8961C94.4193 63.9025 95.0017 63.9089 95.5841 63.9089Z" fill="#5D9631"/>
<path d="M107.309 66.4374C107.309 65.663 107.309 64.8886 107.309 64.1142C107.309 63.9606 107.309 63.8902 107.507 63.9094C107.706 63.9286 108.051 63.807 108.186 63.9542C108.32 64.1014 108.224 64.3958 108.224 64.5942C108.224 65.6694 108.224 66.7361 108.224 67.7942C108.224 67.999 108.263 68.0694 108.48 68.063C109.37 68.063 110.266 68.063 111.155 68.063C111.309 68.063 111.373 68.1014 111.36 68.2678C111.347 68.4342 111.443 68.7542 111.322 68.9078C111.2 69.0614 110.912 68.9462 110.682 68.9462H107.482C107.309 68.9462 107.258 68.9078 107.258 68.7286C107.315 67.9862 107.309 67.2118 107.309 66.4374Z" fill="#5D9631"/>
<path d="M3.3916 56.8236C3.25316 56.4914 3.1335 56.1516 3.0332 55.806C3.27 55.7676 3.3724 55.582 3.5068 55.422C3.54065 55.3797 3.5847 55.3466 3.6348 55.326C3.98659 55.1424 4.29614 54.8874 4.5436 54.5772C4.65659 54.4537 4.78576 54.3461 4.9276 54.2572C5.20727 54.0766 5.46314 53.8616 5.6892 53.6172C5.71097 53.6015 5.73462 53.5886 5.7596 53.5788C6.2815 53.2075 6.77757 52.8013 7.2444 52.3628C7.5237 52.6324 7.7886 52.9165 8.038 53.214C8.05381 53.2452 8.05798 53.281 8.04978 53.315C8.04157 53.3491 8.02151 53.379 7.9932 53.3996C7.84723 53.5454 7.68875 53.6782 7.5196 53.7964C7.40968 53.8647 7.30865 53.9464 7.2188 54.0396C7.05551 54.2236 6.85762 54.3736 6.6364 54.4812C6.55921 54.5167 6.49452 54.5747 6.4508 54.6476C6.3365 54.7986 6.18712 54.9194 6.0156 54.9996C5.7852 55.1148 5.6636 55.3516 5.446 55.4924C5.10716 55.7336 4.78434 55.9965 4.4796 56.2796C4.27956 56.4294 4.08931 56.5919 3.91 56.766C3.84672 56.8391 3.75818 56.8856 3.66208 56.8963C3.56598 56.907 3.46939 56.881 3.3916 56.8236Z" fill="#69A437"/>
<path d="M2.34863 53.3672C2.3716 53.3668 2.3941 53.3607 2.41418 53.3495C2.43426 53.3384 2.45131 53.3225 2.46383 53.3032C2.65829 53.0223 2.9089 52.7848 3.19983 52.6056C3.40463 52.4392 3.57743 52.2344 3.78863 52.0744C4.10869 51.8708 4.4087 51.6372 4.68463 51.3768C4.94063 51.0952 5.29263 50.948 5.52943 50.6664C5.55939 50.6365 5.58237 50.6003 5.59675 50.5605C5.61113 50.5207 5.61655 50.4782 5.61263 50.436L6.53423 51.5688C6.53423 51.6392 6.57263 51.7224 6.49583 51.748C6.09263 51.908 5.85583 52.2856 5.51023 52.5096C5.10763 52.8089 4.72296 53.1316 4.35823 53.476C4.15039 53.6652 3.92046 53.8285 3.67343 53.9624C3.49478 54.0677 3.33476 54.2018 3.19983 54.3592C3.08463 54.4744 2.93743 54.5384 2.81583 54.6472C2.80685 54.6569 2.79595 54.6647 2.78384 54.6699C2.77173 54.6752 2.75865 54.678 2.74543 54.678C2.73221 54.678 2.71914 54.6752 2.70702 54.6699C2.69491 54.6647 2.68402 54.6569 2.67503 54.6472C2.53509 54.2291 2.42599 53.8013 2.34863 53.3672Z" fill="#619B34"/>
<path d="M3.39258 56.824C3.4832 56.8488 3.57875 56.8495 3.6697 56.8259C3.76066 56.8023 3.84385 56.7553 3.91098 56.6896C4.12184 56.4854 4.35108 56.3012 4.59578 56.1392C4.80058 56.0368 4.90298 55.7936 5.11418 55.6784C5.50458 55.4544 5.75418 55.0384 6.15738 54.8592C6.17857 54.8497 6.19641 54.8341 6.20858 54.8144C6.64349 54.4048 7.10301 54.0222 7.58458 53.6688C7.73818 53.5344 7.94298 53.432 8.01338 53.2144C8.2392 53.4148 8.45291 53.6285 8.65338 53.8544C8.67524 53.9081 8.67959 53.9673 8.6658 54.0236C8.65201 54.0799 8.62078 54.1304 8.57658 54.168C8.5147 54.2566 8.4365 54.3326 8.34618 54.392C7.97943 54.6554 7.63868 54.9533 7.32858 55.2816C7.21978 55.384 7.07258 55.3456 6.97018 55.4608C6.59718 55.8459 6.19256 56.1992 5.76058 56.5168C5.33178 56.8624 4.89658 57.1952 4.48058 57.5664C4.32551 57.6755 4.17993 57.7975 4.04538 57.9312C4.00698 57.9824 3.94938 58.0208 3.88538 57.9696C3.70139 57.5965 3.5369 57.2141 3.39258 56.824Z" fill="#6AA839"/>
<path d="M2.6748 54.6545C2.91277 54.5277 3.12885 54.3634 3.3148 54.1681C3.59 53.9313 3.9036 53.7521 4.1916 53.5281C4.32295 53.4379 4.44513 53.335 4.5564 53.2209C4.93715 52.8604 5.33892 52.5227 5.7596 52.2097C5.93755 52.0825 6.10847 51.9458 6.2716 51.8001C6.2716 51.8001 6.3292 51.7105 6.3804 51.7297C6.5468 51.7937 6.4892 51.6401 6.534 51.5825L7.2188 52.3761C7.2188 52.4849 7.11641 52.5233 7.0524 52.5809C6.68902 52.9319 6.29964 53.255 5.8876 53.5473C5.6124 53.7329 5.4076 54.0145 5.1196 54.1873C4.83113 54.4056 4.55943 54.6452 4.3068 54.9041C4.1084 55.0641 3.9612 55.3329 3.6668 55.3585C3.5708 55.3585 3.5132 55.4801 3.462 55.5633C3.43403 55.6468 3.3758 55.7167 3.29879 55.7594C3.22179 55.802 3.1316 55.8143 3.046 55.7937C2.89399 55.4238 2.76991 55.043 2.6748 54.6545Z" fill="#659F36"/>
<path d="M9.34356 54.5132C9.55614 54.6807 9.75713 54.8625 9.94516 55.0572C9.98996 55.1532 9.94516 55.2172 9.86196 55.2748C9.63974 55.4717 9.40454 55.6534 9.15796 55.8188C8.98796 55.9477 8.82949 56.0912 8.68436 56.2476C8.17236 56.67 7.63476 57.0604 7.13556 57.5276C6.39316 58.1676 5.59956 58.7564 4.86996 59.4476C4.80596 59.5116 4.72916 59.6204 4.60756 59.5436C4.48678 59.3618 4.38796 59.1663 4.31316 58.9612C4.27476 58.9036 4.37716 58.8396 4.31316 58.7564C4.24916 58.6732 4.31316 58.6028 4.39636 58.558C4.81236 58.2636 5.18356 57.918 5.59316 57.6044C6.00276 57.2908 6.43156 56.8876 6.87316 56.5804C7.05236 56.4652 7.16756 56.2796 7.34676 56.1516C7.52596 56.0236 7.76916 55.8316 7.98676 55.6588C8.38996 55.3196 8.77396 54.9676 9.20916 54.6668C9.23476 54.5772 9.27316 54.5196 9.34356 54.5132Z" fill="#6FB03C"/>
<path d="M16.6401 44.6187C16.9025 44.6187 17.1649 44.6635 17.4273 44.6635H35.6161C35.9465 44.6442 36.2778 44.6442 36.6081 44.6635C36.7537 44.7177 36.8881 44.7979 37.0049 44.9003C37.0049 45.0411 36.8833 45.0282 36.7809 45.0282H26.9889C23.6673 45.0282 20.3457 45.0282 17.0305 45.0282C16.8449 45.0282 16.6337 45.105 16.4609 44.9578C16.4976 44.834 16.5585 44.7187 16.6401 44.6187Z" fill="#014B77"/>
<path d="M9.34364 54.5135C9.12664 54.7498 8.87398 54.9507 8.59483 55.1087C8.59483 55.1087 8.54363 55.1087 8.53723 55.1087C8.38364 55.4031 8.04443 55.4991 7.86523 55.7487C7.68603 55.9983 7.50043 55.9855 7.34683 56.1519C6.96545 56.5258 6.55451 56.8682 6.11803 57.1759C5.69563 57.4959 5.31803 57.8607 4.87643 58.1487C4.69083 58.2703 4.58203 58.4943 4.35163 58.5647C4.35163 58.5647 4.35163 58.6287 4.30683 58.6671C4.55003 58.7375 4.30683 58.8143 4.30683 58.8911C4.13659 58.5911 3.98898 58.2788 3.86523 57.9567C4.12123 57.7519 4.39003 57.5535 4.63323 57.3167C4.99971 57.0625 5.34053 56.7731 5.65083 56.4527C5.75619 56.3734 5.87563 56.3148 6.00283 56.2799C6.27163 56.1519 6.41243 55.8767 6.64283 55.7423C6.74523 55.6911 6.71323 55.5567 6.81563 55.5055C6.91803 55.4543 6.97563 55.2687 7.18043 55.3263C7.27643 55.3263 7.32123 55.1535 7.43003 55.0767C7.75643 54.8335 8.02523 54.5135 8.37083 54.2895C8.44332 54.2453 8.50431 54.1846 8.54881 54.1123C8.59331 54.04 8.62004 53.9582 8.62683 53.8735C8.88085 54.0694 9.1204 54.2832 9.34364 54.5135Z" fill="#6DAC3B"/>
<path d="M4.60742 59.4798C4.82502 59.4798 4.90822 59.2366 5.06182 59.1214C5.50342 58.795 5.90662 58.4238 6.34182 58.0974C6.50182 57.9758 6.63622 57.8222 6.79622 57.6942C7.33382 57.2718 7.85862 56.8302 8.40262 56.4142C8.63942 56.2286 8.84422 55.9918 9.04262 55.7742C9.24102 55.5566 9.52262 55.3966 9.76582 55.2174C9.83622 55.1598 9.90022 55.115 9.90662 55.019L9.95142 55.0638C10.0022 55.1199 10.0579 55.1713 10.1178 55.2174L10.4506 55.499C10.4585 55.5218 10.4611 55.546 10.4582 55.5699C10.4554 55.5938 10.4472 55.6167 10.4343 55.637C10.4214 55.6573 10.4041 55.6745 10.3836 55.6871C10.3632 55.6998 10.3401 55.7077 10.3162 55.7102C9.95142 55.755 9.75942 56.0686 9.50342 56.2734C9.33454 56.4388 9.1427 56.5789 8.93382 56.6894C8.79504 56.7586 8.67112 56.8543 8.56902 56.971C8.30339 57.2427 8.00945 57.4851 7.69222 57.6942C7.44287 57.8885 7.20958 58.1025 6.99462 58.3342C6.83635 58.4435 6.70324 58.5854 6.60422 58.7502C6.5205 58.8673 6.4017 58.9547 6.26502 58.9998L6.18182 59.0446C5.73382 59.2046 5.73382 59.1982 5.89382 59.6398L6.07942 60.1198C5.90662 60.3758 5.54822 60.7598 5.25382 60.6382C5.01446 60.2659 4.79858 59.879 4.60742 59.4798Z" fill="#72B23D"/>
<path d="M16.4605 44.9396H36.4285C36.5689 44.9015 36.7169 44.9015 36.8573 44.9396C36.9021 44.9396 36.9725 44.9396 37.0045 44.8628L37.3821 45.0932C37.2797 45.1828 37.1837 45.2532 37.0493 45.1444C37.0251 45.1334 36.999 45.1278 36.9725 45.1278C36.946 45.1278 36.9198 45.1334 36.8957 45.1444C36.7978 45.1539 36.6992 45.1539 36.6013 45.1444H17.1389C16.8684 45.1152 16.5948 45.1481 16.3389 45.2404C16.3569 45.1324 16.3984 45.0298 16.4605 44.9396Z" fill="#004B77"/>
<path d="M90.823 66.4495C90.823 67.2239 90.823 67.9983 90.823 68.7727C90.823 68.9327 90.7846 68.9903 90.6182 68.9775C90.4518 68.9647 90.0934 69.0479 89.9782 68.9327C89.863 68.8175 89.9334 68.5039 89.9334 68.2927C89.9334 66.9103 89.9334 65.5343 89.9334 64.1519C89.9334 63.9663 89.9782 63.9087 90.1638 63.9215C90.3494 63.9343 90.6694 63.8383 90.8038 63.9663C90.9382 64.0943 90.8486 64.3823 90.8486 64.6063C90.8294 65.2399 90.823 65.8287 90.823 66.4495Z" fill="#5D9731"/>
<path d="M25.6836 57.2338C26.0126 57.2636 26.3442 57.2485 26.6692 57.189H43.6804C43.9196 57.2262 44.1617 57.2412 44.4036 57.2338C44.3728 57.3292 44.315 57.4137 44.2372 57.477C43.9856 57.4642 43.7336 57.4642 43.482 57.477C38.1828 57.477 32.8857 57.477 27.5908 57.477C27.1364 57.477 26.6884 57.477 26.234 57.477L25.6836 57.2338Z" fill="#0C3C64"/>
<path d="M38.9823 46.4175C38.8654 46.483 38.7322 46.514 38.5984 46.5071H16.6399C16.4927 46.5071 16.3263 46.4047 16.1855 46.5455V46.2703C16.2128 46.2434 16.2469 46.2244 16.2841 46.2154C16.3213 46.2064 16.3602 46.2077 16.3967 46.2191C16.6329 46.2446 16.871 46.2446 17.1071 46.2191H38.7071C38.8095 46.2959 38.9632 46.2383 38.9823 46.4175Z" fill="#054069"/>
<path d="M6.30371 59.0256C6.66851 58.6544 7.02691 58.2768 7.41731 57.9248C7.64614 57.7345 7.88544 57.5571 8.13411 57.3936C8.26132 57.2867 8.38107 57.1712 8.49251 57.048C8.66444 56.8483 8.88483 56.6963 9.13251 56.6064C9.21185 56.5719 9.2804 56.5166 9.33091 56.4464C9.51651 56.2224 9.76611 56.0688 9.97091 55.864C10.0054 55.8185 10.0498 55.7815 10.1009 55.756C10.152 55.7305 10.2082 55.717 10.2653 55.7168C10.4061 55.7168 10.4573 55.64 10.5021 55.5376C10.7306 55.6956 10.9448 55.8733 11.1421 56.0688C11.1421 56.1456 10.9629 56.1712 11.0845 56.2864C11.0845 56.2864 11.0333 56.3824 10.9821 56.3824C10.7753 56.4098 10.5848 56.5096 10.4445 56.664C9.99011 57.0416 9.52291 57.4064 9.05571 57.7648C8.89293 57.8874 8.76858 58.0539 8.69731 58.2448C7.90371 58.5264 7.11011 58.7888 6.30371 59.0256Z" fill="#73B43D"/>
<path d="M8.69765 58.2449C8.65925 58.0017 8.83845 57.8737 8.98565 57.7521C9.37605 57.4321 9.78565 57.1121 10.1825 56.8113C10.2785 56.7345 10.3681 56.6513 10.4641 56.5809C10.5601 56.5105 10.8097 56.2864 11.0529 56.3376C11.0529 56.2032 10.9121 56.2864 10.9313 56.1776C10.9505 56.0688 11.0913 56.1392 11.1425 56.0688L12.4225 57.0289L10.7585 57.5729L8.69765 58.2449Z" fill="#74B83F"/>
<path d="M26.2402 57.5026C26.3426 57.3938 26.4834 57.4194 26.6114 57.4194H43.725C43.8523 57.4387 43.9818 57.4387 44.109 57.4194C44.2306 57.3746 44.1986 57.4706 44.237 57.509C44.2754 57.5474 44.1922 57.6306 44.1538 57.6818C43.9222 57.5665 43.6612 57.5241 43.405 57.5602H29.7154C29.0754 57.5602 28.4354 57.5602 27.7954 57.5602C27.6418 57.5602 27.4562 57.4578 27.341 57.6562C27.1618 57.4514 26.9186 57.8098 26.7458 57.5794C26.7458 57.5794 26.6626 57.541 26.6562 57.5794C26.6498 57.6178 26.6562 57.6562 26.7074 57.701C26.5462 57.6487 26.3898 57.5823 26.2402 57.5026Z" fill="#0C3C64"/>
<path d="M38.9828 46.4176C38.9828 46.3152 38.8548 46.3664 38.8036 46.3216C38.6723 46.2753 38.5321 46.2599 38.394 46.2768H16.7748C16.5605 46.2826 16.3461 46.2676 16.1348 46.232V46.1872C16.2312 46.1372 16.3418 46.1214 16.4484 46.1424H37.946C38.2048 46.1396 38.4624 46.1074 38.714 46.0464C38.8464 46.1197 38.9654 46.2149 39.066 46.328C39.066 46.328 39.066 46.392 39.066 46.4176H38.9828Z" fill="#054069"/>
<path d="M16.1602 46.2319H38.4834C38.5986 46.2319 38.7138 46.2319 38.8034 46.3215C31.2514 46.3215 23.7058 46.3855 16.1602 46.2767V46.2319Z" fill="#054069"/>
<path d="M5.25488 60.639C5.61328 60.6006 5.81808 60.319 6.08048 60.1206L7.04048 62.6806C7.15568 62.9814 7.26448 63.2886 7.35408 63.6022C6.56767 62.6788 5.86515 61.6872 5.25488 60.639Z" fill="#75B93F"/>
<path d="M18.195 60.2605C18.195 60.2605 18.163 60.2605 18.1566 60.2605C18.1502 60.2605 18.0926 60.5101 17.9262 60.4333C17.7598 60.3565 17.8366 60.2221 17.9262 60.1069C18.0277 60.1338 18.1203 60.1868 18.195 60.2605Z" fill="#77BC41"/>
<path d="M50.957 71.1337C50.9845 71.0679 51.0307 71.0116 51.0899 70.9718C51.149 70.932 51.2185 70.9104 51.2898 70.9097C51.2058 71.0181 51.0891 71.0966 50.957 71.1337Z" fill="#5F9833"/>
<path d="M39.04 46.4182V46.3286L39.1936 46.4566C39.0784 46.5398 39.04 46.5334 39.04 46.4182Z" fill="#054069"/>
<path d="M10.1566 55.2556C10.1162 55.251 10.0783 55.2336 10.0484 55.206C10.0185 55.1784 9.99811 55.142 9.99023 55.1021C10.0271 55.1147 10.0609 55.1349 10.0896 55.1614C10.1182 55.1878 10.141 55.2199 10.1566 55.2556Z" fill="#73B43D"/>
<path d="M146.06 51.1599H158.118H158.393V48.8559C158.303 48.5388 158.234 48.2159 158.188 47.8895C157.954 46.9685 157.503 46.1169 156.873 45.4056C156.243 44.6942 155.452 44.1437 154.566 43.7999C152.405 42.8717 149.977 42.776 147.75 43.5311C146.789 43.8248 145.909 44.338 145.181 45.0299C144.452 45.7219 143.894 46.5738 143.551 47.5183C143.034 48.9186 142.93 50.438 143.251 51.8959C143.415 52.9855 143.877 54.0087 144.585 54.8532C145.292 55.6977 146.219 56.3308 147.263 56.6831C148.452 57.0918 149.708 57.2678 150.963 57.2015C152.289 57.197 153.599 56.9066 154.803 56.3503C155.7 55.9907 156.51 55.443 157.177 54.7439C157.661 54.1585 158.026 53.4846 158.252 52.7599H155.628C155.487 52.7599 155.475 52.8559 155.436 52.9455C155.254 53.382 154.968 53.7669 154.602 54.0661C154.235 54.3653 153.801 54.5696 153.337 54.6607C151.967 54.926 150.562 54.952 149.183 54.7375C148.325 54.6424 147.525 54.2578 146.914 53.6471C146.303 53.0364 145.919 52.2359 145.823 51.3775C145.785 51.1599 145.919 51.1599 146.06 51.1599ZM146.7 47.1087C147.077 46.6494 147.542 46.2697 148.067 45.9917C148.592 45.7137 149.168 45.543 149.759 45.4895C150.866 45.3136 152 45.4283 153.049 45.8223C153.658 46.0571 154.199 46.4388 154.625 46.9335C155.05 47.4282 155.346 48.0204 155.487 48.6575C155.487 48.7791 155.532 48.8559 155.359 48.8559H145.958H145.9C146.031 48.2197 146.309 47.6233 146.713 47.1151L146.7 47.1087Z" fill="#103C63"/>
<path d="M64.7106 51.1594H76.8706C77.0497 51.1594 77.1202 51.121 77.1074 50.9354C77.1074 50.6282 77.1074 50.2954 77.1074 50.0138C77.1324 49.2636 77.0506 48.5136 76.8641 47.7866C76.6059 46.8428 76.1211 45.9764 75.4519 45.2626C74.7827 44.5487 73.9493 44.0091 73.0241 43.6906C71.1088 42.9385 69.0035 42.8174 67.0146 43.345C65.9543 43.5781 64.968 44.0692 64.1429 44.7747C63.3179 45.4803 62.6797 46.3785 62.285 47.3898C61.6999 48.8681 61.5881 50.4916 61.965 52.0362C62.1632 53.1421 62.6668 54.1705 63.4189 55.0051C64.171 55.8398 65.1416 56.4474 66.221 56.7594C67.3332 57.0998 68.496 57.2448 69.6577 57.1882C71.1215 57.1687 72.5616 56.8164 73.8689 56.1578C74.5646 55.8199 75.1867 55.3481 75.6996 54.7693C76.2125 54.1905 76.6061 53.5162 76.8577 52.785C76.9537 52.5226 76.9537 52.5226 76.6658 52.5226C75.9298 52.5226 75.1937 52.5226 74.4577 52.5226C74.3811 52.5113 74.3031 52.5277 74.2374 52.5687C74.1717 52.6098 74.1228 52.6728 74.0993 52.7466C73.9144 53.1904 73.6292 53.5855 73.2661 53.9008C72.9031 54.2161 72.472 54.4432 72.0066 54.5642C70.6676 54.9038 69.2726 54.9605 67.9106 54.7306C67.0445 54.6444 66.2346 54.2627 65.6169 53.6496C64.9991 53.0365 64.6113 52.2295 64.5186 51.3642C64.4866 51.1594 64.557 51.1594 64.7106 51.1594ZM64.6402 48.5994C64.8449 47.8611 65.2477 47.1929 65.805 46.6672C66.3623 46.1415 67.0528 45.7783 67.8018 45.617C69.1711 45.2421 70.6274 45.346 71.9298 45.9114C72.491 46.1605 72.9856 46.5383 73.3737 47.0142C73.7617 47.4901 74.0323 48.0507 74.1633 48.6506C74.2081 48.8298 74.1633 48.8554 74.0033 48.8554H64.8322C64.5634 48.849 64.557 48.849 64.6402 48.5994Z" fill="#103C63"/>
<path d="M129.344 49.5276C129.328 49.3129 129.3 49.0992 129.26 48.8876C129.107 47.7311 128.639 46.6386 127.91 45.7283C127.18 44.818 126.215 44.1245 125.12 43.7228C123.131 42.9411 120.939 42.8398 118.886 43.4348C117.974 43.6468 117.116 44.0495 116.371 44.6165C115.625 45.1834 115.008 45.9018 114.56 46.7244C113.785 48.1673 113.53 49.8325 113.836 51.4412C113.994 52.58 114.455 53.6555 115.17 54.556C115.884 55.4564 116.827 56.1489 117.9 56.5612C119.119 57.0484 120.429 57.2668 121.74 57.2012C122.536 57.1954 123.328 57.0987 124.102 56.9132C125.4 56.6097 126.585 55.9439 127.52 54.9932C128.131 54.3573 128.608 53.6044 128.922 52.7795C129.235 51.9546 129.379 51.0749 129.344 50.1932C129.35 49.9564 129.356 49.7388 129.344 49.5276ZM126.208 52.3756C125.903 52.9749 125.465 53.4962 124.926 53.899C124.388 54.3019 123.765 54.5755 123.104 54.6988C122.616 54.8062 122.118 54.8577 121.619 54.8524C120.514 54.9141 119.416 54.6468 118.464 54.0844C117.904 53.7433 117.43 53.2766 117.082 52.7213C116.733 52.1659 116.518 51.5371 116.454 50.8844C116.33 50.0225 116.42 49.1433 116.716 48.3244C116.909 47.7599 117.225 47.2453 117.641 46.818C118.057 46.3907 118.564 46.0614 119.123 45.854C120.734 45.2166 122.531 45.2373 124.128 45.9116C124.808 46.1868 125.4 46.6419 125.841 47.2282C126.282 47.8146 126.555 48.5099 126.63 49.2396C126.833 50.3031 126.685 51.4038 126.208 52.3756Z" fill="#103C63"/>
<path d="M137.401 64.5041C136.844 64.0862 136.173 63.8457 135.477 63.8137C134.781 63.7818 134.091 63.9599 133.497 64.3249C133.158 64.55 132.878 64.8527 132.679 65.2078C132.481 65.563 132.37 65.9604 132.355 66.3671C132.341 66.7738 132.423 67.178 132.597 67.5463C132.77 67.9147 133.028 68.2364 133.35 68.4849C133.939 68.9038 134.651 69.1113 135.373 69.0737C135.681 69.0854 135.99 69.0509 136.288 68.9713C136.772 68.8873 137.22 68.6591 137.573 68.3166C137.926 67.974 138.167 67.5331 138.265 67.0513C138.381 66.5886 138.361 66.1023 138.208 65.6506C138.055 65.1989 137.775 64.8008 137.401 64.5041ZM137.337 66.8081C137.293 67.1055 137.165 67.3841 136.968 67.6109C136.771 67.8378 136.512 68.0033 136.224 68.0881C135.935 68.1944 135.629 68.2443 135.321 68.2353C135.003 68.2513 134.686 68.1944 134.393 68.0691C134.1 67.9438 133.84 67.7533 133.632 67.5121C133.37 67.1493 133.256 66.7 133.314 66.2562C133.373 65.8123 133.598 65.4076 133.945 65.1249C134.357 64.8358 134.849 64.6833 135.352 64.6891C135.855 64.6948 136.344 64.8585 136.749 65.1569C136.988 65.3519 137.17 65.609 137.274 65.9002C137.378 66.1913 137.4 66.5053 137.337 66.8081Z" fill="#5D9631"/>
<path d="M129.83 68.0997L129.139 67.2677C128.922 67.0117 128.922 67.0117 129.21 66.8773C129.246 66.862 129.28 66.8426 129.312 66.8197C129.566 66.6503 129.763 66.4082 129.877 66.125C129.991 65.8418 130.017 65.5308 129.952 65.2325C129.932 64.9559 129.828 64.6919 129.655 64.4757C129.481 64.2596 129.245 64.1016 128.979 64.0229C128.746 63.9468 128.502 63.908 128.256 63.9077C127.373 63.9077 126.49 63.9077 125.613 63.9077C125.44 63.9077 125.395 63.9525 125.395 64.1253C125.395 65.5035 125.395 66.8837 125.395 68.2661C125.395 68.4901 125.318 68.8037 125.434 68.9061C125.549 69.0085 125.882 68.9061 126.112 68.9573C126.342 69.0085 126.317 68.8933 126.31 68.7461C126.31 68.3045 126.31 67.8693 126.31 67.4341C126.31 67.2485 126.342 67.1781 126.547 67.1845C126.957 67.1845 127.373 67.1845 127.789 67.1845C127.863 67.1804 127.937 67.196 128.003 67.2298C128.07 67.2635 128.126 67.3141 128.166 67.3765C128.538 67.8565 128.909 68.3301 129.286 68.8037C129.338 68.8677 129.37 68.9573 129.478 68.9509H130.56L129.83 68.0997ZM128.211 66.4357H127.36C127.072 66.4357 126.778 66.4357 126.49 66.4357C126.381 66.4357 126.342 66.4037 126.342 66.2949C126.342 65.8299 126.342 65.3626 126.342 64.8933C126.342 64.8037 126.342 64.7461 126.464 64.7461C127.104 64.7461 127.706 64.7013 128.326 64.7461C128.439 64.7429 128.551 64.7652 128.654 64.8113C128.756 64.8573 128.847 64.9259 128.92 65.012C128.993 65.0982 129.045 65.1995 129.073 65.3086C129.101 65.4177 129.104 65.5317 129.082 65.6421C129.078 65.7517 129.052 65.8594 129.005 65.9588C128.959 66.0583 128.894 66.1476 128.813 66.2214C128.732 66.2953 128.637 66.3523 128.534 66.3891C128.43 66.4259 128.321 66.4417 128.211 66.4357Z" fill="#5D9631"/>
<path d="M44.4603 54.6987C44.4603 54.6987 44.5371 54.7371 44.5435 54.6987C44.7419 54.5131 44.9787 54.5835 45.1835 54.5771C45.8235 54.5771 46.4635 54.5771 47.1035 54.5771C47.7435 54.5771 48.4667 54.6411 49.1451 54.5771C50.0859 54.5387 51.0651 54.5003 51.9675 54.5771C52.8699 54.6539 53.7019 54.5771 54.5659 54.5771C54.6934 54.5611 54.8224 54.5611 54.9499 54.5771C54.8238 54.6791 54.6637 54.7294 54.5019 54.7179H45.0235C44.8571 54.7179 44.6907 54.7179 44.5243 54.7179C44.3579 54.7179 44.4155 54.7755 44.4603 54.6987Z" fill="#004D7A"/>
<path d="M104.96 68.8246C104.205 67.391 103.424 65.9766 102.707 64.5238C102.464 64.0246 102.189 63.8134 101.651 63.8838C101.597 63.884 101.544 63.8998 101.499 63.9293C101.453 63.9588 101.417 64.0008 101.395 64.0502C100.794 65.2193 100.188 66.3862 99.5777 67.551L98.8545 68.9526C99.1937 68.9526 99.4945 68.9526 99.8017 68.9526C99.9041 68.9526 99.9297 68.8886 99.9617 68.8246C100.134 68.4726 100.314 68.127 100.48 67.775C100.5 67.7223 100.536 67.6775 100.583 67.6474C100.631 67.6174 100.687 67.6037 100.742 67.6086C101.53 67.6086 102.323 67.6086 103.11 67.6086C103.167 67.6033 103.223 67.6176 103.269 67.6491C103.316 67.6807 103.35 67.7274 103.366 67.7814C103.533 68.127 103.712 68.4598 103.872 68.8054C103.888 68.8514 103.918 68.8909 103.959 68.9176C103.999 68.9443 104.048 68.9566 104.096 68.9526C104.397 68.9526 104.691 68.9526 105.03 68.9526L104.96 68.8246ZM100.922 66.9046C101.254 66.2646 101.562 65.6246 101.926 64.927L102.925 66.9046H100.922Z" fill="#5D9631"/>
<path d="M80.6784 68.837L78.4128 64.5426C78.08 63.9026 78.08 63.9026 77.3632 63.9026C77.3065 63.8982 77.2499 63.9128 77.2024 63.9441C77.1549 63.9753 77.1191 64.0216 77.1008 64.0754C76.7104 64.8434 76.3072 65.605 75.9104 66.373L74.5664 68.9714C74.8992 68.9714 75.2064 68.9714 75.4944 68.9714C75.6032 68.9714 75.6416 68.9138 75.68 68.837C75.8464 68.485 76.0256 68.1394 76.1984 67.7874C76.2151 67.7386 76.2472 67.6966 76.2899 67.6677C76.3327 67.6388 76.3837 67.6247 76.4352 67.6274C77.2352 67.6274 78.0288 67.6274 78.8288 67.6274C78.8811 67.6191 78.9346 67.6301 78.9794 67.6583C79.0242 67.6866 79.0571 67.7302 79.072 67.781C79.2384 68.133 79.4176 68.4786 79.5904 68.8242C79.5904 68.8818 79.6352 68.9586 79.7248 68.9586H80.7488C80.7104 68.9074 80.6976 68.869 80.6784 68.837ZM76.6336 66.917C76.9664 66.277 77.2736 65.637 77.6384 64.9458C77.984 65.6242 78.2784 66.2642 78.6304 66.917H76.6336Z" fill="#5D9631"/>
<path d="M152.819 65.3239C152.814 65.0303 152.712 64.7465 152.531 64.5155C152.35 64.2845 152.098 64.119 151.814 64.0439C151.58 63.9719 151.336 63.9352 151.091 63.9351C150.272 63.9351 149.453 63.9351 148.633 63.9351C148.435 63.9351 148.409 64.0055 148.416 64.1719C148.416 64.9399 148.416 65.7015 148.416 66.4695C148.416 67.2375 148.416 68.0311 148.416 68.8183C148.416 68.9655 148.454 69.0167 148.608 69.0103C148.798 68.9975 148.988 68.9975 149.177 69.0103C149.337 69.0103 149.389 68.9719 149.389 68.8055C149.389 68.3959 149.389 67.9799 149.389 67.5639C149.389 67.3719 149.434 67.3015 149.645 67.3079C150.195 67.3079 150.746 67.3079 151.296 67.3079C151.632 67.3237 151.962 67.2227 152.232 67.0219C152.502 66.8212 152.693 66.5332 152.774 66.2071C152.841 65.9176 152.856 65.6186 152.819 65.3239ZM151.277 66.4375C150.944 66.4843 150.608 66.4993 150.272 66.4823C150.035 66.4823 149.798 66.4823 149.562 66.4823C149.325 66.4823 149.376 66.4311 149.382 66.2967C149.382 65.8359 149.382 65.3751 149.382 64.9207C149.382 64.8183 149.382 64.7351 149.523 64.7415C150.104 64.7222 150.685 64.735 151.264 64.7799C151.359 64.7847 151.453 64.8086 151.539 64.8499C151.626 64.8913 151.703 64.9494 151.767 65.0208C151.83 65.0922 151.879 65.1756 151.911 65.2661C151.942 65.3566 151.955 65.4523 151.949 65.5479C151.965 65.6507 151.96 65.7557 151.935 65.8566C151.91 65.9576 151.864 66.0524 151.802 66.1354C151.739 66.2185 151.66 66.288 151.57 66.3399C151.48 66.3918 151.38 66.425 151.277 66.4375Z" fill="#5D9631"/>
<path d="M87.4046 65.2389C87.397 64.9531 87.2939 64.6781 87.1118 64.4578C86.9296 64.2374 86.679 64.0843 86.3998 64.0229C86.1665 63.9458 85.9223 63.9069 85.6766 63.9077C84.8574 63.9077 84.0382 63.9077 83.219 63.9077C83.059 63.9077 83.0078 63.9461 83.0142 64.1125C83.0142 64.8869 83.0142 65.6613 83.0142 66.4357C83.0142 67.2101 83.0142 68.0037 83.0142 68.7845C83.0142 68.9253 83.0142 68.9893 83.1998 68.9829C83.4128 68.9659 83.6268 68.9659 83.8398 68.9829C83.9742 68.9829 84.0062 68.9317 84.0062 68.8101C84.0062 68.3685 84.0062 67.9333 84.0062 67.5301C84.0062 67.3509 84.0574 67.3125 84.2238 67.3125C84.787 67.3125 85.3438 67.3125 85.907 67.3125C86.2355 67.3229 86.5581 67.2226 86.8227 67.0276C87.0874 66.8326 87.2788 66.5542 87.3662 66.2373C87.441 65.9098 87.454 65.5712 87.4046 65.2389ZM85.8814 66.4165C85.2942 66.4698 84.7041 66.4848 84.115 66.4613C83.9998 66.4613 83.9934 66.4037 83.9934 66.3141C83.9934 65.8341 83.9934 65.3541 83.9934 64.8677C83.9934 64.7525 84.0382 64.7205 84.1406 64.7269H84.9534C85.256 64.7086 85.5595 64.7086 85.8622 64.7269C86.0472 64.74 86.2201 64.8237 86.3452 64.9607C86.4703 65.0977 86.5379 65.2775 86.5342 65.4629C86.547 66.0581 86.3358 66.3589 85.8814 66.4357V66.4165Z" fill="#5D9631"/>
<path d="M5.81737 59.921C5.87654 59.9497 5.92237 60.0001 5.94537 60.0618C5.94537 60.0618 5.88777 60.1066 5.88137 60.1002C5.83277 60.0634 5.79152 60.0178 5.75977 59.9658C5.75977 59.9658 5.75977 59.9146 5.81737 59.921Z" fill="#75B93F"/>
</svg>
