<svg width="160" height="116" viewBox="0 0 160 116" fill="none" xmlns="http://www.w3.org/2000/svg">
<path d="M69.6186 64.1172C68.0122 64.1172 67.8714 61.9348 68.0442 60.066C68.3898 56.226 70.6042 51.746 72.9274 51.746C74.3226 51.746 75.289 53.4035 75.737 54.3379C74.8794 57.8003 71.897 64.1172 69.6186 64.1172ZM54.7322 54.6004C55.2826 48.4756 58.4122 40.898 60.4922 40.898C61.5674 40.898 61.4714 42.3956 61.3498 43.746C60.9658 48.002 57.721 53.5315 54.5594 57.6787C54.5591 56.6502 54.6168 55.6224 54.7322 54.6004ZM129.414 49.1987C127.91 49.1987 127.327 49.7172 127.065 50.2356C126.33 52.7083 125.456 55.1378 124.447 57.5124C123.238 60.2068 121.177 64.2708 119.564 64.2708C118.284 64.2708 117.996 62.4852 118.137 60.93C118.227 58.7476 119.033 55.5348 119.571 53.1476L120.044 50.9652C120.319 49.4804 119.487 48.8404 117.99 48.8404C116.806 48.8404 115.987 49.3588 115.833 49.8772C115.313 52.2156 114.591 54.5046 113.676 56.7188C112.919 58.6098 111.76 60.3133 110.278 61.7108C110.63 59.522 109.83 56.93 108.934 54.6708C108.466 53.3027 107.868 51.9825 107.148 50.7283C106.553 49.6531 105.715 48.6164 104.249 48.6164C103.793 48.5984 103.338 48.6712 102.911 48.8305C102.484 48.9898 102.092 49.2325 101.759 49.5444C100.383 53.092 98.5776 56.4578 96.3834 59.5668C96.3834 57.698 95.353 54.8947 94.3289 52.9683C93.9258 52.2132 93.049 50.7348 92.5753 50.0308C91.8905 49.026 91.1546 48.5012 90.0794 48.5012C89.6386 48.4547 89.1931 48.5154 88.7808 48.6781C88.3685 48.8408 88.0016 49.1006 87.7114 49.4356C86.5361 52.6607 85.1287 55.7963 83.5002 58.8179C82.2906 61.0067 81.1066 63.2979 80.1594 63.2979C79.2122 63.2979 79.2634 62.0372 79.3594 61.0004C79.5386 59.0292 81.369 53.1092 81.8298 51.5476C82.1882 50.0948 80.7802 49.5828 79.4682 49.8964L77.9322 50.3124C76.5612 48.9661 74.7328 48.1867 72.8122 48.13C68.2234 48.13 63.6858 53.634 63.161 59.8995C61.721 61.9668 59.6986 64.2707 57.721 64.0083C57.1937 63.9226 56.7055 63.6771 56.3221 63.3052C55.9388 62.9333 55.6787 62.4527 55.577 61.9283C59.8906 56.9491 64.537 49.2691 65.0106 43.6692C65.3754 39.5988 63.8394 37.1284 60.7226 37.1284C54.9626 37.1284 50.713 45.3268 49.9642 53.6339C49.6443 56.2383 49.7481 58.8772 50.2714 61.4483C47.769 64.0787 44.345 66.1908 40.9146 66.1908C37.4842 66.1908 33.9194 62.7796 34.329 56.0212C34.7706 49.058 39.449 39.9316 43.7242 39.9316C45.1834 39.9316 45.8042 41.4228 45.6442 42.7412C45.5035 43.8331 45.0601 44.864 44.3642 45.7172C44.3116 46.0156 44.3263 46.322 44.4072 46.614C44.4882 46.906 44.6333 47.1762 44.832 47.405C45.0307 47.6337 45.278 47.8152 45.5558 47.9362C45.8336 48.0572 46.1349 48.1147 46.4378 48.1044C48.5882 48.1044 49.8426 45.7044 50.0922 42.8052C50.393 39.2084 48.4474 36.0916 44.2362 36.0916C35.4298 36.0916 29.369 47.1188 28.8762 56.0212C28.4218 63.9252 31.609 70.5491 39.9098 70.5491C43.9802 70.5491 48.0506 68.0851 51.6794 64.8979C52.9146 66.6643 54.3034 68.0595 57.081 68.0595C59.4618 68.0595 61.9194 66.1395 63.6154 64.0979C64.4218 66.5427 66.2202 68.0595 68.4282 68.0595C71.1226 68.0595 73.3626 66.2163 75.1418 63.2787C75.6794 65.3524 76.665 67.3235 78.9818 67.3235C81.6634 67.3235 83.1354 65.2884 84.9274 62.6068C86.3418 60.4756 87.4106 57.9028 89.1898 54.3508L89.8298 55.3108C91.2314 57.8068 92.3898 60.13 92.1402 61.8964C92.1005 62.6033 91.7828 63.2659 91.2564 63.7395C90.7301 64.2131 90.0378 64.4593 89.3306 64.4244C88.089 64.4244 87.577 63.6883 86.6682 63.0739C85.721 63.2083 85.145 64.354 85.0298 65.2564C84.7802 67.2276 86.3418 68.2644 89.1258 68.2644C92.8762 68.2644 94.9754 66.4915 96.7738 64.2131C98.7386 61.7235 101.836 56.9555 103.11 53.9731C104.595 56.6739 106.079 59.8484 105.83 61.8195C105.631 63.3748 104.639 64.6228 103.033 64.6228C101.849 64.6228 100.851 63.5604 100.044 63.1444C99.513 63.1444 98.6553 64.3091 98.5081 65.4483C98.2777 67.3171 99.8457 68.4628 103.167 68.4628C107.27 68.4628 111.02 65.6148 113.791 62.2228C114.041 65.4228 115.244 68.066 118.547 68.066C120.793 68.066 122.988 66.4404 125.011 62.946C125.011 62.946 124.051 67.1315 123.763 68.3348C122.982 71.6371 122.182 74.6964 121.983 76.8852C121.817 78.754 122.995 79.4452 124.281 79.4452C124.775 79.4578 125.262 79.3274 125.683 79.0697C126.104 78.8119 126.442 78.4378 126.655 77.9924C127.338 71.5696 128.342 65.185 129.663 58.8628C130.022 57.0196 131.129 51.49 131.129 51.49C131.359 50.1396 130.899 49.1028 129.401 49.1028" fill="#3E4451"/>
</svg>
