<svg width="160" height="116" viewBox="0 0 160 116" fill="none" xmlns="http://www.w3.org/2000/svg">
<path d="M134.4 46.92C134.401 46.6111 134.342 46.3049 134.224 46.0192C134.107 45.7334 133.934 45.4738 133.715 45.2554C133.497 45.0369 133.237 44.864 132.952 44.7466C132.666 44.6291 132.36 44.5695 132.051 44.5712C131.425 44.5695 130.824 44.8156 130.379 45.2557C129.934 45.6959 129.681 46.2942 129.676 46.92V51.8736C129.676 52.1838 129.738 52.4908 129.856 52.7774C129.975 53.0639 130.149 53.3242 130.368 53.5435C130.587 53.7628 130.848 53.9368 131.134 54.0555C131.421 54.1741 131.728 54.2352 132.038 54.2352C132.348 54.2352 132.655 54.1741 132.942 54.0555C133.228 53.9368 133.489 53.7628 133.708 53.5435C133.927 53.3242 134.101 53.0639 134.22 52.7774C134.339 52.4908 134.4 52.1838 134.4 51.8736V46.92ZM121.401 40.392C121.37 39.7878 121.108 39.2187 120.669 38.8021C120.23 38.3856 119.648 38.1533 119.043 38.1533C118.438 38.1533 117.856 38.3856 117.417 38.8021C116.978 39.2187 116.716 39.7878 116.684 40.392V51.8608C116.668 52.1809 116.716 52.501 116.827 52.8016C116.938 53.1023 117.109 53.3772 117.33 53.6096C117.551 53.842 117.816 54.0271 118.111 54.1536C118.405 54.2801 118.722 54.3453 119.043 54.3453C119.363 54.3453 119.68 54.2801 119.975 54.1536C120.269 54.0271 120.535 53.842 120.756 53.6096C120.976 53.3772 121.147 53.1023 121.258 52.8016C121.369 52.501 121.418 52.1809 121.401 51.8608V40.392ZM108.377 31.496C108.394 31.1777 108.346 30.8593 108.235 30.5602C108.125 30.2612 107.955 29.9877 107.735 29.7565C107.516 29.5253 107.252 29.3412 106.959 29.2154C106.666 29.0895 106.35 29.0247 106.032 29.0247C105.713 29.0247 105.397 29.0895 105.105 29.2154C104.812 29.3412 104.547 29.5253 104.328 29.7565C104.109 29.9877 103.938 30.2612 103.828 30.5602C103.718 30.8593 103.669 31.1777 103.686 31.496V56.584C103.669 56.9024 103.718 57.2208 103.828 57.5198C103.938 57.8189 104.109 58.0923 104.328 58.3235C104.547 58.5547 104.812 58.7389 105.105 58.8647C105.397 58.9905 105.713 59.0554 106.032 59.0554C106.35 59.0554 106.666 58.9905 106.959 58.8647C107.252 58.7389 107.516 58.5547 107.735 58.3235C107.955 58.0923 108.125 57.8189 108.235 57.5198C108.346 57.2208 108.394 56.9024 108.377 56.584V31.496ZM95.3596 40.3792C95.3596 39.7563 95.1122 39.1589 94.6717 38.7184C94.2312 38.2779 93.6338 38.0304 93.0108 38.0304C92.3879 38.0304 91.7905 38.2779 91.35 38.7184C90.9095 39.1589 90.662 39.7563 90.662 40.3792V51.8608C90.662 52.4838 90.9095 53.0812 91.35 53.5217C91.7905 53.9622 92.3879 54.2096 93.0108 54.2096C93.6338 54.2096 94.2312 53.9622 94.6717 53.5217C95.1122 53.0812 95.3596 52.4838 95.3596 51.8608V40.3792ZM82.3612 46.92C82.3612 46.2937 82.1124 45.693 81.6695 45.2501C81.2266 44.8072 80.626 44.5584 79.9996 44.5584C79.3733 44.5584 78.7726 44.8072 78.3297 45.2501C77.8868 45.693 77.638 46.2937 77.638 46.92V51.8736C77.638 52.5 77.8868 53.1006 78.3297 53.5435C78.7726 53.9864 79.3733 54.2352 79.9996 54.2352C80.626 54.2352 81.2266 53.9864 81.6695 53.5435C82.1124 53.1006 82.3612 52.5 82.3612 51.8736V46.92ZM69.3628 40.392C69.3628 39.7623 69.1127 39.1584 68.6674 38.7131C68.2221 38.2678 67.6181 38.0176 66.9884 38.0176C66.3587 38.0176 65.7547 38.2678 65.3095 38.7131C64.8642 39.1584 64.614 39.7623 64.614 40.392V51.8608C64.614 52.4906 64.8642 53.0945 65.3095 53.5398C65.7547 53.9851 66.3587 54.2352 66.9884 54.2352C67.6181 54.2352 68.2221 53.9851 68.6674 53.5398C69.1127 53.0945 69.3628 52.4906 69.3628 51.8608V40.392ZM56.3708 31.496C56.3708 30.8663 56.1207 30.2624 55.6754 29.8171C55.2301 29.3718 54.6261 29.1216 53.9964 29.1216C53.3667 29.1216 52.7627 29.3718 52.3175 29.8171C51.8722 30.2624 51.622 30.8663 51.622 31.496V56.584C51.622 57.2138 51.8722 57.8177 52.3175 58.263C52.7627 58.7083 53.3667 58.9584 53.9964 58.9584C54.6261 58.9584 55.2301 58.7083 55.6754 58.263C56.1207 57.8177 56.3708 57.2138 56.3708 56.584V31.496ZM43.3468 40.3792C43.3468 39.7495 43.0967 39.1456 42.6514 38.7003C42.2061 38.255 41.6021 38.0048 40.9724 38.0048C40.3427 38.0048 39.7387 38.255 39.2935 38.7003C38.8482 39.1456 38.598 39.7495 38.598 40.3792V51.8608C38.598 52.4906 38.8482 53.0945 39.2935 53.5398C39.7387 53.9851 40.3427 54.2352 40.9724 54.2352C41.6021 54.2352 42.2061 53.9851 42.6514 53.5398C43.0967 53.0945 43.3468 52.4906 43.3468 51.8608V40.3792ZM30.3484 46.92C30.3484 46.2903 30.0983 45.6864 29.653 45.2411C29.2077 44.7958 28.6037 44.5456 27.974 44.5456C27.3443 44.5456 26.7403 44.7958 26.2951 45.2411C25.8498 45.6864 25.5996 46.2903 25.5996 46.92V51.8736C25.5996 52.5034 25.8498 53.1073 26.2951 53.5526C26.7403 53.9979 27.3443 54.248 27.974 54.248C28.6037 54.248 29.2077 53.9979 29.653 53.5526C30.0983 53.1073 30.3484 52.5034 30.3484 51.8736V46.92ZM79.238 67.4704C77.7201 67.1022 76.1661 66.9026 74.6044 66.8752C70.1948 66.8752 67.5644 69.2496 67.5644 72.7696C67.5644 75.8864 69.766 77.4608 72.4284 78.2928C72.7164 78.376 73.1452 78.5232 73.4588 78.6064C74.63 78.9776 75.5772 79.5216 75.5772 80.5264C75.5772 81.5312 74.4892 82.3056 72.1148 82.3056C70.596 82.2698 69.089 82.0287 67.6348 81.5888V85.9408C69.3219 86.2699 71.036 86.4413 72.7548 86.4528C76.4156 86.4528 80.5692 84.8528 80.5692 80.0976C80.5692 77.8128 79.1676 75.6624 76.0892 74.6896L74.7708 74.2608C73.9964 74.0048 72.5948 73.6208 72.5948 72.456C72.5948 71.5408 73.6252 70.9136 75.5452 70.9136C76.8028 70.9561 78.051 71.1473 79.2636 71.4832V67.5024L79.238 67.4704ZM119.558 76.6608C119.548 77.6333 119.25 78.5809 118.703 79.3846C118.155 80.1882 117.382 80.8119 116.481 81.177C115.579 81.5422 114.59 81.6325 113.638 81.4366C112.685 81.2407 111.812 80.7674 111.128 80.0762C110.444 79.385 109.979 78.5069 109.793 77.5524C109.607 76.5978 109.708 75.6096 110.082 74.7121C110.457 73.8146 111.088 73.048 111.898 72.5087C112.707 71.9695 113.658 71.6817 114.63 71.6816C115.283 71.6773 115.93 71.8035 116.533 72.0528C117.136 72.3021 117.683 72.6695 118.143 73.1335C118.602 73.5974 118.963 74.1484 119.207 74.7542C119.45 75.36 119.569 76.0082 119.558 76.6608V76.6608ZM114.63 66.9008C112.702 66.9399 110.829 67.5472 109.245 68.6467C107.661 69.7461 106.437 71.2887 105.726 73.081C105.015 74.8734 104.849 76.8357 105.249 78.7219C105.649 80.6081 106.597 82.3342 107.974 83.6839C109.351 85.0336 111.096 85.9466 112.99 86.3087C114.884 86.6707 116.842 86.4655 118.62 85.7189C120.398 84.9723 121.916 83.7175 122.983 82.1118C124.05 80.5061 124.62 78.621 124.62 76.6928C124.633 75.3866 124.382 74.0912 123.882 72.8844C123.382 71.6776 122.643 70.5842 121.71 69.6698C120.777 68.7555 119.669 68.0389 118.452 67.563C117.236 67.0872 115.936 66.862 114.63 66.9008V66.9008ZM49.83 67.5408C48.4233 67.0898 46.9553 66.8588 45.478 66.856C39.6668 66.856 35.4044 71.0032 35.4044 76.6416C35.4044 82.7408 40.0956 86.4336 45.478 86.4336C46.9549 86.4196 48.4215 86.1867 49.83 85.7424V80.68C48.5979 81.3396 47.2212 81.6827 45.8236 81.6784C42.6236 81.6784 40.582 79.4448 40.582 76.6416C40.582 73.8384 42.7324 71.6048 45.8236 71.6048C47.2215 71.6042 48.5979 71.9493 49.83 72.6096V67.5408ZM99.6028 67.5408C98.1983 67.0895 96.7324 66.8585 95.2572 66.856C89.446 66.856 85.1772 71.0032 85.1772 76.6416C85.1772 82.7408 89.9004 86.4336 95.2572 86.4336C96.7321 86.4205 98.1967 86.1876 99.6028 85.7424V80.68C98.3716 81.3419 96.9943 81.6851 95.5964 81.6784C92.3964 81.6784 90.3868 79.4448 90.3868 76.6416C90.3868 73.8384 92.5372 71.6048 95.5964 71.6048C96.9946 71.6018 98.3716 71.9471 99.6028 72.6096V67.5408ZM61.1644 86.1008H56.3708V67.2336H61.1516L61.1644 86.1008Z" fill="#049FD9"/>
</svg>
