<svg width="160" height="116" viewBox="0 0 160 116" fill="none" xmlns="http://www.w3.org/2000/svg">
<path d="M97.9514 59.6388C98.3848 59.3209 98.7205 58.8881 98.9207 58.3893C99.1209 57.8906 99.1776 57.3457 99.0842 56.8164C98.9571 56.4875 98.7342 56.2043 98.4442 56.0036C97.8529 55.6505 97.179 55.4593 96.4903 55.4492C95.8017 55.439 95.1225 55.6104 94.521 55.946C93.9536 56.244 93.4858 56.7016 93.1754 57.2622C92.8649 57.8229 92.7253 58.4622 92.7738 59.1012C92.8412 59.3949 92.9824 59.6665 93.1839 59.8905C93.3855 60.1145 93.6408 60.2834 93.9258 60.3812C94.6076 60.6286 95.3431 60.6897 96.0563 60.5581C96.7696 60.4264 97.4348 60.1069 97.9834 59.6324L100.281 61.9172C98.9216 62.6254 97.4365 63.0602 95.9098 63.1972C93.8457 63.363 91.7775 62.932 89.9514 61.9556C89.293 61.585 88.7628 61.0229 88.4313 60.3439C88.0998 59.6649 87.9827 58.9012 88.0954 58.154C88.601 55.4084 91.5194 53.578 94.0026 53.034C97.2026 52.458 100.915 52.714 103.046 55.4212C103.34 55.8961 103.516 56.4343 103.559 56.9909C103.602 57.5476 103.512 58.1066 103.295 58.6212C102.727 60.0606 101.656 61.2452 100.281 61.9556L97.9834 59.6708" fill="black"/>
<path d="M133.484 63.1203L135.82 52.9507H139.878L138.291 60.0483C138.291 60.1123 138.348 60.1891 138.412 60.1955H144.32L143.648 63.1203H133.484Z" fill="black"/>
<path d="M75.9294 56.2018L76.7998 52.9634H89.3822L88.5566 56.1634H84.3966L84.3198 56.2594L82.3998 63.165H78.3422L80.1726 56.4066C80.1726 56.3106 80.1278 56.2274 80.0126 56.2146H75.9102" fill="black"/>
<path d="M57.6836 63.1516H53.6324L55.0404 57.8012C55.0404 57.8012 55.002 57.8012 54.97 57.8012L50.6564 63.1708H48.4292L47.1492 57.6924C47.139 57.6697 47.1208 57.6514 47.098 57.6412C47.098 57.6412 47.0212 57.6412 46.9892 57.7692C46.9572 57.8972 45.5236 63.1708 45.5236 63.1708H42.1572L44.9668 52.982H50.3748L51.4372 57.3596L54.9508 52.9756H60.4676L57.6836 63.1516Z" fill="black"/>
<path d="M127.89 59.6388C128.326 59.3222 128.663 58.8898 128.864 58.3908C129.066 57.8919 129.123 57.3464 129.03 56.8164C128.896 56.4819 128.661 56.1976 128.358 56.0036C127.765 55.6506 127.09 55.4594 126.401 55.4493C125.711 55.4392 125.031 55.6105 124.428 55.946C123.864 56.2475 123.399 56.7059 123.09 57.2659C122.782 57.8258 122.641 58.4633 122.687 59.1012C122.756 59.3944 122.897 59.6655 123.099 59.8893C123.3 60.1131 123.555 60.2823 123.839 60.3812C124.52 60.6288 125.255 60.6899 125.967 60.5582C126.679 60.4266 127.343 60.1069 127.89 59.6324L130.201 61.9172C128.837 62.6264 127.348 63.0612 125.817 63.1972C123.755 63.3624 121.689 62.9315 119.865 61.9556C119.207 61.5843 118.677 61.0221 118.346 60.3433C118.015 59.6645 117.897 58.9011 118.009 58.154C118.514 55.4084 121.439 53.578 123.916 53.034C127.116 52.458 130.822 52.714 132.953 55.4212C133.248 55.8955 133.425 56.4335 133.469 56.9902C133.514 57.5468 133.425 58.1061 133.209 58.6212C132.647 60.0627 131.577 61.2487 130.201 61.9556L127.89 59.6708" fill="black"/>
<path d="M70.1441 59.6388C70.5775 59.3209 70.9133 58.8881 71.1134 58.3893C71.3136 57.8906 71.3703 57.3457 71.2769 56.8164C71.1413 56.4832 70.9067 56.1995 70.6049 56.0036C70.0124 55.6506 69.3375 55.4594 68.6478 55.4493C67.9582 55.4392 67.2779 55.6105 66.6753 55.946C66.1102 56.2462 65.6447 56.7044 65.3355 57.2647C65.0264 57.8249 64.8871 58.4631 64.9345 59.1012C65.0019 59.3949 65.1431 59.6665 65.3447 59.8905C65.5462 60.1145 65.8015 60.2834 66.0865 60.3812C66.7683 60.6286 67.5038 60.6897 68.217 60.5581C68.9303 60.4264 69.5955 60.1069 70.1441 59.6324L72.4481 61.9172C71.0848 62.6271 69.5952 63.062 68.0641 63.1972C66.0022 63.361 63.9366 62.9301 62.1121 61.9556C61.4542 61.5848 60.9249 61.0224 60.5945 60.3433C60.2641 59.6642 60.1483 58.9006 60.2625 58.154C60.7617 55.4084 63.6865 53.578 66.1633 53.034C69.3953 52.458 73.0689 52.714 75.2001 55.4212C75.497 55.8946 75.6757 56.4324 75.7214 56.9892C75.7671 57.5461 75.6783 58.1058 75.4625 58.6212C74.8939 60.0606 73.823 61.2452 72.4481 61.9556L70.1441 59.6708" fill="black"/>
<path d="M110.784 55.5997H109.011L108.602 57.3597H112.64C112.995 57.3225 113.324 57.159 113.568 56.8989C113.691 56.7839 113.778 56.6354 113.818 56.4716C113.858 56.3079 113.849 56.136 113.792 55.9773C113.74 55.8768 113.668 55.7883 113.58 55.7177C113.492 55.6471 113.389 55.596 113.28 55.5677H110.797L110.682 52.9309H115.354C116.161 52.932 116.937 53.2463 117.517 53.8077C117.817 54.1394 118.015 54.551 118.087 54.9929C118.158 55.4347 118.1 55.8877 117.92 56.2973C117.664 56.8321 117.3 57.3086 116.852 57.6972C116.404 58.0858 115.881 58.3783 115.315 58.5565C115.277 58.6013 115.181 58.6525 115.258 58.7037C115.763 58.9213 116.371 59.2733 116.486 59.8621C116.672 60.6493 116.39 61.4493 116.339 62.1981C116.358 62.3819 116.416 62.5594 116.51 62.7185C116.604 62.8776 116.731 63.0145 116.883 63.1197H112.32C112.216 63.093 112.118 63.0444 112.035 62.9771C111.951 62.9098 111.882 62.8253 111.834 62.7293C111.769 62.569 111.74 62.3963 111.75 62.2237L111.885 60.8861C111.892 60.7825 111.877 60.6785 111.842 60.581C111.806 60.4834 111.75 60.3945 111.677 60.3202C111.605 60.2458 111.517 60.1877 111.421 60.1495C111.324 60.1114 111.221 60.0942 111.117 60.0989H107.917H107.821L107.123 63.0877H103.283C104.083 59.7085 104.96 56.2589 105.798 52.8989H110.662L110.778 55.5357" fill="black"/>
<path d="M152.275 58.7361H150.777L152.493 56.1761C152.493 56.1761 152.563 56.1761 152.569 56.1761L153.165 58.6913H152.275L152.704 61.2897H153.734C153.734 61.2897 153.792 61.2897 153.798 61.3601L154.214 63.1073H158.4L156.064 52.9185H151.001L144.441 63.1521H147.84L149.056 61.3345H152.723L152.294 58.7361" fill="black"/>
<path d="M16.7041 42.896C13.717 42.8973 10.7975 43.7842 8.31446 45.4446C5.83147 47.105 3.89654 49.4644 2.75434 52.2244C1.61213 54.9844 1.31394 58.0211 1.89745 60.9506C2.48097 63.88 3.91999 66.5707 6.03257 68.6824C8.14516 70.7941 10.8364 72.232 13.7662 72.8143C16.6959 73.3965 19.7325 73.097 22.492 71.9537C25.2515 70.8103 27.61 68.8744 29.2694 66.3907C30.9288 63.907 31.8144 60.987 31.8144 58C31.8144 56.016 31.4236 54.0514 30.6641 52.2185C29.9047 50.3856 28.7915 48.7202 27.3883 47.3176C25.9851 45.915 24.3193 44.8026 22.4861 44.0439C20.6528 43.2852 18.6881 42.8952 16.7041 42.896ZM26.1057 65.4304C26.1057 65.4304 25.7793 64.4448 25.5105 63.5104C24.1857 59.1968 22.5025 57.5072 20.0065 58.4288C19.1736 58.8495 18.4768 59.4974 17.9969 60.2976C17.4365 61.1833 17.0055 62.1445 16.7169 63.152C16.4257 62.1454 15.9948 61.1846 15.4369 60.2976C14.9563 59.4956 14.2569 58.8473 13.4209 58.4288C10.9313 57.5072 9.24165 59.1968 7.92325 63.5104C7.65445 64.4128 7.32165 65.4304 7.32165 65.4304H6.40005L12.1601 46.1216L16.7041 61.2L21.2417 46.1536L27.0016 65.4624L26.1057 65.4304Z" fill="black"/>
</svg>
