<svg width="160" height="116" viewBox="0 0 160 116" fill="none" xmlns="http://www.w3.org/2000/svg">
<path d="M68.8324 69.4859H63.6484V42.3435H68.8324V52.3467C69.4327 51.7223 70.1534 51.2262 70.9509 50.8884C71.7485 50.5507 72.6063 50.3784 73.4724 50.3819C78.9188 50.3819 81.9524 54.8619 81.9524 60.1995C81.9524 65.5371 78.9188 69.9595 73.4724 69.9595C72.6067 69.9608 71.7495 69.7875 70.9522 69.4499C70.155 69.1123 69.434 68.6174 68.8324 67.9947V69.4859ZM68.8324 63.2331C69.1431 63.889 69.6374 64.4407 70.2554 64.8213C70.8734 65.2019 71.5885 65.3949 72.314 65.3771C75.0788 65.3771 76.794 63.1499 76.794 60.1099C76.794 57.0699 75.098 54.8427 72.314 54.8427C71.5907 54.8359 70.8801 55.0335 70.2642 55.4128C69.6482 55.7921 69.1519 56.3377 68.8324 56.9867V63.2331Z" fill="#414042"/>
<path d="M104.717 50.3821C108.557 50.3821 110.88 53.0573 110.88 57.2557V69.4861H105.703V58.3245C105.703 56.3597 104.807 55.0221 103.021 55.0221C102.331 54.9985 101.656 55.2324 101.129 55.6783C100.601 56.1242 100.259 56.7503 100.167 57.4349V69.4861H94.9892V58.3245C94.9892 56.3597 94.1828 55.0221 92.4292 55.0221C91.732 55.0094 91.0529 55.2451 90.5136 55.6872C89.9742 56.1292 89.6097 56.7487 89.4852 57.4349V69.4861H84.3076V50.8301H89.306V52.3469C90.1956 51.1821 91.9812 50.3821 94.0356 50.3821C95.0003 50.3553 95.9574 50.5598 96.827 50.9784C97.6966 51.3971 98.4533 52.0177 99.034 52.7885C99.7549 52.0053 100.635 51.3853 101.615 50.9703C102.595 50.5552 103.653 50.3547 104.717 50.3821Z" fill="#414042"/>
<path d="M121.863 50.3816C126.593 50.3816 129.543 53.1464 130.075 57.076H124.955C124.686 55.6488 123.527 54.7528 121.831 54.7528C119.418 54.7528 117.991 56.8968 117.991 60.1096C117.991 63.3224 119.418 65.3768 121.831 65.3768C122.544 65.4335 123.253 65.23 123.827 64.804C124.402 64.3781 124.802 63.7585 124.955 63.06H130.075C129.537 67.0728 126.593 69.7544 121.863 69.7544C116.59 69.7544 112.846 65.7352 112.846 60.02C112.846 54.3048 116.59 50.3816 121.863 50.3816Z" fill="#414042"/>
<path d="M31.1554 77.5181C29.4594 77.5181 27.6738 76.1805 27.6738 73.5949V67.5213C27.7115 66.2416 28.0685 64.9917 28.7123 63.8851C29.3561 62.7785 30.2664 61.8505 31.3602 61.1853L39.8402 56.1805L31.3602 51.1821C30.2993 50.4684 29.4171 49.5197 28.7822 48.4098C28.1473 47.2998 27.7768 46.0585 27.6994 44.7821V38.5997C27.6994 36.0397 29.485 34.6765 31.2706 34.6765C32.0598 34.6809 32.8325 34.9023 33.5042 35.3165L52.5826 46.6317C53.1997 46.9351 53.7194 47.4053 54.0828 47.989C54.4462 48.5727 54.6389 49.2465 54.6389 49.9341C54.6389 50.6217 54.4462 51.2955 54.0828 51.8792C53.7194 52.4629 53.1997 52.9331 52.5826 53.2365L48.0002 55.9181L52.557 58.5933C53.1669 58.9146 53.6842 59.3869 54.0595 59.965C54.4349 60.5432 54.6558 61.2079 54.701 61.8957C54.6792 62.5894 54.4678 63.264 54.0899 63.8461C53.7119 64.4282 53.1818 64.8958 52.557 65.1981L33.4786 76.8973C32.774 77.3091 31.9715 77.5236 31.1554 77.5181ZM43.9234 58.5933L33.4786 64.7565C33.0285 65.076 32.6518 65.488 32.3737 65.9648C32.0956 66.4416 31.9224 66.9722 31.8658 67.5213V72.9677L49.9906 62.2797L43.9234 58.5933ZM31.8658 39.3101V44.7565C31.9224 45.3056 32.0956 45.8363 32.3737 46.3131C32.6518 46.7898 33.0285 47.2018 33.4786 47.5213L43.9234 53.6845L50.0802 50.0237L31.8658 39.3101Z" fill="#FE5000"/>
</svg>
