<svg width="160" height="116" viewBox="0 0 160 116" fill="none" xmlns="http://www.w3.org/2000/svg">
<path d="M121.35 40.0793C120.802 40.2382 120.302 40.5333 119.898 40.9373C119.494 41.3413 119.199 41.8409 119.04 42.3897L116.48 51.3497L115.84 49.0905C115.75 48.7766 115.6 48.4833 115.397 48.2276C115.194 47.9718 114.943 47.7585 114.658 47.5998C114.373 47.4412 114.059 47.3402 113.735 47.3028C113.41 47.2654 113.082 47.2922 112.768 47.3817C112.454 47.4712 112.161 47.6216 111.905 47.8245C111.649 48.0273 111.436 48.2785 111.277 48.5638C111.119 48.849 111.018 49.1627 110.98 49.487C110.943 49.8113 110.97 50.1398 111.059 50.4537L112.531 55.5737C112.683 56.087 112.997 56.5374 113.426 56.8577C113.855 57.1781 114.377 57.3511 114.912 57.3511C115.447 57.3511 115.968 57.1781 116.398 56.8577C116.827 56.5374 117.141 56.087 117.293 55.5737L119.795 46.8569L122.112 54.9017C122.309 55.6147 122.734 56.2435 123.322 56.6917C123.911 57.1398 124.63 57.3825 125.37 57.3825C126.109 57.3825 126.828 57.1398 127.417 56.6917C128.005 56.2435 128.431 55.6147 128.627 54.9017L133.485 37.9865L138.061 53.9865C138.454 55.121 139.266 56.0622 140.331 56.6172C141.396 57.1723 142.632 57.2992 143.787 56.9719C144.943 56.6446 145.929 55.888 146.545 54.857C147.16 53.826 147.358 52.5986 147.098 51.4265L141.402 31.5353C141.124 30.5483 140.531 29.6791 139.714 29.06C138.896 28.441 137.899 28.106 136.874 28.106C135.848 28.106 134.851 28.441 134.034 29.06C133.216 29.6791 132.623 30.5483 132.346 31.5353L127.36 48.8537L125.491 42.4537C125.252 41.5931 124.683 40.8615 123.908 40.4171C123.133 39.9728 122.214 39.8514 121.35 40.0793Z" fill="url(#paint0_linear_395_549437)"/>
<path d="M108.16 54.6595V54.8003C108.16 56.0803 107.878 57.1363 105.772 57.1363C103.667 57.1363 103.404 56.0803 103.404 54.8003V54.6851C103.404 53.4051 103.686 52.3555 105.798 52.3555C107.91 52.3555 108.16 53.3731 108.16 54.6595ZM101.888 70.9987C100.58 71.0627 99.2932 70.6513 98.2653 69.8403C97.6479 69.1843 97.1796 68.4025 96.8924 67.5487C96.6052 66.6948 96.5059 65.7889 96.6013 64.8931V56.9379H94.2333C93.0173 56.9379 92.7165 56.7139 92.7165 54.7363C92.7165 52.7587 93.0749 52.5859 94.2333 52.5859H96.5629V49.3859C96.5629 47.9331 96.8253 47.5235 99.2189 47.5235C101.612 47.5235 101.868 47.8947 101.868 49.3859V64.3555C101.868 65.9043 102.016 66.2179 102.508 66.5763C103.001 66.9347 104.659 66.7043 105.907 66.5763C106.86 66.4291 106.918 66.8195 107.187 68.2531C107.456 69.6867 107.392 70.2371 106.457 70.4611C104.97 70.8228 103.444 71.0033 101.913 70.9987H101.888ZM78.6429 57.0723C77.6893 57.2579 77.6189 56.8675 77.3181 55.4275C77.0173 53.9875 77.0173 53.4499 77.9581 53.2067C80.0084 52.6023 82.1374 52.3068 84.2749 52.3299C85.5185 52.2156 86.7664 52.4992 87.8384 53.1399C88.9105 53.7806 89.7513 54.7453 90.2397 55.8947C90.8475 57.7281 91.0655 59.6682 90.8797 61.5907V68.2915C90.8993 68.7 90.7848 69.1037 90.5537 69.441C90.3227 69.7784 89.9876 70.031 89.5997 70.1603C87.7477 70.923 85.759 71.2977 83.7565 71.2611C79.3085 71.2611 75.7821 69.9363 75.7821 65.5011C75.7821 61.0659 78.8413 59.7411 83.1229 59.7411C84.0824 59.7293 85.0418 59.7721 85.9965 59.8691V58.9027C85.9965 57.2771 85.1901 56.3043 83.0653 56.3427C81.5714 56.4453 80.0906 56.6896 78.6429 57.0723ZM83.9293 67.5299C84.6484 67.53 85.3624 67.4088 86.0413 67.1715C86.0532 67.1559 86.0597 67.1368 86.0597 67.1171C86.0597 67.0975 86.0532 67.0784 86.0413 67.0627V63.6067C86.0413 63.5916 86.0383 63.5766 86.0325 63.5626C86.0267 63.5487 86.0182 63.536 86.0075 63.5253C85.9968 63.5146 85.9841 63.5061 85.9702 63.5003C85.9562 63.4945 85.9412 63.4915 85.9261 63.4915C85.1861 63.3657 84.4367 63.3036 83.6861 63.3059C81.8173 63.3059 80.7165 63.7731 80.7165 65.4755C80.7165 67.1779 81.9197 67.5299 83.9293 67.5299ZM71.9421 69.7123C70.5443 70.7297 68.8513 71.2603 67.1229 71.2227C65.1655 71.1886 63.2242 70.8629 61.3629 70.2563C60.3965 69.9555 60.3965 69.6931 60.6013 68.2019C60.8061 66.7107 60.9725 66.1091 61.8813 66.3331C63.4828 66.7755 65.1218 67.069 66.7773 67.2099C67.8013 67.2099 68.7357 66.8003 68.7933 65.6995C68.8509 64.5987 67.8973 63.8307 65.9133 63.3635C63.6541 62.7235 60.6845 61.6483 60.5757 57.7635C60.5757 54.6979 62.8733 52.2723 66.7965 52.2723C68.6199 52.2456 70.4336 52.5425 72.1533 53.1491C73.1069 53.4115 73.1261 53.9299 72.7933 55.3699C72.4605 56.8099 72.4221 57.2387 71.4685 57.0147C70.0992 56.5902 68.6777 56.3576 67.2445 56.3235C67.0455 56.3005 66.8439 56.3179 66.6518 56.3745C66.4597 56.4311 66.2809 56.5259 66.1262 56.6531C65.9715 56.7804 65.844 56.9375 65.7514 57.115C65.6587 57.2926 65.6028 57.4871 65.5869 57.6867C65.5869 58.6211 66.7645 59.0691 68.0317 59.5555C69.5026 59.9792 70.8917 60.6478 72.1405 61.5331C72.6778 61.9714 73.106 62.5285 73.3914 63.1604C73.6768 63.7923 73.8116 64.4818 73.7853 65.1747C73.8666 66.0281 73.743 66.8886 73.4246 67.6845C73.1062 68.4805 72.6023 69.1889 71.9549 69.7507L71.9421 69.7123ZM45.3117 57.0723C44.3389 57.2579 44.2877 56.8675 43.9677 55.4275C43.6477 53.9875 43.6861 53.4499 44.6077 53.2067C46.6552 52.5992 48.7825 52.3036 50.9181 52.3299C52.1612 52.214 53.4089 52.497 54.4802 53.138C55.5516 53.7789 56.3909 54.7445 56.8765 55.8947C57.5215 57.72 57.7681 59.6622 57.5997 61.5907V68.2915C57.6193 68.7 57.5048 69.1037 57.2737 69.441C57.0426 69.7784 56.7076 70.031 56.3197 70.1603C54.4947 70.9176 52.5355 71.2986 50.5597 71.2803C46.0797 71.2803 42.5853 69.9555 42.5853 65.5203C42.5853 61.0851 45.6317 59.7603 49.9261 59.7603C50.8856 59.7485 51.845 59.7913 52.7997 59.8883V58.9219C52.7997 57.2963 51.9997 56.3235 49.8493 56.3619C48.3173 56.4511 46.7976 56.6891 45.3117 57.0723ZM50.5981 67.5299C51.3109 67.5295 52.0185 67.4083 52.6909 67.1715C52.7163 67.167 52.7393 67.1535 52.7557 67.1336C52.7721 67.1137 52.7809 67.0885 52.7805 67.0627V63.6067C52.7805 63.5773 52.7693 63.5489 52.749 63.5275C52.7288 63.506 52.7011 63.4932 52.6717 63.4915C51.9296 63.3657 51.178 63.3036 50.4253 63.3059C48.6525 63.3059 47.4621 63.7731 47.4621 65.4755C47.4621 67.1779 48.5629 67.5299 50.5981 67.5299ZM36.7613 70.9667C34.3677 70.9667 34.1053 70.5891 34.1053 69.0979V54.3779C34.1053 52.9187 34.3677 52.5091 36.7613 52.5091C39.1549 52.5091 39.4109 52.8611 39.4109 54.3779V69.2003C39.4109 70.6595 39.1485 71.0307 36.7613 71.0307V70.9667ZM29.6061 47.4915C27.3853 47.4915 27.0461 47.8627 26.6941 49.3603L22.4381 65.4179L18.1437 49.3219C17.7661 47.8627 17.4525 47.4531 15.2061 47.4531C12.9597 47.4531 12.5565 47.8051 12.9149 49.3219L18.6109 69.1619C19.0909 70.6211 20.0445 71.0307 22.4509 71.0307C24.8573 71.0307 25.8109 70.6595 26.2909 69.1619L31.9869 49.3219C32.3325 47.8435 31.8845 47.4915 29.6061 47.4915Z" fill="#202E39"/>
<path d="M109.587 70.704V69.0016H108.947V68.6496H110.682V69.0016H109.939V70.704H109.587ZM110.97 70.704V68.6496H111.456L111.77 69.392L111.962 69.9168L112.147 69.392L112.461 68.6304H112.928V70.6848H112.576V69.0784L112.09 70.3584H111.77L111.29 69.0784V70.6848L110.97 70.704Z" fill="#202E39"/>
<defs>
<linearGradient id="paint0_linear_395_549437" x1="111.04" y1="50.3193" x2="144.429" y2="41.3721" gradientUnits="userSpaceOnUse">
<stop stop-color="#202E39"/>
<stop offset="0.04" stop-color="#1E323F"/>
<stop offset="0.1" stop-color="#1A3C4F"/>
<stop offset="0.16" stop-color="#134E6A"/>
<stop offset="0.23" stop-color="#096690"/>
<stop offset="0.28" stop-color="#007EB4"/>
<stop offset="0.34" stop-color="#0084BC"/>
<stop offset="0.43" stop-color="#0093D2"/>
<stop offset="0.48" stop-color="#009FE3"/>
<stop offset="0.51" stop-color="#18A6CD"/>
<stop offset="0.57" stop-color="#44B3A4"/>
<stop offset="0.63" stop-color="#69BE81"/>
<stop offset="0.69" stop-color="#88C765"/>
<stop offset="0.76" stop-color="#A0CE4F"/>
<stop offset="0.83" stop-color="#B1D33F"/>
<stop offset="0.9" stop-color="#BBD636"/>
<stop offset="1" stop-color="#BED733"/>
</linearGradient>
</defs>
</svg>
