<svg width="160" height="116" viewBox="0 0 160 116" fill="none" xmlns="http://www.w3.org/2000/svg">
<path d="M43.9231 52.0691C44.1302 52.0691 44.3288 52.1514 44.4752 52.2978C44.6217 52.4442 44.7039 52.6428 44.7039 52.8499V67.7555C44.6958 67.9582 44.6103 68.1501 44.4651 68.2917C44.3199 68.4333 44.126 68.514 43.9231 68.5171H41.9007C41.7054 68.5206 41.5164 68.4476 41.3741 68.3137C41.2318 68.1798 41.1475 67.9955 41.1391 67.8003V66.4179C40.1215 67.9219 38.3551 68.9779 35.7951 68.9779C31.5135 68.9779 28.8703 66.1363 28.8703 61.9379V52.8051C28.8801 52.6035 28.9662 52.4133 29.1113 52.273C29.2563 52.1327 29.4494 52.0529 29.6511 52.0499H31.6735C31.7732 52.049 31.8721 52.068 31.9645 52.1055C32.0569 52.1431 32.1409 52.1986 32.2117 52.2688C32.2825 52.339 32.3387 52.4226 32.377 52.5146C32.4154 52.6066 32.4351 52.7054 32.4351 52.8051V61.3107C32.4351 64.0563 33.8751 65.8739 36.7167 65.8739C39.5583 65.8739 41.1391 63.9923 41.1391 61.3491V52.8051C41.1456 52.6058 41.2281 52.4165 41.3698 52.276C41.5114 52.1356 41.7014 52.0547 41.9007 52.0499H43.9231V52.0691ZM14.0799 43.8003C10.7962 43.8744 7.67196 45.2309 5.37578 47.5795C3.07961 49.9281 1.79395 53.0821 1.79395 56.3667C1.79395 59.6512 3.07961 62.8053 5.37578 65.1539C7.67196 67.5025 10.7962 68.859 14.0799 68.9331C15.2305 68.9347 16.376 68.7797 17.4847 68.4723L18.8415 71.9795C18.8993 72.1752 19.0222 72.3452 19.1898 72.4616C19.3573 72.578 19.5596 72.6337 19.7631 72.6195H21.9519C22.4703 72.6195 22.8479 72.2739 22.5919 71.6147L20.8319 67.0323C23.1181 65.5603 24.8678 63.3893 25.8204 60.8426C26.773 58.2959 26.8777 55.5096 26.1189 52.8986C25.36 50.2875 23.7782 47.9914 21.6089 46.352C19.4397 44.7126 16.799 43.8176 14.0799 43.8003ZM19.5263 63.6723L17.9455 59.5699C17.8664 59.3673 17.724 59.1956 17.5396 59.0803C17.3551 58.965 17.1384 58.9122 16.9215 58.9299H14.8863C14.7583 58.8962 14.6229 58.903 14.4989 58.9494C14.3749 58.9958 14.2683 59.0796 14.1939 59.1891C14.1195 59.2986 14.0809 59.4285 14.0834 59.5609C14.0859 59.6933 14.1294 59.8217 14.2079 59.9283L16.2879 65.3107C15.5753 65.4943 14.8414 65.5825 14.1055 65.5731C9.04314 65.5731 5.43993 61.5923 5.43993 56.3891C5.43993 51.1859 9.04313 47.1859 14.0799 47.1859C19.1167 47.1859 22.7711 51.1603 22.7711 56.3699C22.8103 57.7479 22.5436 59.1174 21.9903 60.3801C21.437 61.6427 20.6108 62.7671 19.5711 63.6723H19.5263ZM158.336 67.6723C158.385 67.7609 158.41 67.8612 158.406 67.9625C158.403 68.0639 158.372 68.1623 158.316 68.2473C158.261 68.3323 158.183 68.4005 158.092 68.4447C158.001 68.4888 157.899 68.5072 157.798 68.4979H155.52C155.319 68.5088 155.121 68.4514 154.957 68.3352C154.793 68.219 154.674 68.0508 154.618 67.8579L150.432 56.6131L146.195 67.8579C146.137 68.0496 146.017 68.2165 145.854 68.3324C145.69 68.4483 145.493 68.5065 145.293 68.4979H143.27C143.07 68.5065 142.873 68.4483 142.71 68.3324C142.546 68.2165 142.426 68.0496 142.368 67.8579L138.086 56.5491L133.869 67.8579C133.807 68.0473 133.686 68.2118 133.523 68.3271C133.361 68.4423 133.166 68.5022 132.966 68.4979H130.848C130.649 68.5033 130.453 68.4438 130.29 68.3284C130.127 68.213 130.006 68.0479 129.946 67.8579L125.76 56.5491L121.44 67.8579C121.383 68.0502 121.263 68.2178 121.099 68.3338C120.936 68.4498 120.738 68.5076 120.538 68.4979H118.522C118.321 68.5076 118.123 68.4498 117.96 68.3338C117.796 68.2178 117.676 68.0502 117.619 67.8579L113.395 56.5491L109.171 67.8579C109.116 68.0503 108.998 68.2184 108.835 68.3346C108.672 68.4509 108.475 68.5084 108.275 68.4979H106.074C105.972 68.5085 105.87 68.4911 105.777 68.4475C105.685 68.4038 105.607 68.3357 105.551 68.2505C105.494 68.1653 105.463 68.0663 105.459 67.9643C105.455 67.8624 105.48 67.7613 105.53 67.6723L111.29 52.7091C111.35 52.5202 111.47 52.3559 111.631 52.2406C111.793 52.1253 111.987 52.0651 112.186 52.0691H114.65C114.849 52.0616 115.046 52.1203 115.209 52.236C115.372 52.3517 115.493 52.518 115.552 52.7091L119.68 63.6339L123.757 52.7091C123.819 52.5202 123.941 52.3563 124.103 52.2412C124.265 52.1261 124.46 52.0658 124.659 52.0691H127.078C127.278 52.0605 127.476 52.1187 127.639 52.2346C127.802 52.3505 127.923 52.5174 127.981 52.7091L132.026 63.6339L136.064 52.7091C136.126 52.5197 136.247 52.3552 136.409 52.2399C136.572 52.1247 136.767 52.0648 136.966 52.0691H139.405C139.605 52.0605 139.802 52.1187 139.966 52.2346C140.129 52.3505 140.249 52.5174 140.307 52.7091L144.41 63.6339L148.41 52.7091C148.471 52.5197 148.592 52.3552 148.755 52.2399C148.917 52.1247 149.113 52.0648 149.312 52.0691H151.776C151.975 52.0619 152.171 52.1208 152.333 52.2366C152.495 52.3524 152.614 52.5185 152.672 52.7091L158.355 67.6723H158.336ZM63.5135 52.0691H61.4911C61.2841 52.0691 61.0855 52.1514 60.939 52.2978C60.7926 52.4442 60.7103 52.6428 60.7103 52.8499V54.2067C60.0965 53.3612 59.2851 52.6789 58.3469 52.2193C57.4087 51.7597 56.3722 51.5367 55.3279 51.5699C50.8479 51.5699 47.0079 55.0899 47.0079 60.2291C47.0079 65.3683 50.8479 68.9331 55.2767 68.9331C56.3257 68.9616 57.3661 68.7369 58.3097 68.2779C59.2534 67.8189 60.0724 67.1391 60.6975 66.2963V67.7363C60.7057 67.939 60.7912 68.1308 60.9364 68.2725C61.0816 68.4141 61.2755 68.4948 61.4783 68.4979H63.5007C63.7016 68.4962 63.8937 68.4152 64.0351 68.2726C64.1766 68.1299 64.2559 67.9372 64.2559 67.7363V52.8499C64.2527 52.6449 64.1703 52.4492 64.0259 52.3036C63.8815 52.1581 63.6865 52.074 63.4815 52.0691H63.5135ZM55.6799 65.6563C52.7423 65.6563 50.6367 63.2499 50.6367 60.2739C50.6367 57.2979 52.7167 54.9299 55.6799 54.9299C58.6431 54.9299 60.7231 57.2467 60.7231 60.2739C60.7231 63.3011 58.5855 65.6563 55.6799 65.6563ZM87.5967 66.1747C87.6718 66.2563 87.7276 66.3538 87.7597 66.4599C87.7918 66.566 87.7996 66.678 87.7823 66.7876C87.7651 66.8971 87.7234 67.0014 87.6602 67.0925C87.597 67.1836 87.5141 67.2593 87.4175 67.3139C85.8803 68.4208 84.025 68.9981 82.1311 68.9587C77.0111 68.9587 73.6319 65.2147 73.6319 60.2931C73.6319 55.3715 77.0303 51.5891 82.1311 51.5891C84.0239 51.5506 85.8783 52.1254 87.4175 53.2275C87.5122 53.2837 87.5934 53.3602 87.6551 53.4513C87.7169 53.5425 87.7578 53.6462 87.7749 53.755C87.792 53.8638 87.7849 53.975 87.7541 54.0807C87.7233 54.1865 87.6696 54.2841 87.5967 54.3667L86.6367 55.7107C86.2591 56.2291 85.8175 56.0883 85.4335 55.8515C84.4813 55.225 83.373 54.877 82.2335 54.8467C79.2511 54.8467 77.2735 57.2467 77.2735 60.2931C77.2735 63.3395 79.2511 65.7139 82.2335 65.7139C83.3462 65.6721 84.4262 65.3268 85.3567 64.7155C85.7343 64.5107 86.1375 64.3315 86.5599 64.8947L87.5775 66.1747H87.5967ZM97.1455 51.6083C95.43 51.6007 93.7509 52.1025 92.3208 53.05C90.8907 53.9976 89.774 55.3483 89.1122 56.931C88.4505 58.5138 88.2734 60.2573 88.6034 61.9408C88.9334 63.6243 89.7557 65.1719 90.966 66.3877C92.1764 67.6034 93.7204 68.4326 95.4024 68.7701C97.0844 69.1076 98.8287 68.9382 100.414 68.2835C102 67.6287 103.356 66.5181 104.31 65.0922C105.264 63.6663 105.773 61.9894 105.773 60.2739C105.789 59.1347 105.577 58.0037 105.15 56.9475C104.723 55.8913 104.088 54.9312 103.285 54.1238C102.481 53.3164 101.523 52.6779 100.469 52.2459C99.4149 51.8139 98.2848 51.5971 97.1455 51.6083ZM97.1455 65.6371C94.2079 65.6371 92.1023 63.2755 92.1023 60.2931C92.1023 57.3107 94.1887 54.9491 97.1455 54.9491C100.102 54.9491 102.189 57.2723 102.189 60.2931C102.189 63.3139 100.109 65.6371 97.1455 65.6371ZM70.5919 44.2419C70.7957 44.2469 70.9894 44.3314 71.1317 44.4773C71.274 44.6231 71.3536 44.8189 71.3535 45.0227V67.7171C71.357 67.8189 71.3398 67.9204 71.303 68.0155C71.2662 68.1105 71.2105 68.1971 71.1394 68.27C71.0682 68.343 70.983 68.4008 70.889 68.4399C70.7949 68.4791 70.6938 68.4988 70.5919 68.4979H68.5759C68.3714 68.49 68.1773 68.4052 68.0326 68.2604C67.8878 68.1157 67.803 67.9217 67.7951 67.7171V45.0419C67.803 44.8373 67.8878 44.6433 68.0326 44.4985C68.1773 44.3538 68.3714 44.269 68.5759 44.2611H70.5919" fill="#3253DC"/>
</svg>
