<svg width="160" height="116" viewBox="0 0 160 116" fill="none" xmlns="http://www.w3.org/2000/svg">
<path d="M67.5904 36.0922C68.3753 36.0619 69.159 36.1792 69.9008 36.4378C70.5164 36.6443 71.0722 36.998 71.52 37.4681C71.9282 37.946 72.2449 38.4948 72.4544 39.0873C72.6367 39.7253 72.6954 40.3922 72.6272 41.0521L68.9408 41.7369C68.9274 41.2367 68.812 40.7446 68.6016 40.2905C68.5085 40.1212 68.374 39.9783 68.2105 39.8753C68.047 39.7723 67.8601 39.7126 67.6672 39.7017C67.4582 39.7006 67.2535 39.7606 67.0784 39.8745C66.9056 39.9449 66.8288 40.1177 66.7328 40.2137C66.4896 40.4633 66.3872 40.6361 66.3872 40.8025C66.3717 40.9446 66.3482 41.0856 66.3168 41.2249V51.2345C66.3245 51.4972 66.3832 51.7559 66.4896 51.9961C66.6624 52.2457 66.9056 52.3417 67.4176 52.3417C67.746 52.3529 68.0707 52.2684 68.352 52.0985C68.4707 52.0125 68.565 51.8971 68.6256 51.7635C68.6862 51.63 68.711 51.483 68.6976 51.3369V48.3417H67.4176V45.0009H72.5376V51.0873C72.6191 51.7586 72.5476 52.4395 72.3285 53.0792C72.1093 53.7188 71.7483 54.3006 71.2723 54.7808C70.7964 55.2611 70.2179 55.6274 69.5802 55.8523C68.9426 56.0772 68.2623 56.1548 67.5904 56.0793C65.7984 56.0793 64.4992 55.6633 63.7504 54.8761C62.9029 53.8433 62.4735 52.5302 62.5472 51.1961V41.2249C62.4802 39.8477 62.9376 38.4962 63.8272 37.4426C64.8589 36.5127 66.2158 36.0275 67.6032 36.0922H67.5904ZM74.1952 55.8745V36.2393H83.2V39.9193H78.08V44.1177H82.6176V47.8233H78.08V52.2393H83.2V55.9513H74.1952V55.8745ZM91.5712 45.5193V36.2393H95.36V55.8745H92.096L89.7856 50.1145L88.4096 46.4793H88.2368V55.8745H84.3968V36.2393H87.7312L90.0416 41.8841L91.3216 45.4937L91.5712 45.5193ZM97.3888 55.8745V36.2393H106.4V39.9193H101.28V44.1177H105.824V47.8233H101.28V52.2393H106.4V55.9513H97.44V55.8745H97.3888ZM112.39 36.2393C113.142 36.2309 113.892 36.3126 114.624 36.4826C115.29 36.6409 115.889 37.0034 116.339 37.5193C116.874 37.9968 117.259 38.6193 117.446 39.3113C117.732 40.2005 117.872 41.1296 117.862 42.0633C117.902 43.1746 117.726 44.2831 117.344 45.3273C117.008 46.1522 116.447 46.8662 115.725 47.3881L118.547 55.8809H114.598L112.288 48.2457H111.526V55.9001H107.686V36.2906H112.403L112.39 36.2393ZM111.629 39.9193V44.5593H112.218C112.473 44.5706 112.73 44.5469 112.979 44.4889C113.223 44.4076 113.454 44.2912 113.664 44.1433C113.876 43.9371 114.021 43.6717 114.08 43.3818C114.188 42.9895 114.246 42.5853 114.253 42.1785C114.279 41.8882 114.248 41.5954 114.16 41.3174C114.072 41.0394 113.929 40.7817 113.741 40.5593C113.343 40.2031 112.821 40.019 112.288 40.0473H111.603L111.629 39.9449V39.9193Z" fill="black"/>
<path d="M126.009 52.0221H123.091L122.502 55.8621H118.477L122.157 36.2397H126.867L130.649 55.8493H126.624L126.009 52.0221ZM124.045 45.3469L123.629 48.4381H125.44L125.094 45.3469L124.678 41.3917H124.486L124.045 45.3469ZM131.584 55.8749V36.2397H135.424V52.1949H140.544V55.8749H131.584ZM68.7935 75.4909H65.8751L65.3567 79.3309H61.3311L65.0175 59.7149H69.7599L73.4399 79.3309H69.4143L68.7935 75.4909ZM66.9055 68.8093L66.4895 71.9069H68.2815L67.9359 68.8093L67.4174 64.7837H67.2511L66.9055 68.8093ZM84.1086 73.5965C84.122 74.4308 84.0404 75.2639 83.8654 76.0797C83.7465 76.782 83.4515 77.4426 83.0078 77.9997C82.6125 78.5361 82.0765 78.9525 81.459 79.2029C80.6648 79.4881 79.826 79.629 78.9823 79.6189C78.1925 79.6309 77.4079 79.4896 76.6719 79.2029C76.048 79.0175 75.5047 78.6275 75.1294 78.0957C74.7148 77.6338 74.4183 77.0782 74.2655 76.4765C74.0965 75.8355 74.0147 75.1746 74.0223 74.5117L77.8623 73.7501C77.8559 74.3109 77.974 74.8661 78.2078 75.3757C78.3105 75.5527 78.4629 75.6956 78.6461 75.7866C78.8293 75.8777 79.0352 75.9128 79.2382 75.8877C79.4774 75.8884 79.7129 75.829 79.923 75.7149C80.064 75.5632 80.1806 75.3905 80.2686 75.2029C80.3819 74.965 80.441 74.7049 80.4415 74.4413V73.5517C80.4619 73.2382 80.436 72.9234 80.3646 72.6173C80.2987 72.384 80.2175 72.1552 80.1215 71.9325C79.941 71.7426 79.7439 71.5691 79.5326 71.4141C79.2371 71.2421 78.9238 71.1026 78.5982 70.9981C77.7905 70.6784 77.0183 70.2751 76.2942 69.7949C75.7531 69.4269 75.2863 68.9601 74.9182 68.4189C74.5894 67.9633 74.3863 67.4292 74.3295 66.8701C74.2252 66.2782 74.1674 65.6791 74.1567 65.0781C74.1518 64.3267 74.2334 63.5773 74.3999 62.8445C74.5829 62.2021 74.8752 61.5959 75.2638 61.0525C75.6703 60.5571 76.2 60.1774 76.7999 59.9517C77.5404 59.6816 78.322 59.5409 79.1103 59.5357C79.931 59.5273 80.7464 59.6682 81.5167 59.9517C82.0953 60.2083 82.6054 60.5975 83.0056 61.0879C83.4059 61.5782 83.6851 62.1559 83.8207 62.7741C83.9893 63.3301 84.0735 63.9083 84.0702 64.4893L80.2878 65.3533V64.5405C80.2731 64.3036 80.2145 64.0714 80.115 63.8557C80.0365 63.6904 79.9176 63.5473 79.7694 63.4397C79.5599 63.3241 79.324 63.2646 79.0847 63.2669C78.8758 63.2665 78.6713 63.3265 78.4959 63.4397C78.3231 63.5101 78.2527 63.6829 78.1502 63.8557C78.0504 64.0371 77.9915 64.238 77.9774 64.4445V65.1293C77.9608 65.3625 77.9868 65.5967 78.0542 65.8205C78.1059 66.0277 78.1879 66.2261 78.2974 66.4093C78.4966 66.6186 78.7304 66.7919 78.9886 66.9213L80.1919 67.5101C80.9375 67.8069 81.6515 68.1779 82.3231 68.6173C82.7885 68.9786 83.1944 69.4105 83.5262 69.8973C83.7899 70.4037 83.9652 70.9513 84.0447 71.5165C84.0895 72.1565 84.0894 72.8413 84.0894 73.6029L84.1086 73.5965ZM95.5262 73.5965C95.5377 74.4311 95.4539 75.2642 95.2766 76.0797C95.1608 76.7829 94.8654 77.4442 94.419 77.9997C94.0262 78.5358 93.4922 78.9524 92.8766 79.2029C92.0801 79.4876 91.2393 79.6284 90.3935 79.6189C89.6058 79.6309 88.8232 79.4896 88.0894 79.2029C87.4639 79.0174 86.9186 78.6276 86.5406 78.0957C86.1283 77.6331 85.8341 77.0776 85.6831 76.4765C85.5109 75.8361 85.4291 75.1748 85.4398 74.5117L89.2798 73.7501C89.273 74.3103 89.3888 74.8651 89.619 75.3757C89.7223 75.5521 89.8748 75.6946 90.0578 75.7855C90.2409 75.8765 90.4465 75.912 90.6494 75.8877C90.8906 75.8884 91.1282 75.829 91.3406 75.7149C91.4798 75.563 91.5942 75.3903 91.6798 75.2029C91.7931 74.965 91.8522 74.7049 91.8526 74.4413V73.5517C91.8718 73.2385 91.8481 72.9242 91.7822 72.6173C91.7115 72.3847 91.6282 72.1561 91.5326 71.9325C91.3551 71.7395 91.1578 71.5658 90.9439 71.4141C90.65 71.2432 90.339 71.1037 90.0158 70.9981C89.2055 70.6796 88.431 70.2763 87.7054 69.7949C87.1643 69.4269 86.6975 68.9601 86.3294 68.4189C86.0048 67.9611 85.8021 67.4281 85.7406 66.8701C85.6419 66.2776 85.5863 65.6787 85.5743 65.0781C85.5662 64.3266 85.6478 63.5768 85.8174 62.8445C85.9985 62.2025 86.2885 61.5963 86.675 61.0525C87.0856 60.5559 87.6198 60.1762 88.2239 59.9517C89.745 59.397 91.4131 59.397 92.9343 59.9517C93.5162 60.2602 94.0402 60.6673 94.4831 61.1549C94.8184 61.6525 95.0752 62.1986 95.2447 62.7741C95.4082 63.3311 95.4901 63.9089 95.4878 64.4893L91.7054 65.3533V64.5405C91.6937 64.3031 91.6349 64.0703 91.5326 63.8557C91.4541 63.6922 91.3379 63.5496 91.1935 63.4397C90.9812 63.3252 90.7435 63.2657 90.5023 63.2669C90.2934 63.2665 90.0889 63.3265 89.9135 63.4397C89.7471 63.5101 89.6703 63.6829 89.5743 63.8557C89.4716 64.0359 89.4124 64.2375 89.4014 64.4445V65.1293C89.3862 65.3621 89.41 65.5957 89.4718 65.8205C89.5231 66.0289 89.6074 66.2277 89.7214 66.4093C89.918 66.6187 90.1498 66.792 90.4062 66.9213L91.6094 67.5101C92.3565 67.8084 93.0724 68.1793 93.747 68.6173C94.2093 68.9821 94.6148 69.4135 94.9502 69.8973C95.2117 70.4041 95.3848 70.9516 95.4622 71.5165C95.411 72.1565 95.5135 72.8413 95.5135 73.6029L95.5262 73.5965ZM97.0494 79.3565V59.7277H106.054V63.4141H100.934V67.5997H105.472V71.2797H100.928V75.7213H106.048V79.3309L97.0494 79.3565ZM112.998 75.5165L112.141 73.0333L111.283 70.1149H111.11V79.3693H107.27V59.7277H110.88L112.845 64.9565L114.125 68.7965H114.297L115.673 64.8477L117.561 59.7277H121.171V79.3437H117.331V70.1597H117.254L116.32 73.1549L115.565 75.4653L112.998 75.5165ZM130.649 69.1165C131.073 69.2408 131.456 69.4775 131.757 69.8013C132.029 70.0776 132.26 70.3924 132.441 70.7357C132.648 71.1049 132.766 71.5166 132.787 71.9389C132.846 72.3629 132.869 72.7911 132.857 73.2189C132.857 75.3565 132.441 76.9053 131.481 77.8333C130.553 78.8637 129.177 79.2861 127.36 79.2861H122.989V59.6829H127.469C129.184 59.6829 130.56 60.0989 131.417 61.0525C132.275 62.0061 132.697 63.3629 132.697 65.1805C132.709 65.5831 132.684 65.9859 132.621 66.3837C132.564 66.7665 132.447 67.1379 132.275 67.4845C132.079 67.8182 131.849 68.1313 131.59 68.4189C131.354 68.7143 131.039 68.9362 130.681 69.0589L130.649 69.1165ZM129.101 65.3597C129.15 64.8105 129.003 64.2615 128.685 63.8109C128.28 63.5398 127.793 63.4197 127.309 63.4717H126.893V67.3117H127.411C128.589 67.2669 129.101 66.6781 129.101 65.3021V65.3597ZM129.273 73.0397C129.32 72.4687 129.173 71.8985 128.857 71.4205C128.713 71.2447 128.528 71.1063 128.319 71.0172C128.109 70.928 127.881 70.8908 127.654 70.9085H126.969V75.7917H127.654C127.949 75.7995 128.243 75.7405 128.512 75.6189C128.722 75.459 128.898 75.2589 129.03 75.0301C129.101 74.7869 129.203 74.5117 129.273 74.1725V73.0397ZM135.033 79.3757V59.7277H138.873V75.6573H143.993V79.3437L135.033 79.3757ZM148.038 66.9533L148.729 63.6893L149.587 59.8493H153.6L149.817 71.4397V79.3181H145.977V71.3629L142.137 59.7085H146.259L147.2 63.6573L147.891 66.9213L148.038 66.9533Z" fill="black"/>
<path d="M53.2804 57.9361C53.2922 57.4765 53.4753 57.0378 53.7938 56.7063C54.1123 56.3748 54.5432 56.1742 55.002 56.1441C54.9252 55.2161 54.8292 54.1857 54.6564 53.2257C54.2134 53.3496 53.7393 53.2924 53.3384 53.0668C52.9375 52.8411 52.6427 52.4655 52.5188 52.0225C52.3949 51.5794 52.452 51.1053 52.6777 50.7045C52.9033 50.3036 53.279 50.0088 53.722 49.8849C53.4005 48.9834 53.0331 48.0991 52.6212 47.2353C52.4244 47.3673 52.2028 47.4581 51.97 47.5022C51.7371 47.5462 51.4977 47.5426 51.2662 47.4915C51.0348 47.4405 50.8161 47.343 50.6233 47.205C50.4306 47.0671 50.2679 46.8915 50.1449 46.6889C50.0219 46.4862 49.9413 46.2608 49.9079 46.0261C49.8745 45.7915 49.8891 45.5525 49.9506 45.3236C50.0122 45.0947 50.1195 44.8807 50.2661 44.6945C50.4127 44.5082 50.5956 44.3536 50.8036 44.2401C50.2588 43.4326 49.6601 42.6628 49.0116 41.9361C48.8477 42.0987 48.6534 42.2274 48.4397 42.315C48.2261 42.4025 47.9973 42.4471 47.7664 42.4462C47.5355 42.4453 47.3071 42.399 47.0941 42.3098C46.8811 42.2206 46.6878 42.0903 46.5252 41.9265C46.3626 41.7626 46.2338 41.5682 46.1463 41.3546C46.0587 41.1409 46.0141 40.9121 46.015 40.6813C46.0159 40.4504 46.0623 40.2219 46.1515 40.009C46.2406 39.796 46.3709 39.6027 46.5348 39.4401C45.8436 38.8513 45.082 38.2433 44.2244 37.6481C44.1055 37.8447 43.949 38.016 43.7638 38.1522C43.5787 38.2884 43.3686 38.3868 43.1454 38.4418C42.9222 38.4967 42.6904 38.5072 42.4632 38.4726C42.236 38.438 42.0179 38.359 41.8212 38.2401C41.6245 38.1211 41.4532 37.9646 41.317 37.7795C41.1808 37.5944 41.0824 37.3842 41.0275 37.1611C40.9725 36.9379 40.962 36.7061 40.9966 36.4789C41.0312 36.2517 41.1103 36.0335 41.2292 35.8369C40.366 35.4217 39.4816 35.0521 38.5796 34.7297C38.5182 34.949 38.4143 35.1541 38.2736 35.3333C38.133 35.5125 37.9585 35.6622 37.76 35.774C37.5615 35.8857 37.3429 35.9572 37.1168 35.9845C36.8906 36.0118 36.6613 35.9942 36.442 35.9329C36.2226 35.8715 36.0175 35.7675 35.8383 35.6269C35.6591 35.4863 35.5094 35.3117 35.3977 35.1132C35.2859 34.9147 35.2144 34.6962 35.1872 34.4701C35.1599 34.2439 35.1774 34.0146 35.2388 33.7953C34.3097 33.6 33.3653 33.4865 32.4164 33.4561C32.4203 33.9174 32.2463 34.3624 31.9303 34.6986C31.6144 35.0348 31.181 35.2362 30.7204 35.2609C30.489 35.2584 30.2605 35.2099 30.0481 35.1181C29.8357 35.0262 29.6438 34.893 29.4835 34.7262C29.3232 34.5593 29.1978 34.3622 29.1145 34.1463C29.0313 33.9304 28.992 33.7001 28.9988 33.4689C28.0708 33.5393 27.0788 33.6417 26.1764 33.8081C26.2421 34.0283 26.2625 34.2595 26.2364 34.4878C26.2104 34.7161 26.1384 34.9367 26.0248 35.1365C25.9111 35.3362 25.7583 35.5109 25.5753 35.6499C25.3924 35.789 25.1832 35.8896 24.9604 35.9457C24.5187 36.0542 24.0523 35.9902 23.6562 35.7666C23.2602 35.543 22.9644 35.1767 22.8292 34.7425C21.9272 35.0649 21.0428 35.4345 20.1796 35.8497C20.2985 36.0463 20.3775 36.2645 20.4122 36.4917C20.4468 36.7189 20.4363 36.9507 20.3813 37.1739C20.3263 37.397 20.2279 37.6072 20.0918 37.7923C19.9556 37.9774 19.7843 38.1339 19.5876 38.2529C19.3909 38.3718 19.1728 38.4508 18.9455 38.4854C18.7183 38.52 18.4865 38.5095 18.2634 38.4546C18.0402 38.3996 17.8301 38.3012 17.6449 38.165C17.4598 38.0288 17.3033 37.8575 17.1844 37.6609C16.373 38.2012 15.599 38.7956 14.8676 39.4401C15.0306 39.6027 15.1601 39.7958 15.2485 40.0085C15.3369 40.2211 15.3825 40.4491 15.3828 40.6794C15.3831 40.9097 15.338 41.1378 15.2502 41.3506C15.1623 41.5635 15.0334 41.757 14.8708 41.9201C14.7082 42.0831 14.515 42.2125 14.3024 42.3009C14.0897 42.3893 13.8617 42.435 13.6315 42.4353C13.4012 42.4356 13.1731 42.3905 12.9602 42.3027C12.7473 42.2148 12.5538 42.0859 12.3908 41.9233L10.5988 44.2273C10.7992 44.343 10.9741 44.4982 11.113 44.6834C11.2519 44.8686 11.3518 45.0799 11.4068 45.3048C11.4619 45.5296 11.4708 45.7633 11.4331 45.9916C11.3954 46.22 11.3119 46.4384 11.1876 46.6337C10.9493 47.033 10.568 47.3267 10.1211 47.455C9.67411 47.5834 9.19506 47.5369 8.78119 47.3249C8.36519 48.1825 8.01959 49.1169 7.67399 49.9745C7.89293 50.0354 8.09772 50.1388 8.27668 50.2789C8.45564 50.419 8.60525 50.593 8.71698 50.7909C8.8287 50.9888 8.90036 51.2067 8.92785 51.4323C8.95534 51.6579 8.93812 51.8867 8.87719 52.1057C8.81626 52.3246 8.7128 52.5294 8.57272 52.7083C8.43264 52.8873 8.25868 53.0369 8.06078 53.1486C7.86288 53.2604 7.64491 53.332 7.41932 53.3595C7.19373 53.387 6.96493 53.3698 6.74599 53.3088C6.53942 54.2751 6.42371 55.2586 6.40039 56.2465C6.63146 56.2489 6.85972 56.2975 7.07176 56.3893C7.28379 56.4812 7.47533 56.6146 7.63511 56.7815C7.7949 56.9484 7.91971 57.1456 8.00222 57.3615C8.08473 57.5773 8.12328 57.8075 8.11559 58.0385C8.1139 58.4928 7.93265 58.9281 7.61136 59.2494C7.29006 59.5707 6.85477 59.752 6.40039 59.7536C6.47719 60.688 6.57319 61.7184 6.74599 62.6784C7.18816 62.5545 7.66144 62.6114 8.06172 62.8364C8.462 63.0614 8.75648 63.4363 8.88039 63.8784C9.0043 64.3206 8.94748 64.7939 8.72244 65.1942C8.4974 65.5945 8.12256 65.8889 7.68039 66.0128C8.02599 66.9472 8.37159 67.8048 8.78759 68.7649C8.98962 68.6479 9.2131 68.5729 9.44473 68.5441C9.67636 68.5153 9.91142 68.5334 10.1359 68.5973C10.3604 68.6611 10.5698 68.7695 10.7516 68.916C10.9333 69.0624 11.0838 69.2439 11.194 69.4496C11.423 69.8498 11.4896 70.3226 11.38 70.7704C11.2704 71.2182 10.9931 71.6069 10.6052 71.856C11.1457 72.6686 11.7447 73.4408 12.3972 74.1665C12.5566 73.9901 12.7502 73.8479 12.9662 73.7487C13.1823 73.6495 13.4163 73.5952 13.6539 73.5892C13.8916 73.5832 14.128 73.6256 14.3488 73.7138C14.5695 73.802 14.7701 73.9341 14.9382 74.1022C15.1063 74.2704 15.2385 74.4709 15.3267 74.6917C15.4149 74.9124 15.4573 75.1488 15.4513 75.3865C15.4453 75.6242 15.391 75.8582 15.2917 76.0742C15.1925 76.2902 15.0504 76.4838 14.874 76.6432C15.611 77.2821 16.3823 77.8803 17.1844 78.4352C17.4227 78.0359 17.804 77.7422 18.2509 77.6139C18.6979 77.4855 19.1769 77.532 19.5908 77.744C19.7912 77.8598 19.9661 78.015 20.105 78.2002C20.2439 78.3854 20.3438 78.5967 20.3988 78.8216C20.4538 79.0464 20.4628 79.28 20.4251 79.5084C20.3874 79.7368 20.3039 79.9552 20.1796 80.1504C21.0428 80.5656 21.9272 80.9352 22.8292 81.2576C22.8795 81.0268 22.9765 80.8086 23.1142 80.6165C23.2519 80.4245 23.4274 80.2626 23.6299 80.1408C23.8324 80.019 24.0577 79.9398 24.2919 79.9082C24.5261 79.8766 24.7642 79.8932 24.9918 79.957C25.2193 80.0208 25.4315 80.1304 25.6151 80.2791C25.7988 80.4278 25.9501 80.6124 26.0599 80.8217C26.1696 81.031 26.2354 81.2605 26.2532 81.4962C26.2711 81.7318 26.2406 81.9686 26.1636 82.1921C27.0928 82.3865 28.0371 82.5 28.986 82.5312C29.0127 82.0936 29.2054 81.6827 29.5247 81.3823C29.844 81.0818 30.266 80.9146 30.7044 80.9146C31.1428 80.9146 31.5647 81.0818 31.8841 81.3823C32.2034 81.6827 32.3961 82.0936 32.4228 82.5312C33.3687 82.466 34.3107 82.3527 35.2452 82.1921C35.1213 81.749 35.1784 81.2749 35.4041 80.8741C35.6297 80.4732 36.0054 80.1784 36.4484 80.0544C36.8914 79.9305 37.3655 79.9877 37.7664 80.2133C38.1673 80.439 38.4621 80.8146 38.586 81.2576C39.488 80.9352 40.3724 80.5656 41.2356 80.1504C41.1167 79.9538 41.0376 79.7356 41.003 79.5084C40.9684 79.2812 40.9789 79.0494 41.0339 78.8262C41.0888 78.6031 41.1872 78.3929 41.3234 78.2078C41.4596 78.0227 41.6309 77.8662 41.8276 77.7472C42.0243 77.6283 42.2424 77.5493 42.4696 77.5147C42.6968 77.4801 42.9286 77.4906 43.1518 77.5455C43.375 77.6005 43.5851 77.6989 43.7702 77.8351C43.9554 77.9713 44.1119 78.1426 44.2308 78.3392C45.0404 77.7946 45.8123 77.1959 46.5412 76.5473C46.2119 76.2188 46.0266 75.773 46.026 75.3079C46.0254 74.8428 46.2095 74.3965 46.538 74.0672C46.8664 73.738 47.3122 73.5526 47.7773 73.552C48.2424 73.5514 48.6887 73.7356 49.018 74.064L50.81 71.76C50.6089 71.6449 50.4333 71.4901 50.2939 71.305C50.1545 71.1198 50.0542 70.9083 49.9992 70.6832C49.9441 70.4581 49.9354 70.2242 49.9735 69.9956C50.0117 69.767 50.096 69.5486 50.2212 69.3536C50.4595 68.9543 50.8408 68.6606 51.2877 68.5323C51.7347 68.4039 52.2137 68.4504 52.6276 68.6625C53.0439 67.7678 53.4114 66.8513 53.7284 65.9169C53.5059 65.8571 53.2975 65.7535 53.1157 65.612C52.9338 65.4706 52.782 65.2942 52.6693 65.0932C52.5566 64.8923 52.4852 64.6708 52.4594 64.4418C52.4335 64.2129 52.4537 63.9811 52.5188 63.76C52.6477 63.3163 52.9397 62.9376 53.3362 62.7002C53.7327 62.4628 54.2043 62.3841 54.6564 62.4801C54.8622 61.518 54.9779 60.5388 55.002 59.5553C54.7774 59.5756 54.551 59.5476 54.3381 59.4732C54.1252 59.3988 53.9307 59.2797 53.7676 59.1239C53.6045 58.9681 53.4767 58.7792 53.3927 58.5699C53.3086 58.3606 53.2703 58.1358 53.2804 57.9105" fill="#FF2841"/>
<path d="M23.9742 43.5299C23.27 43.5025 22.5674 43.6164 21.9079 43.8648C21.2484 44.1132 20.6453 44.4911 20.1342 44.9763C19.2358 46.0475 18.7783 47.4202 18.8542 48.8163V67.2227C18.7575 68.5909 19.188 69.9442 20.0574 71.0051C20.9214 71.8627 22.195 72.2851 23.8974 72.2851C24.5655 72.3323 25.2363 72.2432 25.8689 72.0231C26.5015 71.8031 27.0828 71.4567 27.5774 71.0051C28.0311 70.4911 28.378 69.892 28.5977 69.2426C28.8175 68.5932 28.9058 67.9065 28.8574 67.2227V58.6723H23.7374V62.1091H25.0174V67.5107C25.0379 67.6573 25.0164 67.8068 24.9552 67.9416C24.894 68.0765 24.7957 68.1912 24.6718 68.2723C24.4103 68.4889 24.0833 68.6107 23.7438 68.6179C23.2254 68.6179 22.9822 68.5411 22.8094 68.2723C22.7149 68.0282 22.6566 67.7716 22.6366 67.5107V48.7587C22.631 48.5827 22.657 48.4071 22.7134 48.2403C22.7254 48.0584 22.7826 47.8824 22.8798 47.7283C22.9566 47.5555 23.1294 47.4851 23.2254 47.3123C23.4059 47.2105 23.6073 47.1513 23.8142 47.1395H23.891C24.0998 47.139 24.3043 47.199 24.4798 47.3123C24.6526 47.3827 24.723 47.5555 24.819 47.7283C24.9096 47.886 24.9683 48.0599 24.9918 48.2403C24.9918 48.4131 25.0686 48.5859 25.0686 48.7587V53.0531H28.9086V48.7587C28.9719 47.3644 28.5158 45.9961 27.6286 44.9187C26.9886 44.0611 25.7086 43.5427 23.9742 43.5427V43.5299Z" fill="white"/>
<path d="M38.5533 43.7021H33.8429L30.0605 72.1502H34.1629L35.0205 65.2062H37.3501L38.2077 72.1502H42.2397L38.5533 43.7021Z" fill="white"/>
<path d="M36.2241 61.8402C35.883 61.8414 35.5493 61.7414 35.2652 61.5527C34.9811 61.364 34.7595 61.0952 34.6284 60.7804C34.4973 60.4655 34.4626 60.1188 34.5289 59.7843C34.5951 59.4497 34.7592 59.1424 35.0003 58.9012C35.2415 58.6601 35.5488 58.496 35.8834 58.4297C36.2179 58.3635 36.5646 58.3982 36.8795 58.5292C37.1943 58.6603 37.4631 58.882 37.6518 59.1661C37.8405 59.4502 37.9405 59.7839 37.9393 60.125C37.9401 60.3504 37.8963 60.5739 37.8104 60.7823C37.7245 60.9908 37.5982 61.1802 37.4388 61.3397C37.2794 61.4991 37.0899 61.6254 36.8815 61.7113C36.673 61.7972 36.4496 61.841 36.2241 61.8402Z" fill="#FF2841"/>
</svg>
