<svg width="160" height="116" viewBox="0 0 160 116" fill="none" xmlns="http://www.w3.org/2000/svg">
<path d="M158.349 45.7488H1.65137V69.8576H158.349V45.7488Z" fill="#ED1A3B"/>
<path fill-rule="evenodd" clip-rule="evenodd" d="M139.705 60.2255C140.345 62.7855 142.566 63.8415 145.055 63.8415C147.545 63.8415 150.348 62.7023 150.348 59.8479C150.371 59.226 150.218 58.6102 149.907 58.0714C149.595 57.5325 149.138 57.0924 148.588 56.8015C147.516 56.3426 146.385 56.0325 145.228 55.8799C144.799 55.7775 143.91 55.6559 143.91 55.0287C143.91 54.4015 144.607 54.2863 145.087 54.2863C145.495 54.239 145.906 54.3308 146.255 54.547C146.603 54.7631 146.869 55.0907 147.007 55.4767L150.015 54.5615C149.286 52.4943 147.302 51.6495 145.241 51.6495C144.042 51.6046 142.856 51.9188 141.836 52.5519C141.365 52.8917 140.982 53.3389 140.718 53.8564C140.454 54.374 140.318 54.947 140.319 55.5279C140.319 58.3503 142.963 58.9583 145.196 59.3679C145.727 59.4639 146.655 59.6047 146.655 60.3343C146.655 61.0639 145.715 61.0639 145.247 61.0639C144.191 61.0639 143.398 60.6799 143.084 59.6239L139.705 60.2639" fill="white"/>
<path fill-rule="evenodd" clip-rule="evenodd" d="M136.077 51.7908H131.277L129.652 58.0884L127.917 51.7908H123.162V63.6692H125.895V55.1828L128.161 63.6692H130.484L132.647 55.1828L132.679 63.6692H136.077V51.7908Z" fill="white"/>
<path fill-rule="evenodd" clip-rule="evenodd" d="M118.682 60.8271H113.331V58.9071H117.664V56.2639H113.331V54.5231H118.682V51.7903H109.767V63.6687H118.682V60.8271Z" fill="white"/>
<path fill-rule="evenodd" clip-rule="evenodd" d="M103.321 54.6447H105.766V51.7903H97.3691V54.6447H99.8651V63.6687H103.321V54.6447Z" fill="white"/>
<path fill-rule="evenodd" clip-rule="evenodd" d="M83.4562 60.2255C84.0962 62.7855 86.3042 63.8415 88.8002 63.8415C91.2962 63.8415 94.0802 62.7023 94.0802 59.8479C94.1016 59.2255 93.9473 58.6096 93.6349 58.0708C93.3225 57.532 92.8646 57.0921 92.3138 56.8015C91.243 56.3432 90.1147 56.0331 88.9602 55.8799C88.5314 55.7775 87.6482 55.6559 87.6482 55.0287C87.6482 54.4015 88.3394 54.2863 88.813 54.2863C89.2204 54.239 89.6318 54.3309 89.9804 54.547C90.3289 54.7631 90.5942 55.0908 90.733 55.4767L93.741 54.5615C93.0178 52.4943 91.0338 51.6495 88.9666 51.6495C87.7691 51.6044 86.5855 51.9187 85.5682 52.5519C85.0973 52.8925 84.7139 53.3397 84.4491 53.857C84.1844 54.3742 84.0459 54.9468 84.045 55.5279C84.045 58.3503 86.6946 58.9583 88.9218 59.3679C89.4594 59.4639 90.381 59.6047 90.381 60.3343C90.381 61.0639 89.4466 61.0639 88.9794 61.0639C88.5053 61.1232 88.0256 61.0104 87.6275 60.7462C87.2295 60.482 86.9393 60.0838 86.8098 59.6239L83.4434 60.2639" fill="white"/>
<path fill-rule="evenodd" clip-rule="evenodd" d="M81.3631 51.7908H78.1695L76.1855 55.7012L74.1055 51.7908H70.1055L74.1055 58.6516V63.6692H77.6383V58.6516L81.3631 51.7908Z" fill="white"/>
<path fill-rule="evenodd" clip-rule="evenodd" d="M56.96 60.2257C57.6 62.7857 59.8144 63.8417 62.3104 63.8417C64.8064 63.8417 67.6095 62.7025 67.6095 59.8481C67.6337 59.2267 67.482 58.6111 67.1717 58.0722C66.8615 57.5333 66.4054 57.0929 65.856 56.8017C64.7873 56.3439 63.6612 56.0338 62.5088 55.8801C62.0544 55.7777 61.1904 55.6561 61.1904 55.0289C61.1904 54.4017 61.8304 54.2865 62.3552 54.2865C62.7624 54.2403 63.1733 54.3327 63.5216 54.5487C63.8699 54.7646 64.1354 55.0916 64.2752 55.4769L67.2831 54.5617C66.5599 52.4945 64.5632 51.6497 62.5088 51.6497C61.3092 51.6037 60.1233 51.918 59.104 52.5521C58.6425 52.8929 58.2664 53.3362 58.0055 53.8471C57.7445 54.3579 57.6057 54.9224 57.6 55.4961C57.6 58.3185 60.2496 58.9265 62.4832 59.3361C63.0208 59.4321 63.936 59.5729 63.936 60.3025C63.936 61.0321 63.0016 61.0321 62.5344 61.0321C61.4784 61.0321 60.6848 60.6481 60.3712 59.5921L56.992 60.2321" fill="white"/>
<path fill-rule="evenodd" clip-rule="evenodd" d="M47.8845 60.8271H42.5341V58.9071H46.8605V56.2639H42.5341V54.5231H47.8845V51.7903H38.9629V63.6687H47.8845V60.8271Z" fill="white"/>
<path fill-rule="evenodd" clip-rule="evenodd" d="M31.3858 63.6692H35.1042L31.3858 51.7908H27.5394L23.8594 63.6692H26.8226L27.5394 61.3396H30.7138L31.3858 63.6692Z" fill="white"/>
<path fill-rule="evenodd" clip-rule="evenodd" d="M10.6113 63.6689H16.0513C17.1265 63.6689 18.4065 63.6689 19.3217 63.0289C19.7298 62.6966 20.0529 62.272 20.2644 61.7901C20.4758 61.3083 20.5695 60.783 20.5377 60.2577C20.5533 59.6022 20.327 58.964 19.9021 58.4646C19.4771 57.9653 18.8833 57.6399 18.2337 57.5505C18.8144 57.4075 19.3296 57.0723 19.6957 56.5994C20.0617 56.1265 20.257 55.5437 20.2497 54.9457C20.2468 54.4558 20.1295 53.9733 19.9073 53.5367C19.6851 53.1 19.364 52.7213 18.9697 52.4305C18.2034 51.9597 17.3056 51.7487 16.4097 51.8289H10.6113V63.6689Z" fill="white"/>
<path fill-rule="evenodd" clip-rule="evenodd" d="M28.1465 58.7409L29.1129 55.2913L30.0921 58.7409H28.1465Z" fill="#ED1A3B"/>
<path fill-rule="evenodd" clip-rule="evenodd" d="M13.9521 56.3536V54.3376H15.3601C16.0577 54.3376 16.7809 54.4529 16.7809 55.3424C16.7804 55.4885 16.7493 55.6328 16.6898 55.7661C16.6303 55.8994 16.5437 56.0189 16.4353 56.1168C16.138 56.321 15.7747 56.4055 15.4177 56.3536H13.9521Z" fill="#ED1A3B"/>
<path fill-rule="evenodd" clip-rule="evenodd" d="M13.9521 61.0003V58.8755H15.3921C15.7511 58.8492 16.1115 58.9016 16.4482 59.0291C16.57 59.0896 16.6786 59.1736 16.7679 59.2764C16.8571 59.3791 16.925 59.4984 16.9679 59.6275C17.0107 59.7566 17.0276 59.893 17.0174 60.0286C17.0073 60.1643 16.9705 60.2966 16.909 60.4179C16.8346 60.5699 16.7221 60.7 16.5826 60.7955C16.2703 60.9924 15.8983 61.0718 15.533 61.0195H13.9521" fill="#ED1A3B"/>
</svg>
