<?xml version="1.0" encoding="utf-8"?>
<!-- Generator: Adobe Illustrator 24.3.0, SVG Export Plug-In . SVG Version: 6.00 Build 0)  -->
<svg version="1.1" id="Layer_1" xmlns="http://www.w3.org/2000/svg" xmlns:xlink="http://www.w3.org/1999/xlink" x="0px" y="0px"
	 viewBox="0 0 2375 500" style="enable-background:new 0 0 2375 500;" xml:space="preserve">
<style type="text/css">
	.st0{fill:#061423;}
	.st1{fill:#457B9D;}
</style>
<g>
	<path class="st0" d="M821.06,198.09c15.88,10.07,28.44,24.04,37.66,41.92c9.22,17.87,13.83,38.16,13.83,60.85
		c0,22.7-4.54,43.05-13.62,61.06c-9.08,18.02-21.49,32.06-37.23,42.13c-15.74,10.07-33.12,15.11-52.13,15.11
		c-13.62,0-26.46-2.77-38.51-8.3c-12.06-5.53-22.06-12.27-30-20.21v83.4c0,7.37-2.41,13.54-7.23,18.51
		c-4.83,4.96-10.92,7.45-18.3,7.45c-7.38,0-13.48-2.41-18.3-7.23c-4.83-4.83-7.23-11.06-7.23-18.72V213.19
		c0-7.37,2.41-13.54,7.23-18.51c4.82-4.96,10.92-7.45,18.3-7.45c7.37,0,13.47,2.49,18.3,7.45c4.82,4.97,7.23,11.14,7.23,18.51v1.7
		c6.81-8.51,16.31-15.96,28.51-22.34c12.19-6.38,24.96-9.57,38.3-9.57C787.45,182.98,805.17,188.02,821.06,198.09z M806.17,351.91
		c11.63-13.62,17.45-30.64,17.45-51.06c0-20.43-5.74-37.37-17.23-50.85c-11.49-13.47-26.46-20.21-44.89-20.21
		c-18.44,0-33.48,6.74-45.11,20.21c-11.64,13.48-17.45,30.43-17.45,50.85c0,20.43,5.81,37.45,17.45,51.06
		c11.63,13.62,26.66,20.43,45.11,20.43C779.64,372.34,794.53,365.53,806.17,351.91z"/>
	<path class="st0" d="M1115.53,312.34c-5.11,4.26-11.06,6.38-17.87,6.38H957.23c3.4,16.74,11.2,29.86,23.4,39.36
		c12.19,9.51,25.96,14.26,41.28,14.26c11.63,0,20.7-1.06,27.23-3.19c6.52-2.13,11.7-4.39,15.53-6.81c3.83-2.41,6.45-4.04,7.87-4.89
		c5.11-2.55,9.93-3.83,14.47-3.83c5.96,0,11.06,2.13,15.32,6.38c4.26,4.26,6.38,9.22,6.38,14.89c0,7.66-3.98,14.61-11.91,20.85
		c-7.95,6.53-18.58,12.06-31.91,16.6c-13.34,4.53-26.81,6.81-40.43,6.81c-23.83,0-44.61-4.96-62.34-14.89
		c-17.73-9.93-31.42-23.62-41.06-41.06c-9.65-17.45-14.47-37.09-14.47-58.94c0-24.4,5.11-45.81,15.32-64.26
		c10.21-18.44,23.68-32.55,40.43-42.34c16.74-9.79,34.61-14.68,53.62-14.68c18.72,0,36.38,5.11,52.98,15.32
		c16.6,10.21,29.85,23.98,39.79,41.28c9.93,17.31,14.89,36.03,14.89,56.17C1123.32,302.55,1120.63,308.09,1115.53,312.34z
		 M957.65,276.17h111.49v-2.98c-1.14-11.92-6.96-22.13-17.45-30.64c-10.5-8.51-22.41-12.77-35.74-12.77
		C983.04,229.79,963.61,245.25,957.65,276.17z"/>
	<path class="st0" d="M1372.97,107.23c4.82,4.83,7.23,11.06,7.23,18.72v262.98c0,7.38-2.41,13.55-7.23,18.51
		c-4.83,4.97-10.92,7.45-18.3,7.45c-7.38,0-13.4-2.41-18.09-7.23c-4.68-4.82-7.17-10.92-7.45-18.3
		c-7.09,8.23-16.67,15.25-28.72,21.06c-12.06,5.81-24.75,8.72-38.09,8.72c-19.57,0-37.31-5.03-53.19-15.11
		c-15.89-10.07-28.44-24.04-37.66-41.92c-9.22-17.87-13.83-38.15-13.83-60.85c0-22.69,4.53-43.05,13.62-61.06
		c9.08-18.01,21.49-32.05,37.23-42.13c15.74-10.07,33.12-15.11,52.13-15.11c13.62,0,26.38,2.49,38.3,7.45
		c11.91,4.97,21.98,11.28,30.21,18.94v-83.4c0-7.37,2.41-13.54,7.23-18.51c4.82-4.96,10.92-7.45,18.3-7.45
		C1362.04,100,1368.14,102.41,1372.97,107.23z M1313.82,352.13c11.63-13.47,17.45-30.43,17.45-50.85c0-20.43-5.82-37.45-17.45-51.06
		c-11.64-13.62-26.67-20.43-45.11-20.43c-18.16,0-33.05,6.81-44.68,20.43c-11.64,13.62-17.45,30.64-17.45,51.06
		c0,20.43,5.74,37.38,17.23,50.85c11.49,13.48,26.45,20.21,44.89,20.21C1287.15,372.34,1302.18,365.6,1313.82,352.13z"/>
	<path class="st0" d="M1633.31,312.34c-5.11,4.26-11.06,6.38-17.87,6.38h-140.43c3.4,16.74,11.2,29.86,23.4,39.36
		c12.19,9.51,25.96,14.26,41.28,14.26c11.63,0,20.7-1.06,27.23-3.19c6.52-2.13,11.7-4.39,15.53-6.81c3.83-2.41,6.45-4.04,7.87-4.89
		c5.11-2.55,9.93-3.83,14.47-3.83c5.96,0,11.06,2.13,15.32,6.38c4.26,4.26,6.38,9.22,6.38,14.89c0,7.66-3.98,14.61-11.92,20.85
		c-7.94,6.53-18.58,12.06-31.91,16.6c-13.34,4.53-26.81,6.81-40.43,6.81c-23.83,0-44.61-4.96-62.34-14.89
		c-17.73-9.93-31.42-23.62-41.06-41.06c-9.65-17.45-14.47-37.09-14.47-58.94c0-24.4,5.11-45.81,15.32-64.26
		c10.21-18.44,23.68-32.55,40.43-42.34c16.74-9.79,34.61-14.68,53.62-14.68c18.72,0,36.38,5.11,52.98,15.32
		c16.6,10.21,29.85,23.98,39.79,41.28c9.93,17.31,14.89,36.03,14.89,56.17C1641.11,302.55,1638.42,308.09,1633.31,312.34z
		 M1475.44,276.17h111.49v-2.98c-1.14-11.92-6.95-22.13-17.45-30.64c-10.5-8.51-22.41-12.77-35.74-12.77
		C1500.83,229.79,1481.4,245.25,1475.44,276.17z"/>
	<path class="st0" d="M1669.05,366.81c0-7.37,3.68-13.62,11.06-18.72c3.97-2.55,8.09-3.83,12.34-3.83c5.96,0,11.63,2.7,17.02,8.08
		c8.51,8.8,17.37,15.32,26.6,19.57c9.22,4.26,20.35,6.38,33.4,6.38c22.13-0.85,33.19-9.22,33.19-25.11
		c0-8.22-3.76-14.47-11.28-18.72c-7.52-4.26-19.22-8.51-35.11-12.77c-16.46-4.53-29.86-9.08-40.21-13.62
		c-10.36-4.53-19.3-11.42-26.81-20.64c-7.52-9.22-11.28-21.63-11.28-37.23c0-13.62,3.9-25.46,11.7-35.53
		c7.8-10.07,18.01-17.87,30.64-23.4c12.62-5.53,26.02-8.3,40.21-8.3c14.47,0,28.94,2.7,43.4,8.08
		c14.47,5.39,25.81,13.34,34.04,23.83c3.68,4.54,5.53,9.65,5.53,15.32c0,6.53-2.7,11.91-8.08,16.17c-3.98,3.13-8.51,4.68-13.62,4.68
		c-6.24,0-11.35-1.98-15.32-5.96c-5.11-6.24-11.7-11.2-19.79-14.89c-8.08-3.68-17.23-5.53-27.45-5.53
		c-21.56,0-32.34,7.81-32.34,23.4c0,6.24,1.98,11.28,5.96,15.11c3.97,3.83,9,6.81,15.11,8.94c6.1,2.13,14.68,4.75,25.74,7.87
		c15.32,4.26,28.09,8.66,38.3,13.19c10.21,4.54,18.86,11.49,25.96,20.85c7.09,9.36,10.64,21.7,10.64,37.02
		c0,13.9-4.12,26.03-12.34,36.38c-8.23,10.36-18.8,18.23-31.7,23.62c-12.91,5.39-26.17,8.08-39.79,8.08
		c-18.72,0-36.17-3.13-52.34-9.36c-16.17-6.24-29.36-16.31-39.57-30.21C1670.33,376.17,1669.05,371.91,1669.05,366.81z"/>
	<path class="st0" d="M2022.45,372.55c3.26,3.83,4.89,8.87,4.89,15.11c0,7.66-4.19,14.12-12.55,19.36
		c-8.37,5.25-17.81,7.87-28.3,7.87c-17.59,0-32.41-3.76-44.47-11.28c-12.06-7.51-18.09-23.47-18.09-47.87V238.3h-19.57
		c-6.81,0-12.49-2.27-17.02-6.81c-4.54-4.53-6.81-10.21-6.81-17.02c0-6.52,2.27-11.98,6.81-16.38c4.53-4.4,10.21-6.6,17.02-6.6
		h19.57v-27.23c0-7.37,2.48-13.54,7.45-18.51c4.96-4.96,11.13-7.45,18.51-7.45c7.09,0,13.04,2.49,17.87,7.45
		c4.82,4.97,7.23,11.14,7.23,18.51v27.23h30.21c6.81,0,12.48,2.27,17.02,6.81c4.54,4.54,6.81,10.21,6.81,17.02
		c0,6.53-2.27,11.99-6.81,16.38c-4.54,4.4-10.21,6.6-17.02,6.6h-30.21v115.32c0,5.96,1.56,10.29,4.68,12.98
		c3.12,2.7,7.37,4.04,12.77,4.04c2.27,0,5.39-0.57,9.36-1.7c3.4-1.42,6.66-2.13,9.79-2.13
		C2015.57,366.81,2019.19,368.72,2022.45,372.55z"/>
	<path class="st0" d="M2267.77,190.21c4.82,4.83,7.23,11.06,7.23,18.72v180c0,7.38-2.41,13.55-7.23,18.51
		c-4.83,4.97-10.92,7.45-18.3,7.45c-7.38,0-13.41-2.41-18.09-7.23c-4.68-4.82-7.17-10.92-7.45-18.3
		c-7.09,8.23-16.67,15.25-28.72,21.06c-12.06,5.81-24.75,8.72-38.09,8.72c-19.57,0-37.31-5.03-53.19-15.11
		c-15.89-10.07-28.44-24.04-37.66-41.92c-9.22-17.87-13.83-38.15-13.83-60.85c0-22.69,4.53-43.05,13.62-61.06
		c9.08-18.01,21.49-32.05,37.23-42.13c15.74-10.07,33.12-15.11,52.13-15.11c13.62,0,26.38,2.49,38.3,7.45
		c11.91,4.97,21.98,11.28,30.21,18.94v-0.43c0-7.37,2.41-13.54,7.23-18.51c4.82-4.96,10.92-7.45,18.3-7.45
		C2256.85,182.98,2262.95,185.39,2267.77,190.21z M2208.62,352.13c11.63-13.47,17.45-30.43,17.45-50.85
		c0-20.43-5.82-37.45-17.45-51.06c-11.64-13.62-26.67-20.43-45.11-20.43c-18.16,0-33.05,6.81-44.68,20.43
		c-11.64,13.62-17.45,30.64-17.45,51.06c0,20.43,5.74,37.38,17.23,50.85c11.49,13.48,26.45,20.21,44.89,20.21
		C2181.95,372.34,2196.99,365.6,2208.62,352.13z"/>
	<path class="st0" d="M2367.55,407.45c-4.97,4.97-11.14,7.45-18.51,7.45c-7.09,0-13.05-2.48-17.87-7.45
		c-4.83-4.96-7.23-11.13-7.23-18.51V125.96c0-7.37,2.48-13.54,7.45-18.51c4.96-4.96,11.13-7.45,18.51-7.45
		c7.09,0,13.05,2.49,17.87,7.45c4.82,4.97,7.23,11.14,7.23,18.51v262.98C2375,396.32,2372.51,402.49,2367.55,407.45z"/>
</g>
<path class="st1" d="M250,250v225c0,13.81-11.19,25-25,25h-50c-8.77,0-17.18-1.51-25-4.27c-21.31-7.53-38.2-24.42-45.73-45.73
	c-2.76-7.82-4.27-16.23-4.27-25V275c0-3.66,0.79-7.14,2.21-10.27C106.12,256.04,114.85,250,125,250c13.81,0,25,11.19,25,25v150
	c0,13.81,11.19,25,25,25h25V250c0-27.61-22.39-50-50-50H75c-3.78,0-7.5-0.28-11.13-0.82c-4.79-0.71-9.43-1.88-13.87-3.45
	C28.69,188.2,11.8,171.31,4.27,150C1.51,142.18,0,133.77,0,125V75c0-13.81,11.19-25,25-25h100c13.81,0,25,11.19,25,25
	c0,6.9-2.8,13.15-7.31,17.67C138.16,97.2,131.91,100,125,100H50v25c0,13.81,11.19,25,25,25h70.73c-0.01,0.04-0.02,0.07-0.04,0.1
	c1.43-0.07,2.87-0.1,4.31-0.1c18.22,0,35.29,4.87,50,13.38C229.89,180.67,250,212.98,250,250z"/>
<path class="st1" d="M275,0c-41.42,0-75,33.58-75,75c0,41.42,33.58,75,75,75s75-33.58,75-75C350,33.58,316.42,0,275,0z M275,100
	c-13.81,0-25-11.19-25-25s11.19-25,25-25s25,11.19,25,25S288.81,100,275,100z"/>
<path class="st1" d="M550,75v50c0,8.77-1.51,17.18-4.27,25c-7.53,21.31-24.42,38.2-45.73,45.73c-4.44,1.57-9.08,2.74-13.87,3.45
	c-3.63,0.54-7.35,0.82-11.13,0.82h-75c-27.61,0-50,22.39-50,50v200h25c13.81,0,25-11.19,25-25V275c0-13.81,11.19-25,25-25
	c10.15,0,18.88,6.04,22.79,14.73c1.42,3.13,2.21,6.61,2.21,10.27v150c0,8.77-1.51,17.18-4.27,25c-7.53,21.31-24.42,38.2-45.73,45.73
	c-7.82,2.76-16.23,4.27-25,4.27h-50c-13.81,0-25-11.19-25-25V250c0-37.02,20.11-69.33,50-86.62c14.71-8.51,31.78-13.38,50-13.38
	c1.44,0,2.88,0.03,4.31,0.1c-0.02-0.03-0.03-0.06-0.04-0.1H475c13.81,0,25-11.19,25-25v-25h-75c-6.91,0-13.16-2.8-17.69-7.33
	C402.8,88.15,400,81.9,400,75c0-13.81,11.19-25,25-25h100C538.81,50,550,61.19,550,75z"/>
</svg>
